<svg width="284" height="270" viewBox="0 0 284 270" fill="none" xmlns="http://www.w3.org/2000/svg">
<g clip-path="url(#clip0_436_757)">
<path d="M60.6133 126.592C57.1887 83.3097 60.6987 3.82022 92.8609 17.8012C102.209 21.8689 100.271 34.2666 98.2599 41.5981C93.385 59.525 67.7917 81.4708 66.6704 126.19L60.6133 126.592Z" fill="url(#paint0_linear_436_757)"/>
<path d="M60.6133 126.593C59.6627 136.823 64.5742 148.112 76.8102 145.019C77.4178 144.847 77.9779 144.538 78.447 144.116C78.9161 143.694 79.2818 143.169 79.5158 142.583L80.5639 140.221C80.5639 140.221 70.8994 141.852 70.29 135.069C69.6807 128.286 69.0713 127.53 66.6338 126.154L60.6133 126.593Z" fill="#FF96A5"/>
<path d="M96.8827 105.548C94.6036 146.273 57.7737 230.902 48.3895 241.826L53.3984 246.149C53.3984 246.149 101.648 200.443 116.919 139.904C140.477 124.205 126.668 105.548 126.668 105.548H96.8827Z" fill="url(#paint1_linear_436_757)"/>
<path d="M102.733 105.548C102.733 167.427 135.126 227.492 150.385 247.964L155.394 243.421C155.394 243.421 126.486 180.629 140.477 138.308C155.394 130.343 143.779 105.548 143.779 105.548H102.733Z" fill="url(#paint2_linear_436_757)"/>
<path d="M22.2355 42.3655C27.1836 41.5983 39.2977 44.8013 39.2977 44.8013L39.6268 40.1369C39.6268 40.1369 53.4716 44.7038 53.3009 33.3778C60.6986 29.7242 68.8763 31.6971 72.3131 34.1328C82.5382 28.9691 89.1803 22.1491 91.0815 14.5497C80.2626 12.7236 69.2284 12.5552 58.3587 14.0504L25.2458 13.8921L22.2355 42.3655Z" fill="#FF96A5"/>
<path d="M39.4927 24.2678V27.215C39.4927 27.215 28.5242 25.1934 26.2574 28.9687C23.9905 32.7441 24.6243 49.9524 21.2118 53.1919C16.5441 57.698 0.907796 54.6168 8.03736 41.4639C0.956546 41.4639 6.37989 30.9538 9.25609 29.602C0.749362 24.8158 7.31831 7.37611 16.3369 9.83618C13.2901 2.79697 30.2792 2.30983 36.1656 9.60479C40.9796 1.93229 51.1072 3.84433 58.3587 14.05C52.85 15.2678 45.233 24.146 41.2965 22.7211C38.469 14.7076 31.632 18.483 30.8032 21.5763C29.9745 24.6697 39.4927 24.2678 39.4927 24.2678Z" fill="url(#paint3_linear_436_757)"/>
<path d="M32.4607 34.2668C32.7532 36.0205 33.3138 37.3845 33.6794 37.3114C34.0451 37.2383 34.1913 35.7769 33.8988 34.0232C33.6063 32.2695 33.0457 30.9176 32.6801 30.9785C32.3145 31.0394 32.1804 32.513 32.4607 34.2668Z" fill="#F97088"/>
<path d="M19.4325 52.1082C19.8744 51.7468 20.2146 51.2767 20.4196 50.7442C20.4503 50.6682 20.4496 50.5833 20.4176 50.5079C20.3856 50.4325 20.325 50.3729 20.249 50.3423C20.1731 50.3116 20.088 50.3123 20.0126 50.3443C19.9372 50.3763 19.8775 50.4369 19.8468 50.5128C19.2253 52.0107 17.4947 52.7049 15.1669 52.3395C12.8391 51.9742 9.9995 50.2935 9.88982 48.5277C9.88831 48.4866 9.87848 48.4462 9.86094 48.409C9.8434 48.3718 9.81851 48.3386 9.78776 48.3113C9.75701 48.284 9.72105 48.2632 9.68203 48.2501C9.64302 48.2371 9.60177 48.2321 9.56076 48.2354C9.51965 48.2369 9.47927 48.2467 9.44205 48.2642C9.40484 48.2817 9.37157 48.3066 9.34423 48.3374C9.3169 48.3681 9.29608 48.404 9.28302 48.443C9.26997 48.482 9.26495 48.5232 9.26827 48.5642C9.40233 50.6954 12.3882 52.4735 15.0694 52.8998C15.8117 53.0794 16.5833 53.1017 17.3348 52.9654C18.0862 52.829 18.8008 52.537 19.4325 52.1082Z" fill="url(#paint4_linear_436_757)"/>
<path d="M53.8616 12.5276C53.9182 12.4686 53.9498 12.3901 53.9498 12.3084C53.9498 12.2267 53.9182 12.1481 53.8616 12.0892C51.4241 9.14197 45.9154 6.43832 42.2349 9.23939C42.1833 9.30081 42.155 9.37843 42.155 9.45861C42.155 9.53879 42.1833 9.6164 42.2349 9.67782C42.2952 9.73174 42.3733 9.76155 42.4543 9.76155C42.5352 9.76155 42.6133 9.73174 42.6736 9.67782C46.0373 7.10814 51.2047 9.67782 53.435 12.4302C53.4562 12.4651 53.4841 12.4953 53.5172 12.5192C53.5503 12.5431 53.5879 12.56 53.6276 12.5691C53.6674 12.5782 53.7086 12.5792 53.7488 12.5721C53.789 12.565 53.8273 12.5498 53.8616 12.5276Z" fill="url(#paint5_linear_436_757)"/>
<path d="M1.0053 44.3873C1.0088 44.3631 1.0088 44.3385 1.0053 44.3142C1.84848 42.9633 2.20131 41.3638 2.00466 39.7838C1.61467 36.0084 3.28432 33.0125 7.37925 30.1018C7.41547 30.0801 7.44654 30.0507 7.47031 30.0157C7.49408 29.9808 7.50998 29.9411 7.51693 29.8995C7.52388 29.8578 7.52171 29.8151 7.51057 29.7744C7.49942 29.7336 7.47957 29.6958 7.45238 29.6634C7.40166 29.5986 7.32846 29.5551 7.24723 29.5416C7.166 29.5281 7.08265 29.5455 7.01363 29.5903C2.7359 32.6228 1.01749 35.8258 1.43186 39.8447C1.60217 41.276 1.29364 42.7234 0.554372 43.9611C0.5065 44.0291 0.487334 44.1132 0.501017 44.1952C0.514699 44.2773 0.560131 44.3506 0.627496 44.3995C0.684088 44.4365 0.750721 44.4552 0.818324 44.453C0.885927 44.4508 0.951215 44.4279 1.0053 44.3873Z" fill="#205FAE"/>
<path d="M36.5191 9.97035C36.5768 9.92277 36.6158 9.85632 36.6292 9.78276C36.6426 9.70921 36.6295 9.63329 36.5922 9.56846C36.1515 8.92493 35.9559 8.14497 36.0408 7.3698C36.1258 6.59462 36.4857 5.87546 37.0553 5.34249C37.1102 5.28023 37.1404 5.20013 37.1404 5.11719C37.1404 5.03425 37.1102 4.95415 37.0553 4.89189C36.9963 4.83532 36.9177 4.80373 36.836 4.80373C36.7542 4.80373 36.6756 4.83532 36.6166 4.89189C36.1678 5.32154 35.8268 5.85099 35.6213 6.43719C35.4159 7.02338 35.3519 7.64976 35.4344 8.26535C33.8223 6.01649 32.4074 3.63283 31.2054 1.14089C31.1906 1.10142 31.168 1.06532 31.1391 1.03468C31.1101 1.00405 31.0753 0.979502 31.0367 0.962488C30.9981 0.945473 30.9565 0.93633 30.9143 0.935595C30.8721 0.93486 30.8302 0.942549 30.7911 0.958209C30.717 0.997294 30.6606 1.06316 30.6334 1.14237C30.6062 1.22157 30.6103 1.30816 30.6448 1.38446C30.6448 1.38446 33.4479 7.20581 36.1047 9.90946C36.1614 9.95597 36.2325 9.98139 36.3058 9.98139C36.3792 9.98139 36.4502 9.95597 36.5069 9.90946L36.5191 9.97035Z" fill="#205FAE"/>
<path d="M146.058 94.1734C145.144 82.5551 126.254 9.76376 91.0816 14.5499C55.9091 19.3361 82.0873 87.6213 96.8827 105.548H143.779C143.779 105.548 146.972 105.78 146.058 94.1734Z" fill="url(#paint6_linear_436_757)"/>
<path d="M126.144 118.518C131.373 112.258 134.566 128.407 134.566 128.407C134.566 128.407 136.845 108.398 140.477 105.548H116.919C116.919 105.548 120.904 124.778 126.144 118.518Z" fill="#A9CBE8"/>
<path d="M93.0071 61.9974C92.9522 61.9964 92.8983 61.9827 92.8497 61.9574C92.801 61.932 92.759 61.8957 92.7268 61.8512C92.6711 61.787 92.6404 61.7048 92.6404 61.6198C92.6404 61.5348 92.6711 61.4527 92.7268 61.3884C92.8243 61.291 102.367 51.0001 104.829 41.9027C104.855 41.8123 104.915 41.7358 104.998 41.6901C105.08 41.6445 105.177 41.6333 105.268 41.6592C105.358 41.685 105.435 41.7457 105.48 41.8279C105.526 41.9101 105.537 42.0071 105.511 42.0976C103.549 49.4047 97.1508 57.406 94.4574 60.5481C97.4067 59.0136 103.561 55.4697 105.889 51.4873C105.912 51.4458 105.943 51.4095 105.98 51.3806C106.017 51.3517 106.06 51.3309 106.106 51.3194C106.152 51.308 106.2 51.3061 106.246 51.3141C106.293 51.322 106.337 51.3395 106.377 51.3655C106.455 51.4157 106.512 51.4942 106.535 51.5848C106.557 51.6754 106.544 51.7712 106.498 51.8526C103.293 57.3452 93.5434 61.8147 93.0924 61.9974C93.0641 62.0015 93.0354 62.0015 93.0071 61.9974Z" fill="url(#paint7_linear_436_757)"/>
<path d="M80.6614 127.335C69.5588 85.3557 58.8096 6.52382 92.9584 14.5495C102.867 16.8756 103.184 29.4195 102.513 36.9946C100.88 55.506 79.6377 81.6656 86.5479 125.898L80.6614 127.335Z" fill="url(#paint8_linear_436_757)"/>
<path d="M80.6614 127.336C81.551 137.566 88.4125 147.796 99.8929 142.571C100.449 142.302 100.938 141.914 101.326 141.434C101.714 140.954 101.99 140.394 102.135 139.794L102.733 137.285C102.733 137.285 93.519 140.622 91.764 134.046C90.009 127.47 89.2534 126.836 86.6088 125.923L80.6614 127.336Z" fill="#FF96A5"/>
<path d="M155.394 243.421C155.394 243.421 158.77 246.904 162.255 250.034C162.812 250.526 163.265 251.124 163.588 251.793C163.91 252.463 164.096 253.19 164.133 253.932C164.17 254.674 164.059 255.416 163.806 256.114C163.553 256.812 163.162 257.453 162.658 257.999C157.942 263.226 152.005 267.205 145.376 269.58H130.751C130.366 269.582 129.993 269.446 129.699 269.196C129.406 268.946 129.212 268.6 129.153 268.219C129.094 267.839 129.174 267.45 129.378 267.123C129.581 266.796 129.896 266.553 130.264 266.438C136.357 264.478 143.231 261.835 145.937 259.229C149.861 253.773 151.64 249.632 150.434 247.964L155.394 243.421Z" fill="#FF96A5"/>
<path d="M53.3985 246.149L49.5595 262.468C49.4098 263.099 49.1219 263.688 48.7164 264.194C48.3109 264.699 47.798 265.109 47.2148 265.392C46.6316 265.675 45.9927 265.825 45.3444 265.831C44.696 265.838 44.0543 265.7 43.4658 265.428C37.0695 262.413 31.4254 258.013 26.9436 252.547C22.4618 247.08 19.2548 240.684 17.5557 233.824C17.4961 233.521 17.5377 233.207 17.674 232.929C17.8104 232.652 18.034 232.427 18.3107 232.289C18.5873 232.151 18.9016 232.107 19.2055 232.164C19.5094 232.222 19.7861 232.377 19.9931 232.607C31.766 246.137 42.4543 247.72 48.3529 241.826L53.3985 246.149Z" fill="#FF96A5"/>
<path d="M211.626 193.136H268.541V258.717C268.541 261.598 267.395 264.362 265.357 266.399C263.318 268.436 260.553 269.581 257.67 269.581H222.497C219.614 269.581 216.849 268.436 214.81 266.399C212.771 264.362 211.626 261.598 211.626 258.717V193.136Z" fill="#205FAE"/>
<path d="M193.869 193.136H250.784V258.717C250.784 261.598 249.638 264.362 247.6 266.399C245.561 268.436 242.796 269.581 239.913 269.581H204.74C201.857 269.581 199.092 268.436 197.053 266.399C195.014 264.362 193.869 261.598 193.869 258.717V193.136Z" fill="#0088A3"/>
<path d="M279.582 162.653H263.459L271.453 149.037C273.099 146.249 272.16 143.983 269.369 143.983H268.541C265.75 143.983 262.167 146.249 260.534 149.037L252.527 162.653H236.439C232.625 162.653 227.725 165.734 225.471 169.546L211.626 193.136H268.541L282.398 169.546C284.64 165.734 283.36 162.653 279.582 162.653Z" fill="#00CEC9"/>
<path d="M204.63 170.691C204.584 170.686 204.539 170.673 204.498 170.651C204.457 170.628 204.42 170.598 204.391 170.562C204.361 170.526 204.339 170.484 204.326 170.439C204.313 170.395 204.309 170.348 204.314 170.301C205.532 157.185 204.106 148.733 199.817 144.446C198.03 142.717 195.761 141.57 193.309 141.158C193.672 143.476 193.156 145.846 191.862 147.803C190.568 149.761 188.589 151.165 186.313 151.741C182.596 152.679 179.269 151.96 177.416 149.841C176.811 149.173 176.402 148.351 176.237 147.465C176.071 146.579 176.155 145.665 176.478 144.824C177.477 142.388 180.39 140.683 184.485 140.281C187.129 139.971 189.8 139.971 192.443 140.281C191.395 135.678 186.618 130.989 176.6 132.803C176.507 132.815 176.413 132.791 176.336 132.737C176.26 132.683 176.206 132.603 176.185 132.511C176.177 132.465 176.177 132.417 176.187 132.371C176.197 132.325 176.217 132.281 176.244 132.242C176.271 132.204 176.306 132.171 176.346 132.146C176.386 132.121 176.431 132.104 176.478 132.097C187.117 130.197 192.139 135.3 193.199 140.245V140.403C195.881 140.812 198.369 142.047 200.316 143.935C204.765 148.38 206.3 157.027 205.02 170.362C205.017 170.41 205.005 170.456 204.983 170.499C204.962 170.541 204.932 170.579 204.896 170.61C204.859 170.64 204.817 170.663 204.771 170.677C204.726 170.691 204.678 170.696 204.63 170.691ZM188.787 140.756C187.35 140.763 185.914 140.844 184.485 141C180.67 141.365 177.977 142.851 177.087 145.079C176.802 145.799 176.726 146.584 176.869 147.345C177.011 148.106 177.366 148.811 177.892 149.378C179.561 151.278 182.632 151.912 186.081 151.047C188.223 150.497 190.076 149.159 191.27 147.299C192.464 145.44 192.909 143.198 192.516 141.024C191.29 140.838 190.051 140.748 188.811 140.756H188.787Z" fill="url(#paint9_linear_436_757)"/>
<path d="M225.117 148.672C225.072 148.674 225.027 148.666 224.985 148.649C224.943 148.632 224.905 148.607 224.874 148.575C224.807 148.509 224.77 148.419 224.77 148.325C224.77 148.231 224.807 148.142 224.874 148.075C232.868 139.465 236.183 132.024 234.209 127.14C233.569 125.562 232.385 124.266 230.87 123.487C229.604 125.554 227.578 127.045 225.227 127.64C221.4 128.565 218.865 127.408 217.915 126.13C217.612 125.779 217.42 125.346 217.364 124.887C217.307 124.427 217.389 123.961 217.598 123.548C218.475 121.892 221.254 121.112 225.203 121.307C227.074 121.373 228.917 121.786 230.638 122.525C231.538 120.912 231.925 119.065 231.747 117.227C231.248 113.306 227.933 111.065 222.631 111.065H222.302C222.207 111.065 222.116 111.028 222.048 110.962C221.98 110.896 221.94 110.806 221.936 110.712C221.936 110.618 221.974 110.528 222.04 110.462C222.106 110.396 222.196 110.358 222.29 110.358H222.521C228.152 110.358 231.82 112.892 232.357 117.154C232.547 119.134 232.121 121.124 231.138 122.854C232.785 123.701 234.08 125.103 234.794 126.812C236.866 131.975 233.502 139.672 225.312 148.502C225.293 148.542 225.266 148.578 225.232 148.607C225.199 148.636 225.16 148.658 225.117 148.672ZM223.801 122.013C219.536 122.013 218.427 123.45 218.171 123.925C218.023 124.215 217.967 124.543 218.01 124.865C218.054 125.187 218.195 125.488 218.414 125.728C219.341 126.946 221.754 127.786 225.032 126.946C227.184 126.408 229.042 125.054 230.212 123.17C228.589 122.48 226.855 122.092 225.093 122.025C224.63 122.025 224.203 122.013 223.801 122.013Z" fill="url(#paint10_linear_436_757)"/>
<path d="M217.171 65.0056L203.253 59.6957L206.739 48.0287L194.698 43.7662L199.573 30.6255L195.222 29.7852C189.004 33.2966 184.383 39.0702 182.32 45.9028C180.257 52.7354 180.912 60.0999 184.148 66.4618C187.385 72.8236 192.953 77.6921 199.693 80.0526C206.433 82.4131 213.825 82.0836 220.328 79.1327L206.922 74.8215L217.171 65.0056Z" fill="#FA5D8A"/>
<path d="M251.917 87.1821C256.943 85.5364 261.394 82.4883 264.743 78.3975C268.092 74.3067 270.201 69.3439 270.82 64.0948C271.438 58.8456 270.542 53.5291 268.235 48.7726C265.929 44.016 262.31 40.0179 257.804 37.25L259.181 41.4516L245.336 43.5829L247.469 56.1633L235.574 58.7817L237.682 73.53L224.081 69.2553L226.836 83.1023C230.387 85.7338 234.517 87.4774 238.88 88.1872C243.244 88.8969 247.714 88.5523 251.917 87.1821Z" fill="#FA5D8A"/>
<path d="M211.711 66.0529L197.781 60.7309L201.279 49.0638L189.238 44.8013L194.113 31.6606L189.762 30.8203C183.709 34.4099 179.249 40.1656 177.286 46.9201C175.323 53.6746 176.004 60.9223 179.192 67.1934C182.379 73.4645 187.834 78.2894 194.45 80.6898C201.066 83.0901 208.348 82.8861 214.819 80.1192L201.413 75.8079L211.711 66.0529Z" fill="#FF97B5"/>
<path d="M248.566 84.5396C253.592 82.8938 258.042 79.8457 261.392 75.7549C264.741 71.6641 266.849 66.7014 267.468 61.4522C268.087 56.2031 267.19 50.8866 264.884 46.13C262.578 41.3734 258.958 37.3753 254.452 34.6074L255.817 38.7116L241.985 40.8916L244.105 53.472L232.21 56.0904L234.331 70.8387L220.73 66.5762L223.521 80.4476C227.067 83.0752 231.19 84.8177 235.546 85.5295C239.903 86.2413 244.367 85.9019 248.566 84.5396Z" fill="#FF97B5"/>
<path d="M235.537 216.239H210.602C209.283 216.175 208.039 215.606 207.128 214.65C206.218 213.695 205.71 212.426 205.71 211.106C205.71 209.786 206.218 208.517 207.128 207.561C208.039 206.606 209.283 206.037 210.602 205.973H235.537C236.857 206.037 238.1 206.606 239.011 207.561C239.922 208.517 240.43 209.786 240.43 211.106C240.43 212.426 239.922 213.695 239.011 214.65C238.1 215.606 236.857 216.175 235.537 216.239ZM210.602 206.691C209.429 206.691 208.304 207.157 207.474 207.986C206.644 208.815 206.178 209.94 206.178 211.112C206.178 212.284 206.644 213.409 207.474 214.238C208.304 215.067 209.429 215.533 210.602 215.533H235.537C236.711 215.533 237.836 215.067 238.666 214.238C239.495 213.409 239.961 212.284 239.961 211.112C239.961 209.94 239.495 208.815 238.666 207.986C237.836 207.157 236.711 206.691 235.537 206.691H210.602Z" fill="white"/>
<path d="M140.818 92.03C140.771 92.024 140.726 92.0088 140.686 91.9853C140.645 91.9617 140.609 91.9303 140.581 91.8929C140.553 91.8555 140.532 91.8128 140.52 91.7673C140.509 91.7219 140.506 91.6745 140.513 91.6281C140.891 89.0462 139.55 87.7188 138.003 86.1721C135.894 84.0652 133.493 81.6782 134.834 75.6863C136.175 69.6945 132.531 67.892 127.936 65.6025C124.987 64.1167 121.635 62.4482 119.185 59.367C116.114 55.4943 117.223 51.2683 118.308 47.1885C119.527 42.8042 120.563 38.6635 116.931 34.815C116.899 34.7807 116.874 34.7403 116.857 34.6963C116.841 34.6523 116.833 34.6055 116.835 34.5586C116.837 34.5116 116.848 34.4655 116.867 34.4228C116.887 34.3801 116.915 34.3416 116.949 34.3096C116.983 34.2777 117.024 34.2528 117.068 34.2364C117.112 34.22 117.159 34.2124 117.206 34.2141C117.253 34.2158 117.299 34.2267 117.342 34.2462C117.384 34.2658 117.423 34.2935 117.455 34.3279C121.355 38.4686 120.148 42.9991 118.99 47.3712C117.918 51.4632 116.894 55.3238 119.746 58.9286C122.098 61.888 125.364 63.5199 128.277 64.957C132.957 67.3075 137.003 69.3169 135.59 75.8325C134.371 81.4468 136.491 83.5902 138.563 85.6606C140.184 87.2803 141.708 88.8027 141.281 91.7499C141.273 91.8008 141.254 91.8494 141.225 91.8922C141.197 91.935 141.159 91.9711 141.115 91.9978C141.071 92.0245 141.021 92.0412 140.97 92.0467C140.919 92.0523 140.867 92.0466 140.818 92.03Z" fill="url(#paint11_linear_436_757)"/>
<path d="M104.853 96.1212C104.805 96.1321 104.755 96.1321 104.707 96.1212C104.664 96.104 104.624 96.0781 104.591 96.0451C104.558 96.0121 104.532 95.9727 104.515 95.9294C104.498 95.886 104.49 95.8396 104.492 95.793C104.493 95.7464 104.504 95.7006 104.524 95.6584C106.096 92.1875 102.769 90.1415 99.2471 87.9737C96.1149 86.0495 92.8853 84.0644 93.58 80.9345C93.5884 80.8879 93.6065 80.8436 93.633 80.8043C93.6596 80.7651 93.694 80.7318 93.7341 80.7066C93.7743 80.6814 93.8192 80.6648 93.8661 80.6579C93.913 80.651 93.9608 80.654 94.0065 80.6666C94.0974 80.6897 94.1759 80.7469 94.2258 80.8262C94.2757 80.9055 94.2932 81.001 94.2746 81.0928C93.6897 83.7112 96.5659 85.4893 99.6249 87.377C103.086 89.496 106.937 91.9074 105.17 95.902C105.147 95.9672 105.104 96.0234 105.047 96.0628C104.99 96.1021 104.922 96.1226 104.853 96.1212Z" fill="url(#paint12_linear_436_757)"/>
</g>
<defs>
<linearGradient id="paint0_linear_436_757" x1="79.7428" y1="16.1738" x2="79.7428" y2="126.592" gradientUnits="userSpaceOnUse">
<stop stop-color="#533BA9"/>
<stop offset="1" stop-color="#9B53A6"/>
</linearGradient>
<linearGradient id="paint1_linear_436_757" x1="89.5396" y1="105.548" x2="89.5396" y2="246.149" gradientUnits="userSpaceOnUse">
<stop stop-color="#533BA9"/>
<stop offset="1" stop-color="#9B53A6"/>
</linearGradient>
<linearGradient id="paint2_linear_436_757" x1="129.063" y1="105.548" x2="129.063" y2="247.964" gradientUnits="userSpaceOnUse">
<stop stop-color="#7A75D9"/>
<stop offset="1" stop-color="#FF628F"/>
</linearGradient>
<linearGradient id="paint3_linear_436_757" x1="31.454" y1="4.3418" x2="31.454" y2="55.1383" gradientUnits="userSpaceOnUse">
<stop stop-color="#7A75D9"/>
<stop offset="1" stop-color="#FF628F"/>
</linearGradient>
<linearGradient id="paint4_linear_436_757" x1="14.8547" y1="48.2344" x2="14.8547" y2="53.0533" gradientUnits="userSpaceOnUse">
<stop stop-color="#FFE9E9"/>
<stop offset="1" stop-color="#FFE9E9" stop-opacity="0"/>
</linearGradient>
<linearGradient id="paint5_linear_436_757" x1="48.0524" y1="8.0625" x2="48.0524" y2="12.5768" gradientUnits="userSpaceOnUse">
<stop stop-color="#FFE9E9"/>
<stop offset="1" stop-color="#FFE9E9" stop-opacity="0"/>
</linearGradient>
<linearGradient id="paint6_linear_436_757" x1="89.3639" y1="27.8699" x2="151.76" y2="51.3358" gradientUnits="userSpaceOnUse">
<stop stop-color="#523AA8"/>
<stop offset="0.0001" stop-color="#523AA8"/>
<stop offset="1" stop-color="#161175"/>
</linearGradient>
<linearGradient id="paint7_linear_436_757" x1="99.5929" y1="41.6455" x2="99.5929" y2="62.0005" gradientUnits="userSpaceOnUse">
<stop stop-color="#FFE9E9"/>
<stop offset="1" stop-color="#FFE9E9" stop-opacity="0"/>
</linearGradient>
<linearGradient id="paint8_linear_436_757" x1="86.2825" y1="13.9805" x2="86.2825" y2="127.335" gradientUnits="userSpaceOnUse">
<stop stop-color="#7A75D9"/>
<stop offset="1" stop-color="#FF628F"/>
</linearGradient>
<linearGradient id="paint9_linear_436_757" x1="190.805" y1="131.69" x2="190.805" y2="170.693" gradientUnits="userSpaceOnUse">
<stop stop-color="#FFE9E9"/>
<stop offset="1" stop-color="#FFE9E9" stop-opacity="0"/>
</linearGradient>
<linearGradient id="paint10_linear_436_757" x1="226.368" y1="110.358" x2="226.368" y2="148.672" gradientUnits="userSpaceOnUse">
<stop stop-color="#FFE9E9"/>
<stop offset="1" stop-color="#FFE9E9" stop-opacity="0"/>
</linearGradient>
<linearGradient id="paint11_linear_436_757" x1="129.094" y1="34.2139" x2="129.094" y2="92.0488" gradientUnits="userSpaceOnUse">
<stop stop-color="#FFE9E9"/>
<stop offset="1" stop-color="#FFE9E9" stop-opacity="0"/>
</linearGradient>
<linearGradient id="paint12_linear_436_757" x1="99.5493" y1="80.6543" x2="99.5493" y2="96.1294" gradientUnits="userSpaceOnUse">
<stop stop-color="#FFE9E9"/>
<stop offset="1" stop-color="#FFE9E9" stop-opacity="0"/>
</linearGradient>
<clipPath id="clip0_436_757">
<rect width="283.013" height="268.623" fill="white" transform="translate(0.493408 0.958008)"/>
</clipPath>
</defs>
</svg>
