<svg width="142" height="142" viewBox="0 0 142 142" fill="none" xmlns="http://www.w3.org/2000/svg">
<path d="M56.8 14.2C41.1151 14.2 28.4 26.9151 28.4 42.6C28.4 58.2849 41.1151 71 56.8 71C72.4849 71 85.2 58.2849 85.2 42.6C85.2 26.9151 72.4849 14.2 56.8 14.2ZM14.2 42.6C14.2 19.0727 33.2727 0 56.8 0C80.3273 0 99.4 19.0727 99.4 42.6C99.4 66.1273 80.3273 85.2 56.8 85.2C33.2727 85.2 14.2 66.1273 14.2 42.6ZM105.282 12.4773C108.055 9.70453 112.55 9.70453 115.323 12.4773C131.959 29.1136 131.959 56.0864 115.323 72.7227C112.55 75.4955 108.055 75.4955 105.282 72.7227C102.509 69.95 102.509 65.4546 105.282 62.6818C116.373 51.5909 116.373 33.6091 105.282 22.5182C102.509 19.7454 102.509 15.25 105.282 12.4773ZM110.262 104.778C111.213 100.974 115.068 98.6609 118.872 99.612C128.3 101.969 134.268 107.998 137.7 114.862C141.022 121.505 142 128.916 142 134.9C142 138.821 138.821 142 134.9 142C130.979 142 127.8 138.821 127.8 134.9C127.8 130.234 127.003 125.22 125 121.213C123.107 117.427 120.2 114.581 115.428 113.388C111.624 112.437 109.311 108.582 110.262 104.778ZM31.95 113.6C23.0078 113.6 14.2 122.216 14.2 134.9C14.2 138.821 11.0212 142 7.1 142C3.17878 142 0 138.821 0 134.9C0 116.214 13.4436 99.4 31.95 99.4H81.65C100.156 99.4 113.6 116.214 113.6 134.9C113.6 138.821 110.421 142 106.5 142C102.579 142 99.4 138.821 99.4 134.9C99.4 122.216 90.5922 113.6 81.65 113.6H31.95Z" fill="url(#paint0_linear_309_22212)"/>
<defs>
<linearGradient id="paint0_linear_309_22212" x1="71" y1="0" x2="71" y2="142" gradientUnits="userSpaceOnUse">
<stop stop-color="#533BA9"/>
<stop offset="1" stop-color="#9B53A6"/>
</linearGradient>
</defs>
</svg>
