<svg width="128" height="79" viewBox="0 0 128 79" fill="none" xmlns="http://www.w3.org/2000/svg">
<path d="M35.5437 19.9139C36.5912 20.3148 37.3343 21.3232 37.3343 22.5017C37.3343 23.5951 36.6887 24.5548 35.7386 25.0044L33.2781 34.0554L35.0687 35.4647C35.2514 35.4283 35.4219 35.4161 35.6046 35.4161C37.1394 35.4161 38.3818 36.6553 38.3818 38.1861C38.3818 39.7169 37.1272 40.9561 35.6046 40.9561H35.5437L30.708 46.3746C30.7201 46.4961 30.7323 46.6297 30.7323 46.7512C30.7323 46.9213 30.7201 47.0914 30.6836 47.2493L35.3975 53.0323C36.8958 53.0687 38.1138 54.2958 38.1138 55.8022C38.1138 57.333 36.8592 58.5844 35.3366 58.5844C34.9347 58.5844 34.5449 58.4993 34.1795 58.3414L32.8396 58.9732H48.8694C48.8694 58.9732 49.8804 58.4629 50.0509 57.1508C50.2458 55.6808 50.2824 55.0976 51.0254 53.6033C51.7684 52.1089 54.2655 51.8659 54.7527 50.7482C55.0085 50.1651 54.6065 49.8006 54.168 49.5819C53.7661 49.3875 53.3397 49.3146 53.3397 49.3146C53.3397 49.3146 54.5578 48.8408 55.2278 48.0147C55.2643 47.9539 55.3008 47.8932 55.3374 47.8325C55.7028 46.9942 54.4482 45.6821 54.3873 44.2485C54.3264 42.7177 57.5177 42.4383 58.0171 41.0776C58.0537 40.8832 58.1024 40.6888 58.139 40.5066C58.1877 39.2795 57.1036 37.8095 55.2521 34.59C53.1205 30.8481 57.1279 28.6612 55.2521 24.7978C51.3543 18.4196 44.3016 14.1552 36.2502 14.1552C35.6655 14.1552 35.093 14.1795 34.5205 14.216C34.5571 14.4104 34.5814 14.6048 34.5814 14.7991C34.5814 15.2851 34.4474 15.7711 34.216 16.1841L35.5437 19.9139Z" fill="white"/>
<path d="M41.8171 66.8944C40.1848 67.0159 38.5404 67.0766 36.9082 67.0766C35.2882 67.0766 33.6681 67.0159 32.0481 66.8944C31.4391 66.8458 30.83 66.7972 30.221 66.7364C29.21 66.6271 28.199 66.5056 27.188 66.3477V69.3849L28.0163 69.5186C30.964 69.9803 33.9605 70.2232 36.9082 70.2232C39.856 70.2232 42.8524 69.9924 45.8001 69.5186L46.6284 69.3849V66.3477C45.6174 66.4934 44.6064 66.6271 43.5954 66.7364C43.0108 66.7972 42.4139 66.8579 41.8171 66.8944Z" fill="white"/>
<path d="M34.5809 78.3631H39.2461L39.7821 75.6538H34.0449L34.5809 78.3631Z" fill="white"/>
<path d="M27.8208 70.7942V73.6371C30.8538 74.1231 33.8868 74.3661 36.9198 74.3661C39.9528 74.3661 42.9858 74.1231 46.0188 73.6371V70.7942C42.9858 71.268 39.9528 71.511 36.9198 71.511C33.8868 71.511 30.8538 71.268 27.8208 70.7942Z" fill="white"/>
<path d="M29.1729 60.7105C28.8075 61.8282 27.7599 62.6422 26.5297 62.6422C26.4322 62.6422 26.3348 62.6422 26.2495 62.63V64.9262L27.3945 65.0963C30.5615 65.5701 33.765 65.8131 36.9198 65.8131C40.0868 65.8131 43.2904 65.5701 46.4452 65.0963L47.5902 64.9262V60.2852H30.0986L29.1729 60.7105Z" fill="white"/>
<path d="M26.5175 61.3423C27.3458 61.3423 28.0158 60.6741 28.0158 59.8479C28.0158 59.8358 28.0158 59.8236 28.0158 59.8236L34.301 56.8836C34.569 57.1508 34.9466 57.3088 35.3486 57.3088C36.1768 57.3088 36.8468 56.6406 36.8468 55.8145C36.8468 54.9883 36.1768 54.3201 35.3486 54.3201C35.178 54.3201 35.0197 54.3444 34.8613 54.4052L29.246 47.5166C29.38 47.298 29.4531 47.0307 29.4531 46.7634C29.4531 46.5083 29.3922 46.2774 29.2825 46.0587L35.0684 39.5711C35.2389 39.6319 35.4216 39.6805 35.6165 39.6805C36.4448 39.6805 37.1148 39.0123 37.1148 38.1862C37.1148 37.36 36.4448 36.6918 35.6165 36.6918C35.3364 36.6918 35.0684 36.7769 34.837 36.9105L31.8161 34.5293L34.6786 23.9717C35.4338 23.8989 36.0429 23.2671 36.0429 22.4896C36.0429 21.6756 35.3851 21.0074 34.569 21.0074L32.7541 15.9412C33.0829 15.6739 33.29 15.2609 33.29 14.7992C33.29 13.9731 32.6201 13.3049 31.7918 13.3049C30.9635 13.3049 30.2936 13.9731 30.2936 14.7992C30.2936 14.8478 30.2936 14.8964 30.3057 14.9328L22.8389 18.5047C22.5588 18.2374 22.1934 18.0795 21.8036 18.0795C21.56 18.0795 21.3164 18.1402 21.0971 18.2617C20.9022 18.371 20.7317 18.5168 20.5977 18.6991C20.4028 18.9542 20.3054 19.2579 20.3054 19.5738C20.3054 19.9869 20.4759 20.3513 20.7439 20.6308L14.4342 34.2377C13.7278 34.2377 13.1309 34.7237 12.9847 35.404L12.9482 35.4526V35.5498L12.9238 35.5741L12.936 35.732L12.9238 35.9021L12.9604 35.9264V36.0115L12.9969 36.0601C13.1431 36.6797 13.6547 37.1413 14.3003 37.2142L16.5293 45.2448C16.2004 45.512 15.9934 45.9251 15.9934 46.3868C15.9934 47.2129 16.6633 47.8811 17.4916 47.8811C17.6378 47.8811 17.7718 47.8568 17.8936 47.8204L22.6441 54.3323C22.4857 54.5631 22.3883 54.8547 22.3883 55.1584C22.3883 55.9845 23.0582 56.6527 23.8865 56.6527C23.9596 56.6527 24.0448 56.6406 24.1179 56.6284L25.3969 58.9125C25.1776 59.1676 25.0437 59.5078 25.0437 59.8722C25.0315 60.6741 25.7014 61.3423 26.5175 61.3423ZM29.0389 44.7952L29.989 41.2963L33.6189 39.6562L29.0389 44.7952ZM24.0205 42.8635L20.756 40.1786L24.7148 31.1518C24.7391 31.1518 24.7757 31.1518 24.8 31.1518C25.0802 31.1518 25.3482 31.0668 25.5796 30.9332L30.6468 34.9302L29.112 40.5674L24.0205 42.8635ZM28.771 41.8552L27.833 45.2934C27.6138 45.3177 27.3945 45.3784 27.2118 45.4877L24.9097 43.5925L28.771 41.8552ZM15.8837 35.3311L23.7038 30.8724L19.9277 39.4861L15.8716 36.1573C15.9203 36.0236 15.9325 35.8778 15.9325 35.7199C15.9446 35.5984 15.9203 35.4648 15.8837 35.3311ZM34.2036 37.7366C34.1548 37.8824 34.1305 38.0404 34.1305 38.1983C34.1305 38.2348 34.1305 38.2712 34.1305 38.3076L30.3301 40.0207L31.5238 35.6227L34.2036 37.7366ZM30.9391 33.8489L26.2252 30.1313C26.2739 29.9855 26.2983 29.8276 26.2983 29.6697C26.2983 29.5239 26.2739 29.3902 26.2374 29.2566L33.6554 23.8017L30.9391 33.8489ZM30.7564 15.8805C31.0244 16.1356 31.3776 16.2935 31.7796 16.3057L33.5945 21.3718C33.4849 21.469 33.3875 21.5784 33.3022 21.6999L23.3627 19.4158L30.7564 15.8805ZM23.0582 20.3999L33.0708 22.6961C33.0829 22.769 33.0951 22.854 33.1195 22.9148L25.6283 28.4183C25.4213 28.2847 25.1655 28.1996 24.8975 28.1753L22.6928 20.7765C22.8389 20.6672 22.9608 20.5457 23.0582 20.3999ZM21.6818 21.0681C21.694 21.0681 21.694 21.0681 21.7061 21.0681L23.9108 28.4669C23.5454 28.7342 23.314 29.1715 23.314 29.6575C23.314 29.7426 23.3262 29.8276 23.3384 29.9005L15.5183 34.3471L21.6818 21.0681ZM17.5647 44.8924C17.5403 44.8924 17.516 44.8924 17.4916 44.8924L15.3113 37.032L19.5014 40.4702L17.5647 44.8924ZM18.5148 45.3055L20.3297 41.1627L22.9729 43.3374L18.5391 45.342C18.527 45.3298 18.5148 45.3177 18.5148 45.3055ZM24.0205 53.6641C23.9718 53.6641 23.923 53.6519 23.8743 53.6519C23.7281 53.6519 23.5941 53.6762 23.4723 53.7127L18.7219 47.2008C18.8802 46.9699 18.9777 46.6784 18.9777 46.3746C18.9777 46.3382 18.9777 46.3017 18.9777 46.2653L23.8743 44.0542L26.5662 46.2774C26.5175 46.4354 26.481 46.5933 26.481 46.7634C26.481 47.1643 26.6393 47.5288 26.8951 47.7961L24.0205 53.6641ZM27.8209 48.2577C27.8696 48.2577 27.9183 48.2699 27.967 48.2699C28.1376 48.2699 28.2959 48.2456 28.4543 48.1848L34.0696 55.0734C34.0209 55.1584 33.9721 55.2556 33.9356 55.3528L25.3116 54.7332C25.2385 54.5023 25.1167 54.2837 24.9584 54.1136L27.8209 48.2577ZM25.0071 56.1182C25.1046 56.0088 25.1776 55.8873 25.2385 55.7659L33.0829 56.3247L27.6382 58.876C27.3702 58.5723 26.9682 58.3779 26.5297 58.3779C26.4444 58.3779 26.3592 58.3901 26.2861 58.4022L25.0071 56.1182Z" fill="white"/>
<path d="M69.2231 32.792C70.1245 31.8929 71.2939 31.3948 72.4754 31.3098C71.5984 25.0287 69.1135 19.2579 65.4593 14.4226C64.5701 15.2001 63.3886 15.6739 62.1096 15.6739C59.2958 15.6739 57.0059 13.3899 57.0059 10.5835C57.0059 9.3078 57.4809 8.14149 58.2605 7.24246C53.4125 3.59774 47.6267 1.11933 41.3292 0.244598C41.244 1.42306 40.7567 2.58937 39.8432 3.4884C37.8456 5.48085 34.6177 5.48085 32.6322 3.4884C31.7308 2.57722 31.2314 1.42306 31.1461 0.244598C24.8487 1.11933 19.0629 3.59774 14.2149 7.24246C14.9945 8.12934 15.4695 9.3078 15.4695 10.5835C15.4695 13.3899 13.1796 15.6739 10.3658 15.6739C9.08683 15.6739 7.91748 15.2001 7.0161 14.4226C3.36188 19.2579 0.877013 25.0287 0 31.3098C1.18153 31.3948 2.35088 31.8808 3.25226 32.792C5.2499 34.7844 5.2499 38.0039 3.25226 39.9842C2.35088 40.8954 1.18153 41.3813 0 41.4664C0.877013 47.7474 3.36188 53.5183 7.0161 58.3536C7.91748 57.576 9.08683 57.1022 10.3658 57.1022C13.1796 57.1022 15.4695 59.3863 15.4695 62.1927C15.4695 63.4683 14.9945 64.6347 14.2149 65.5337C17.6742 68.1457 21.6208 70.1503 25.8841 71.4017V67.4654L24.934 67.3074V62.1441C24.2031 61.646 23.7281 60.8077 23.7281 59.8601C23.7281 59.6292 23.7524 59.4106 23.8133 59.1919C15.7253 54.7939 10.2318 46.2288 10.2318 36.3881C10.2318 22.0643 21.8766 10.4498 36.2377 10.4498C50.5988 10.4498 62.2436 22.0643 62.2436 36.3881C62.2436 45.1111 57.9194 52.8379 51.2931 57.5396C51.0738 58.6573 50.3186 59.4713 49.5756 60.1152C49.4782 60.2002 49.3685 60.2853 49.2833 60.3703C49.1615 60.4797 48.9909 60.6133 48.8691 60.7348V67.3074L47.919 67.4654V70.9886C51.6829 69.7251 55.1666 67.8785 58.2605 65.5458C57.4809 64.659 57.0059 63.4805 57.0059 62.2048C57.0059 59.3984 59.2958 57.1144 62.1096 57.1144C63.3886 57.1144 64.5579 57.5882 65.4593 58.3657C69.1135 53.5304 71.5984 47.7596 72.4754 41.4785C71.2939 41.3935 70.1245 40.9075 69.2231 39.9963C67.2255 38.0039 67.2255 34.7722 69.2231 32.792Z" fill="white"/>
<path d="M88.7483 45.4756H82.0489L81.1475 48.3064H76.6406L82.7797 30.3136H88.0418L94.1809 48.3064H89.674L88.7483 45.4756ZM87.518 41.6122L85.3986 35.0031L83.2913 41.6122H87.518Z" fill="white"/>
<path d="M101.794 42.3898H99.8329V48.3063H95.7036V30.3014H102.927C106.35 30.3014 109.115 33.0471 109.115 36.4732C109.115 38.6843 107.775 40.6889 105.789 41.6973L109.626 48.3063H105.192L101.794 42.3898ZM99.8329 38.7936H102.927C104.06 38.7936 104.985 37.7853 104.985 36.4853C104.985 35.1853 104.06 34.177 102.927 34.177H99.8329V38.7936Z" fill="white"/>
<path d="M122.135 45.4756H115.436L114.535 48.3063H110.028L116.155 30.3014H121.417L127.556 48.2942H123.049L122.135 45.4756ZM120.893 41.6122L118.774 35.0031L116.666 41.6122H120.893Z" fill="white"/>
</svg>
