<svg width="248" height="153" viewBox="0 0 248 153" fill="none" xmlns="http://www.w3.org/2000/svg">
<path d="M69.6821 38.6906C71.7122 39.4696 73.1521 41.4288 73.1521 43.7186C73.1521 45.8431 71.901 47.7079 70.0598 48.5814L65.2914 66.1676L68.7615 68.9059C69.1156 68.835 69.4461 68.8114 69.8001 68.8114C72.7745 68.8114 75.1822 71.2192 75.1822 74.1935C75.1822 77.1679 72.7509 79.5756 69.8001 79.5756H69.6821L60.3106 90.1038C60.3342 90.3398 60.3579 90.5995 60.3579 90.8356C60.3579 91.166 60.3342 91.4965 60.2634 91.8034L69.3988 103.04C72.3023 103.111 74.6629 105.495 74.6629 108.422C74.6629 111.396 72.2315 113.828 69.2808 113.828C68.5018 113.828 67.7464 113.662 67.0383 113.355L64.4416 114.583H95.5068C95.5068 114.583 97.466 113.591 97.7965 111.042C98.1742 108.186 98.245 107.053 99.685 104.149C101.125 101.246 105.964 100.774 106.908 98.6018C107.404 97.4688 106.625 96.7606 105.775 96.3357C104.996 95.958 104.17 95.8164 104.17 95.8164C104.17 95.8164 106.531 94.8958 107.829 93.2906C107.9 93.1725 107.971 93.0545 108.041 92.9365C108.75 91.3077 106.318 88.7583 106.2 85.9728C106.082 82.9985 112.267 82.4555 113.235 79.8117C113.305 79.434 113.4 79.0563 113.471 78.7022C113.565 76.3181 111.464 73.4618 107.876 67.2063C103.745 59.9357 111.511 55.6867 107.876 48.1801C100.322 35.7871 86.6546 27.5015 71.0512 27.5015C69.9182 27.5015 68.8087 27.5487 67.6992 27.6195C67.77 27.9972 67.8173 28.3749 67.8173 28.7526C67.8173 29.6968 67.5576 30.641 67.1091 31.4436L69.6821 38.6906Z" fill="url(#paint0_linear_292_37)"/>
<path d="M81.839 129.973C78.6758 130.209 75.489 130.327 72.3259 130.327C69.1863 130.327 66.0468 130.209 62.9072 129.973C61.7269 129.879 60.5466 129.785 59.3663 129.667C57.4071 129.454 55.4478 129.218 53.4885 128.911V134.813L55.0937 135.072C60.8063 135.969 66.6133 136.441 72.3259 136.441C78.0385 136.441 83.8455 135.993 89.558 135.072L91.1632 134.813V128.911C89.204 129.194 87.2447 129.454 85.2854 129.667C84.1523 129.785 82.9957 129.903 81.839 129.973Z" fill="url(#paint1_linear_292_37)"/>
<path d="M67.8172 152.258H76.8582L77.8969 146.994H66.7786L67.8172 152.258Z" fill="url(#paint2_linear_292_37)"/>
<path d="M54.7161 137.551V143.075C60.5939 144.019 66.4717 144.491 72.3495 144.491C78.2273 144.491 84.1052 144.019 89.983 143.075V137.551C84.1052 138.472 78.2273 138.944 72.3495 138.944C66.4717 138.944 60.5939 138.472 54.7161 137.551Z" fill="url(#paint3_linear_292_37)"/>
<path d="M57.3365 117.958C56.6283 120.13 54.5983 121.711 52.2141 121.711C52.0252 121.711 51.8364 121.711 51.6711 121.688V126.149L53.8901 126.48C60.0276 127.4 66.2359 127.872 72.3497 127.872C78.4872 127.872 84.6955 127.4 90.8094 126.48L93.0283 126.149V117.132H59.1305L57.3365 117.958Z" fill="url(#paint4_linear_292_37)"/>
<path d="M52.1904 119.186C53.7956 119.186 55.0939 117.887 55.0939 116.282C55.0939 116.258 55.0939 116.235 55.0939 116.235L67.2744 110.522C67.7938 111.042 68.5255 111.348 69.3045 111.348C70.9097 111.348 72.208 110.05 72.208 108.445C72.208 106.84 70.9097 105.541 69.3045 105.541C68.9741 105.541 68.6672 105.589 68.3603 105.707L57.4781 92.3223C57.7377 91.8974 57.8794 91.3781 57.8794 90.8587C57.8794 90.363 57.7613 89.9145 57.5489 89.4896L68.7616 76.8842C69.0921 77.0022 69.4462 77.0966 69.8239 77.0966C71.429 77.0966 72.7274 75.7983 72.7274 74.1931C72.7274 72.5879 71.429 71.2896 69.8239 71.2896C69.2809 71.2896 68.7616 71.4548 68.3131 71.7145L62.4589 67.0878L68.0062 46.5744C69.4698 46.4328 70.6501 45.2053 70.6501 43.6945C70.6501 42.113 69.3754 40.8146 67.7938 40.8146L64.2765 30.9711C64.9139 30.4517 65.3152 29.6491 65.3152 28.7521C65.3152 27.1469 64.0169 25.8486 62.4117 25.8486C60.8065 25.8486 59.5082 27.1469 59.5082 28.7521C59.5082 28.8466 59.5082 28.941 59.5318 29.0118L45.0615 35.9519C44.5185 35.4325 43.8104 35.1257 43.055 35.1257C42.5829 35.1257 42.1108 35.2437 41.6859 35.4798C41.3082 35.6922 40.9777 35.9755 40.718 36.3296C40.3403 36.8253 40.1515 37.4154 40.1515 38.0292C40.1515 38.8318 40.482 39.5399 41.0013 40.0829L28.7735 66.5213C27.4044 66.5213 26.2477 67.4655 25.9645 68.7874L25.8936 68.8818V69.0707L25.8464 69.1179L25.87 69.4248L25.8464 69.7552L25.9173 69.8024V69.9677L25.9881 70.0621C26.2713 71.266 27.2628 72.163 28.5139 72.3046L32.8337 87.908C32.1964 88.4273 31.7951 89.2299 31.7951 90.127C31.7951 91.7321 33.0934 93.0304 34.6986 93.0304C34.9818 93.0304 35.2415 92.9832 35.4776 92.9124L44.6838 105.565C44.3769 106.014 44.1881 106.58 44.1881 107.17C44.1881 108.775 45.4864 110.074 47.0916 110.074C47.2332 110.074 47.3984 110.05 47.5401 110.027L50.0187 114.464C49.5938 114.96 49.3341 115.621 49.3341 116.329C49.3105 117.887 50.6088 119.186 52.1904 119.186ZM57.0768 87.0346L58.918 80.2362L65.9525 77.0494L57.0768 87.0346ZM47.3512 83.2813L41.0249 78.0644L48.6968 60.5254C48.744 60.5254 48.8148 60.5254 48.862 60.5254C49.4049 60.5254 49.9242 60.3602 50.3728 60.1005L60.1927 67.8668L57.2184 78.8198L47.3512 83.2813ZM56.5575 81.322L54.7398 88.0024C54.3149 88.0496 53.89 88.1677 53.5359 88.3801L49.0744 84.6976L56.5575 81.322ZM31.5826 68.6458L46.7375 59.9825L39.4197 76.7189L31.559 70.2509C31.6534 69.9913 31.677 69.708 31.677 69.4011C31.7006 69.1651 31.6534 68.9054 31.5826 68.6458ZM67.0856 73.3197C66.9912 73.603 66.944 73.9098 66.944 74.2167C66.944 74.2875 66.944 74.3583 66.944 74.4292L59.579 77.7576L61.8923 69.2123L67.0856 73.3197ZM60.7593 65.7659L51.6239 58.5425C51.7183 58.2593 51.7655 57.9524 51.7655 57.6455C51.7655 57.3622 51.7183 57.1026 51.6475 56.8429L66.0233 46.244L60.7593 65.7659ZM60.4052 30.853C60.9245 31.3488 61.6091 31.6556 62.3881 31.6792L65.9053 41.5228C65.6929 41.7117 65.504 41.9241 65.3388 42.1602L46.0765 37.7223L60.4052 30.853ZM45.4864 39.6344L64.8903 44.0958C64.9139 44.2375 64.9375 44.4027 64.9847 44.5207L50.4672 55.2141C50.0659 54.9545 49.5702 54.7892 49.0508 54.742L44.7782 40.3661C45.0615 40.1537 45.2975 39.9176 45.4864 39.6344ZM42.8189 40.9327C42.8425 40.9327 42.8425 40.9327 42.8661 40.9327L47.1388 55.3085C46.4306 55.8279 45.9821 56.6777 45.9821 57.6219C45.9821 57.7871 46.0057 57.9524 46.0293 58.094L30.8745 66.7337L42.8189 40.9327ZM34.8402 87.2235C34.793 87.2235 34.7458 87.2235 34.6986 87.2235L30.4732 71.9506L38.5935 78.631L34.8402 87.2235ZM36.6815 88.0261L40.1987 79.9765L45.3211 84.2019L36.7287 88.0969C36.7051 88.0733 36.6815 88.0497 36.6815 88.0261ZM47.3512 104.267C47.2568 104.267 47.1624 104.243 47.068 104.243C46.7847 104.243 46.525 104.29 46.289 104.361L37.0828 91.7085C37.3896 91.26 37.5785 90.6935 37.5785 90.1033C37.5785 90.0325 37.5785 89.9617 37.5785 89.8909L47.068 85.5947L52.2848 89.9145C52.1904 90.2214 52.1196 90.5283 52.1196 90.8587C52.1196 91.6377 52.4265 92.3459 52.9222 92.8652L47.3512 104.267ZM54.7162 93.7622C54.8106 93.7622 54.9051 93.7858 54.9995 93.7858C55.33 93.7858 55.6368 93.7386 55.9437 93.6206L66.8259 107.005C66.7315 107.17 66.6371 107.359 66.5663 107.548L49.8534 106.344C49.7118 105.896 49.4757 105.471 49.1689 105.14L54.7162 93.7622ZM49.2633 109.035C49.4521 108.823 49.5938 108.587 49.7118 108.351L64.9139 109.436L54.3621 114.394C53.8428 113.803 53.0638 113.426 52.214 113.426C52.0488 113.426 51.8835 113.449 51.7419 113.473L49.2633 109.035Z" fill="url(#paint5_linear_292_37)"/>
<path d="M134.952 63.7123C136.699 61.9655 138.965 60.9977 141.255 60.8324C139.555 48.6283 134.74 37.4156 127.658 28.0205C125.935 29.5313 123.645 30.4519 121.166 30.4519C115.713 30.4519 111.275 26.014 111.275 20.5611C111.275 18.0825 112.196 15.8164 113.707 14.0695C104.312 6.98783 93.0991 2.17227 80.8949 0.472656C80.7297 2.76241 79.7855 5.02856 78.015 6.77538C74.1437 10.6467 67.8882 10.6467 64.0405 6.77538C62.2936 5.00495 61.3258 2.76241 61.1606 0.472656C48.9564 2.17227 37.7437 6.98783 28.3486 14.0695C29.8594 15.7928 30.78 18.0825 30.78 20.5611C30.78 26.014 26.3422 30.4519 20.8892 30.4519C18.4106 30.4519 16.1445 29.5313 14.3977 28.0205C7.31595 37.4156 2.50039 48.6283 0.800781 60.8324C3.09053 60.9977 5.35668 61.9419 7.1035 63.7123C10.9748 67.5837 10.9748 73.8392 7.1035 77.6869C5.35668 79.4573 3.09053 80.4016 0.800781 80.5668C2.50039 92.771 7.31595 103.984 14.3977 113.379C16.1445 111.868 18.4106 110.947 20.8892 110.947C26.3422 110.947 30.78 115.385 30.78 120.838C30.78 123.317 29.8594 125.583 28.3486 127.33C35.0527 132.405 42.7009 136.3 50.9629 138.731V131.083L49.1217 130.776V120.744C47.7053 119.776 46.7847 118.147 46.7847 116.306C46.7847 115.857 46.8319 115.432 46.9499 115.008C31.2757 106.462 20.6296 89.8202 20.6296 70.6996C20.6296 42.8685 43.1966 20.3014 71.0277 20.3014C98.8589 20.3014 121.426 42.8685 121.426 70.6996C121.426 87.6485 113.046 102.662 100.204 111.797C99.7795 113.969 98.3159 115.55 96.876 116.802C96.6871 116.967 96.4747 117.132 96.3095 117.297C96.0734 117.51 95.7429 117.769 95.5069 118.005V130.776L93.6656 131.083V137.929C100.96 135.474 107.711 131.886 113.707 127.353C112.196 125.63 111.275 123.34 111.275 120.862C111.275 115.409 115.713 110.971 121.166 110.971C123.645 110.971 125.911 111.892 127.658 113.402C134.74 104.007 139.555 92.7946 141.255 80.5904C138.965 80.4252 136.699 79.4809 134.952 77.7105C131.081 73.8392 131.081 67.5601 134.952 63.7123Z" fill="url(#paint6_linear_292_37)"/>
<path d="M172.792 88.3564H159.809L158.062 93.8565H149.328L161.225 58.8965H171.423L183.32 93.8565H174.586L172.792 88.3564ZM170.408 80.8498L166.3 68.0083L162.217 80.8498H170.408Z" fill="url(#paint7_linear_292_37)"/>
<path d="M198.074 82.3607H194.273V93.8567H186.271V58.873H200.269C206.902 58.873 212.261 64.2079 212.261 70.8647C212.261 75.161 209.664 79.0559 205.816 81.0152L213.252 93.8567H204.66L198.074 82.3607ZM194.273 75.3734H200.269C202.464 75.3734 204.258 73.4142 204.258 70.8883C204.258 68.3625 202.464 66.4033 200.269 66.4033H194.273V75.3734Z" fill="url(#paint8_linear_292_37)"/>
<path d="M237.495 88.3566H224.512L222.765 93.8567H214.031L225.905 58.873H236.103L248 93.8331H239.266L237.495 88.3566ZM235.088 80.85L230.98 68.0085L226.896 80.85H235.088Z" fill="url(#paint9_linear_292_37)"/>
<defs>
<linearGradient id="paint0_linear_292_37" x1="99.6265" y1="47.374" x2="67.7136" y2="89.9423" gradientUnits="userSpaceOnUse">
<stop offset="5.32779e-09" stop-color="#EE71B5"/>
<stop offset="1" stop-color="#5E62DE"/>
</linearGradient>
<linearGradient id="paint1_linear_292_37" x1="71.4638" y1="127.639" x2="74.0485" y2="140.218" gradientUnits="userSpaceOnUse">
<stop offset="5.32779e-09" stop-color="#EE71B5"/>
<stop offset="1" stop-color="#5E62DE"/>
</linearGradient>
<linearGradient id="paint2_linear_292_37" x1="72.2367" y1="145.631" x2="73.0362" y2="156.721" gradientUnits="userSpaceOnUse">
<stop offset="5.32779e-09" stop-color="#EE71B5"/>
<stop offset="1" stop-color="#5E62DE"/>
</linearGradient>
<linearGradient id="paint3_linear_292_37" x1="72.1644" y1="138.866" x2="72.8619" y2="144.766" gradientUnits="userSpaceOnUse">
<stop offset="5.32779e-09" stop-color="#EE71B5"/>
<stop offset="1" stop-color="#5E62DE"/>
</linearGradient>
<linearGradient id="paint4_linear_292_37" x1="70.5041" y1="116.069" x2="74.8142" y2="129.111" gradientUnits="userSpaceOnUse">
<stop offset="5.32779e-09" stop-color="#EE71B5"/>
<stop offset="1" stop-color="#5E62DE"/>
</linearGradient>
<linearGradient id="paint5_linear_292_37" x1="40.2965" y1="51.1644" x2="69.4706" y2="87.8298" gradientUnits="userSpaceOnUse">
<stop offset="5.32779e-09" stop-color="#EE71B5"/>
<stop offset="1" stop-color="#5E62DE"/>
</linearGradient>
<linearGradient id="paint6_linear_292_37" x1="0.824387" y1="69.6023" x2="141.262" y2="69.6023" gradientUnits="userSpaceOnUse">
<stop offset="5.32779e-09" stop-color="#EE71B5"/>
<stop offset="1" stop-color="#5E62DE"/>
</linearGradient>
<linearGradient id="paint7_linear_292_37" x1="156.579" y1="87.031" x2="184.659" y2="67.9148" gradientUnits="userSpaceOnUse">
<stop offset="5.32779e-09" stop-color="#EE71B5"/>
<stop offset="1" stop-color="#5E62DE"/>
</linearGradient>
<linearGradient id="paint8_linear_292_37" x1="192.95" y1="83.1083" x2="212.133" y2="64.1423" gradientUnits="userSpaceOnUse">
<stop offset="5.32779e-09" stop-color="#EE71B5"/>
<stop offset="1" stop-color="#5E62DE"/>
</linearGradient>
<linearGradient id="paint9_linear_292_37" x1="225.897" y1="87.8216" x2="249.467" y2="63.3597" gradientUnits="userSpaceOnUse">
<stop offset="5.32779e-09" stop-color="#EE71B5"/>
<stop offset="1" stop-color="#5E62DE"/>
</linearGradient>
</defs>
</svg>
