<svg width="371" height="595" viewBox="0 0 371 595" fill="none" xmlns="http://www.w3.org/2000/svg">
<path d="M240.146 373.304V106.941V0.986328L369.697 61.3376C370.68 168.805 372.057 388.051 369.697 405.294C367.337 422.537 356.008 433.806 350.639 437.285L106.085 590.659C98.5977 596.558 97.0095 595.196 89.0411 591.112L2.37126 539.156C-2.16643 524.454 4.26196 511.703 8.04337 507.165L240.146 373.304Z" fill="url(#paint0_linear_329_2707)"/>
<path d="M240 308V140L241 136.5C282.001 112.991 246.184 15.4759 357.5 89.5001L361 366.5L240 308Z" fill="url(#paint1_linear_329_2707)"/>
<path d="M131.269 55.6652L239.493 3.93555L369.044 61.1104L265.358 126.907C247.434 135.075 243.804 130.31 234.955 126.907L133.765 69.732C123.328 64.2868 122.799 60.4297 131.269 55.6652Z" fill="#DAEAFA"/>
<path d="M121.286 75.4043C120.197 65.6029 125.672 59.3712 128.546 57.4805L246.299 124.184L369.498 61C370.987 101.846 370.669 238.942 371 394.5C371 424.902 359 431.5 351.347 436.604L99.959 594.743V579.995L337.961 428.436C355.885 416.638 355.582 409.983 356.792 398.488V94C356.818 86.6521 353.339 87.7558 346.5 89.5L252.198 137.117C241.308 143.016 236.77 140.369 232.006 137.117L121.286 75.4043Z" fill="#B5D0F6"/>
<path d="M51.0878 389.053L211.041 298.753C214.256 296.938 218.582 297.997 220.344 298.753C242.427 308.887 287.547 329.518 291.358 330.971C295.17 332.423 295.518 335.962 295.215 337.55C295.972 367.877 297.03 429.438 295.215 433.068C293.4 436.699 290.678 441.085 289.543 442.824L131.178 543.107C127.366 547.282 122.935 545.603 121.195 544.242L48.5921 502.041C46.5955 503.312 46.0963 497.428 46.0964 494.327V399.263C45.3703 392.184 49.1215 389.507 51.0878 389.053Z" fill="#DAEAFA"/>
<path d="M132.5 430.5L49 390C40 396 46.4046 452.355 46.3231 501.134C81.7003 521.214 120.06 545.603 126.867 545.603C133.674 545.603 132.5 430.5 132.5 430.5Z" fill="#B5D0F6"/>
<path d="M294.534 333.92L132.539 430.119L127.094 545.149C179.58 513.007 295.896 437.606 295.896 437.606C295.896 437.606 297.03 335.962 294.534 333.92Z" fill="#B5D0F6"/>
<path d="M279.198 361.146L150.554 436.018V508.5L279.198 428.304V361.146Z" fill="#084CA3"/>
<path d="M173.66 355.746C174.072 358.133 172.598 361.133 168.705 364.056C164.908 366.907 159.254 369.301 152.639 370.443C146.024 371.585 139.895 371.226 135.362 369.813C130.714 368.364 128.319 366.033 127.907 363.646C127.495 361.258 128.969 358.259 132.862 355.336C136.659 352.485 142.312 350.091 148.928 348.949C155.543 347.806 161.672 348.166 166.205 349.579C170.853 351.027 173.247 353.358 173.66 355.746Z" stroke="#F4F8FB" stroke-width="4"/>
<path d="M181.385 252.988C185.817 250.12 189.098 254.183 190.185 256.573C188.664 262.331 185.491 274.173 184.97 275.477C184.448 276.781 176.496 271.24 172.584 268.306C173.671 264.395 176.952 255.856 181.385 252.988Z" fill="#122752"/>
<path d="M210.883 288.902C208.148 277.249 196.69 259.634 191.303 252.283C178.471 261.963 179.975 275.368 182.332 280.861C192.988 288.397 213.618 300.556 210.883 288.902Z" fill="url(#paint2_radial_329_2707)"/>
<path d="M106.096 251.348C106.096 243.786 114.57 238.854 118.807 237.333C137.581 226.121 160.743 232.661 169.978 237.333C180.147 242.026 183.341 248.632 183.667 251.348C184.971 283.289 164.437 346.845 138.689 332.178C112.94 317.512 106.096 260.8 106.096 251.348Z" fill="url(#paint3_radial_329_2707)"/>
<path d="M183.993 250.372C179.821 319.469 155.311 337.395 143.251 334.136C163.133 328.595 171.756 309.691 159.222 256.238C168.674 253.957 174.131 246.088 174.541 239.942C180.082 242.223 183.232 248.851 183.993 250.372Z" fill="#C3DAF8"/>
<path d="M116.199 237.986C112.94 260.801 171.281 267.646 174.541 239.942C164.763 228.208 130.801 220.777 116.199 237.986Z" fill="#122752"/>
<ellipse cx="145.858" cy="207.023" rx="44.3266" ry="43.0229" fill="url(#paint4_radial_329_2707)"/>
<path d="M111.962 260.801C107.008 258.455 104.031 260.693 103.162 262.105C109.572 271.666 123.565 289.353 128.258 283.616C134.125 276.446 118.154 263.735 111.962 260.801Z" fill="#122752"/>
<path d="M102.184 215.497C138.688 261.127 154.658 231.468 190.511 203.763C190.511 259.824 115.742 266.603 102.184 215.497Z" fill="#A0C1F4" fill-opacity="0.4"/>
<path d="M154.63 207.349C175.49 207.87 185.948 197.897 187.577 193.008C191.162 200.178 190.954 207.495 189.179 211.586C181.682 228.86 160.762 232.516 148.763 231.142C137.384 229.838 128.556 206.697 154.63 207.349Z" fill="#044FA2"/>
<ellipse cx="164.111" cy="217.127" rx="3.91117" ry="10.1039" fill="#75D2EF"/>
<ellipse cx="185" cy="207.5" rx="2" ry="7.5" fill="#75D2EF"/>
<path d="M89.4041 311.052C87.5702 296.339 95.9757 271.204 100.408 260.475C124.982 266.728 129.597 283.005 128.833 290.362C116.454 303.389 91.238 325.765 89.4041 311.052Z" fill="url(#paint5_radial_329_2707)"/>
<path d="M95.6651 312.625C105.052 313.928 120.87 292.308 127.606 281.661C128.584 284.92 129.236 288.832 128.91 290.461C117.698 303.238 104.465 312.625 97.2948 315.232C90.1243 317.514 89.3638 312.733 89.1465 309.365C89.4072 311.973 93.6009 312.625 95.6651 312.625Z" fill="#C3DAF8"/>
<defs>
<linearGradient id="paint0_linear_329_2707" x1="268.534" y1="138.251" x2="275.114" y2="373.077" gradientUnits="userSpaceOnUse">
<stop stop-color="#CADDF4"/>
<stop offset="1" stop-color="#DAEAFA"/>
<stop offset="1" stop-color="#DAEAFA"/>
</linearGradient>
<linearGradient id="paint1_linear_329_2707" x1="310.5" y1="125.5" x2="258.5" y2="317.5" gradientUnits="userSpaceOnUse">
<stop stop-color="#97B5DF"/>
<stop offset="1" stop-color="#AEC9EF" stop-opacity="0"/>
</linearGradient>
<radialGradient id="paint2_radial_329_2707" cx="0" cy="0" r="1" gradientUnits="userSpaceOnUse" gradientTransform="translate(194.144 268.905) rotate(79.1307) scale(20.0722 11.5509)">
<stop stop-color="#F4F8FB"/>
<stop offset="1" stop-color="#DAEAFA"/>
<stop offset="1" stop-color="#66B3FF"/>
</radialGradient>
<radialGradient id="paint3_radial_329_2707" cx="0" cy="0" r="1" gradientUnits="userSpaceOnUse" gradientTransform="translate(136.349 269.451) rotate(79.3966) scale(46.5309 36.0402)">
<stop stop-color="#F4F8FB"/>
<stop offset="1" stop-color="#DAEAFA"/>
<stop offset="1" stop-color="#66B3FF"/>
</radialGradient>
<radialGradient id="paint4_radial_329_2707" cx="0" cy="0" r="1" gradientUnits="userSpaceOnUse" gradientTransform="translate(136.08 195.941) rotate(75.6186) scale(39.3675 40.5605)">
<stop stop-color="#F4F8FB"/>
<stop offset="1" stop-color="#DAEAFA"/>
<stop offset="1" stop-color="#66B3FF"/>
</radialGradient>
<radialGradient id="paint5_radial_329_2707" cx="0" cy="0" r="1" gradientUnits="userSpaceOnUse" gradientTransform="translate(104.643 281.044) rotate(79.8737) scale(24.9445 18.4885)">
<stop stop-color="#F4F8FB"/>
<stop offset="1" stop-color="#DAEAFA"/>
<stop offset="1" stop-color="#66B3FF"/>
</radialGradient>
</defs>
</svg>
