<svg width="149" height="102" viewBox="0 0 149 102" fill="none" xmlns="http://www.w3.org/2000/svg">
<path d="M18.2124 77.3226L21.4821 64.1613L37.8306 74.0323L33.1549 87.1935L18.2124 77.3226Z" fill="#F0CDED"/>
<path d="M26.3864 46.0645L21.4819 59.2258L1.86373 54.2903L0 43.5968L6.76827 29.6129V39.4839L26.3864 46.0645Z" fill="#F0CDED"/>
<path d="M22.3158 30.7316L13.1934 24.1016L19.8472 9.87097L29.9178 18.5574L32.8115 30.7316H22.3158Z" fill="#F0CDED"/>
<path d="M34.8384 87.1935L50.9089 80.6129L62.3529 90.4839L67.2574 70.7419L52.7727 64.1613L37.8301 71.4164L34.8384 87.1935Z" fill="#D186CA"/>
<path d="M21.4819 59.2258L26.3865 46.0645L32.8114 53.5006L31.291 57.5806L23.0023 62.9439L24.6862 59.2258H21.4819Z" fill="#D186CA"/>
<path d="M65.6226 100.009L86.8756 102L91.7801 87.1935H67.6498L65.6226 100.009Z" fill="#D186CA"/>
<path d="M91.0283 89.4803H104.859L111.448 75.6774L93.4152 74.0323L91.0283 89.4803Z" fill="#D186CA"/>
<path d="M119.573 97.0645L104.859 89.4803L110.548 77.5694L121.207 83.9032L119.573 97.0645Z" fill="#F0CDED"/>
<path d="M135.921 77.3226L134.286 92.129L119.573 97.0645L121.208 83.9032L135.921 77.3226Z" fill="#D186CA"/>
<path d="M149 59.851L144.095 72.3871L129.022 71.2355L122.842 65.8064L128.466 60.2458L149 59.851Z" fill="#D186CA"/>
<path d="M122.842 34.5484L132.651 24.6774L127.551 40.471L122.842 34.5484Z" fill="#D186CA"/>
<path d="M62.353 90.4839L65.6227 98.7097L68.8924 82.2581L67.2576 69.3764L62.353 90.4839Z" fill="#F0CDED"/>
<path d="M34.8387 87.1936H33.1548L37.8304 70.2319L34.8387 87.1936Z" fill="#F0CDED"/>
<path d="M128.875 59.851H149V46.0645L129.382 42.7742L127.518 40.471L122.842 34.5484L132.651 24.6774L116.303 14.8065L101.589 18.0968L86.8756 13.1613L83.6059 1.64516L63.9877 0L60.718 13.1613H47.6393L31.2908 3.29032L19.8468 9.87097L29.9175 18.5574L31.2908 19.7419L30.8821 22.621L29.7377 30.7316L29.6559 31.2581L22.3318 30.7316L6.76807 29.6129V39.4839C7.73263 39.78 23.1165 44.4194 26.3862 46.0645C27.1222 46.4907 27.6971 47.1502 28.0211 47.94C29.6559 51.3126 29.6559 57.5806 29.6559 57.5806L23.0185 62.911L21.498 64.1284L36.9474 73.4565L37.2416 73.6374L37.4051 73.7361L37.8465 73.9994L54.195 69.0639L66.2765 73.621L66.5217 73.7197L67.2738 73.9994L67.6661 87.1606H91.7801L93.415 77.2897L106.265 75.2003H106.494H106.608L110.548 77.5365L121.207 83.9032L135.921 77.3226L129.022 71.2355L122.842 65.8064L128.482 60.2458L128.875 59.851ZM75.775 54.1258C60.1785 51.5594 48.4894 43.679 49.6174 36.5061C50.7455 29.3332 64.331 25.5823 79.9602 28.1323C95.5893 30.6823 107.246 38.579 106.118 45.7519C104.99 52.9248 91.3714 56.6758 75.775 54.1258Z" fill="#E6BAE2"/>
<path d="M29.6559 31.2581L22.3154 30.7316L23.0021 22.4071L28.021 19.7419L29.9175 18.5574L31.2907 19.7419L29.6559 31.2581Z" fill="#F0CDED"/>
</svg>
