<svg width="289" height="246" viewBox="0 0 289 246" fill="none" xmlns="http://www.w3.org/2000/svg">
<g clip-path="url(#clip0_209_470)">
<path d="M43.3291 127.532L56.3875 109.82L74.9578 134.778L59.7782 151.617L43.3291 127.532Z" fill="#F0CDED"/>
<path d="M74.9596 85.7207L59.4348 102.417L32.8845 82.832L36.6747 65.6344L55.5192 48.8614L49.425 63.6678C60.7038 71.2278 66.5434 75.8517 74.9596 85.7207Z" fill="#F0CDED"/>
<path d="M78.2842 60.1936L68.6147 44.584L87.4388 27.3698L97.2693 46.6528L94.1188 66.7109L78.2842 60.1936Z" fill="#F0CDED"/>
<path d="M62.3189 152.662L90.6268 152.771L101.798 174.683L121.385 148.116L103.595 129.25L76.573 130.855L62.3189 152.662Z" fill="#D186CA"/>
<path d="M59.4345 102.417L74.9594 85.7206C78.659 90.1458 79.0562 94.0892 80.0616 100.864L75.2489 106.04L59.4329 108.938L64.2688 104.407L59.4345 102.417Z" fill="#D186CA"/>
<path d="M101.701 188.808L133.539 205.013L148.225 188.02L111.82 173.037L101.701 188.808Z" fill="#D186CA"/>
<path d="M145.679 190.984L166.545 199.572L185.006 182.959L158.817 169.294L145.679 190.984Z" fill="#D186CA"/>
<path d="M184.061 220.085L166.545 199.572L182.482 185.238L194.652 201.358L184.061 220.085Z" fill="#F0CDED"/>
<path d="M220.913 200.623L209.306 221.818L184.06 220.085L194.652 201.358L220.913 200.623Z" fill="#D186CA"/>
<path d="M251.431 182.537L236.292 198.296L214.263 187.209L208.291 175.228L220.672 169.519L251.431 182.537Z" fill="#D186CA"/>
<path d="M227.589 128.341L248.482 119.625L231.036 140.148L227.589 128.341Z" fill="#D186CA"/>
<path d="M101.798 174.683L101.652 189.052L116.742 166.405L122.228 146.067L101.798 174.683Z" fill="#F0CDED"/>
<path d="M62.3187 152.662L59.7782 151.617L77.304 129.078L62.3187 152.662Z" fill="#F0CDED"/>
<path d="M221.069 170.041L251.431 182.537L259.943 161.858L232.377 144.74L230.987 140.128L227.589 128.341L248.482 119.625L229.912 94.6674L205.683 90.4664L186.532 73.9268L188.709 54.6223L160.127 39.9727L147.068 57.6843L127.337 49.563L108.767 24.605L87.4387 27.3698L97.2692 46.6528L98.6097 49.2824L96.2156 53.3471L89.4817 64.8024L89.0334 65.5414L78.3087 60.2038L55.5189 48.8614L49.4247 63.6678C50.6971 64.711 71.0421 81.2226 74.9593 85.7207C75.8064 86.8169 76.2666 88.1632 76.2679 89.549C76.6521 95.6231 72.7824 105.025 72.7824 105.025L59.4778 108.899L56.4324 109.781L73.9813 133.366L74.3135 133.821L74.4992 134.07L75.0027 134.739L102.714 137.487L118.128 151.825L118.437 152.125L119.399 153.012L111.865 172.997L148.245 187.971L156.806 174.18L177.482 179.025L177.827 179.167L178 179.238L182.502 185.189L194.652 201.358L220.913 200.623L214.263 187.209L208.291 175.228L220.234 170.389L221.069 170.041ZM144.494 128.481C122.548 114.946 109.778 95.8674 115.909 85.8085C122.039 75.7496 144.851 78.5592 166.856 92.0891C188.861 105.619 201.571 124.702 195.441 134.761C189.311 144.82 166.449 141.99 144.494 128.481Z" fill="#E6BAE2"/>
<path d="M89.0335 65.5413L78.2842 60.1936L84.4595 48.1332L93.6769 47.252L97.2693 46.6528L98.6098 49.2823L89.0335 65.5413Z" fill="#F0CDED"/>
</g>
<defs>
<clipPath id="clip0_209_470">
<rect width="243.088" height="165.452" fill="white" transform="translate(63.5903 0.23938) rotate(22.3715)"/>
</clipPath>
</defs>
</svg>
