<svg width="545" height="386" viewBox="0 0 545 386" fill="none" xmlns="http://www.w3.org/2000/svg">
<path d="M407.464 270.619C407.464 270.619 412.393 290.751 416.09 290.541C419.787 290.332 428.178 292.71 431.37 282.903L426.798 255.798L407.464 270.619Z" fill="#FCC5CA"/>
<path d="M461.685 326.061C461.685 326.061 461.685 343.31 464.149 344.542C466.614 345.774 478.937 349.47 480.169 342.078C481.401 334.685 477.704 322.365 477.704 322.365L461.685 326.061Z" fill="#FCC5CA"/>
<path d="M461.685 339.614C461.685 339.614 470.311 351.934 480.169 340.846C480.169 340.846 489.732 341.782 489.263 342.546C488.795 343.31 488.795 351.934 486.33 353.166C483.866 354.398 483.866 366.164 484.482 368.296C485.098 370.427 483.866 382.735 472.775 385.199C472.775 385.199 459.22 387.663 455.523 383.967C451.826 380.271 461.685 368.801 461.685 368.801C461.685 368.801 464.765 358.71 463.533 353.782C462.301 348.854 458.604 341.462 461.685 339.614Z" fill="#253137"/>
<path d="M411.161 282.939C411.506 283.346 416.003 288.422 422.682 287.56C425.892 287.087 428.812 285.441 430.877 282.939C432.048 283.026 433.674 283.198 435.597 283.506C438.209 283.913 440.317 284.061 439.972 284.64C439.503 285.404 439.503 294.028 437.039 295.26C434.574 296.492 434.574 308.258 435.19 310.389C435.806 312.521 434.574 324.829 423.483 327.293C423.483 327.293 409.928 329.757 406.231 326.061C402.534 322.365 412.393 310.895 412.393 310.895C416.09 303.281 415.474 298.673 414.241 295.876C412.676 292.34 409.029 289.272 409.928 285.404C410.153 284.502 410.574 283.66 411.161 282.939Z" fill="#253137"/>
<path d="M454.291 189.082C454.291 189.082 381.586 193 388.979 231.194C396.373 269.387 407.464 276.779 407.464 276.779C407.464 276.779 424.716 280.475 429.645 269.387C429.645 269.387 429.029 241.666 426.564 240.434C424.1 239.202 457.372 234.274 462.301 229.345C467.23 224.417 484.482 204.705 484.482 204.705L454.291 189.082Z" fill="#675B5B"/>
<path d="M482.695 206.75C482.695 206.75 444.433 243.514 444.433 261.995C444.433 280.475 457.236 330.989 460.699 332.862C464.162 334.735 480.539 329.757 480.539 329.757C480.539 329.757 475.351 268.709 482.695 263.485C490.04 258.262 529.424 219.218 523.903 206.713C518.382 194.208 482.695 206.75 482.695 206.75Z" fill="#675B5B"/>
<path d="M457.988 115.381C457.988 115.381 430.877 140.022 429.645 141.254C428.413 142.486 416.09 126.47 416.09 126.47C416.09 126.47 401.598 131.866 402.066 135.944C402.535 140.022 423.484 170.823 427.18 168.359C430.877 165.895 439.503 164.663 453.059 148.647C456.94 144.134 459.464 138.614 460.336 132.727C461.209 126.839 460.394 120.825 457.988 115.381Z" fill="#FCC5CA"/>
<path d="M416.09 125.238C416.09 125.238 408.573 116.527 410.483 106.757C412.393 96.9869 408.696 95.6686 407.464 96.9006C406.231 98.1327 402.535 107.989 402.535 107.989C402.535 107.989 393.909 93.2045 381.586 109.221C381.586 109.221 379.38 115.197 390.335 122.059C392.128 124.918 394.147 127.629 396.373 130.166C398.838 132.63 402.054 135.944 402.054 135.944L416.09 125.238Z" fill="#253137"/>
<path d="M481.069 107.496C481.069 107.496 461.068 107.373 458.604 111.069C456.139 114.765 436.423 133.246 435.19 134.478C433.958 135.71 448.746 140.638 449.978 152.959C449.978 152.959 452.652 154.314 458.099 145.628C458.099 145.628 458.813 174.754 458.099 176.17C457.384 177.587 453.675 186.224 454.907 188.688C456.139 191.152 474.624 218.257 522.683 208.401C522.683 208.401 530.077 203.941 522.683 164.281C522.683 164.281 516.928 117.463 525.973 113.644C525.973 113.644 513.441 103.936 481.069 107.496Z" fill="#33474E"/>
<path d="M514.673 143.718L536.855 135.094C536.855 135.094 547.945 175.752 544.248 184.376C540.551 193 528.229 188.072 520.835 183.144C513.441 178.216 522.683 151.727 533.774 171.439C533.774 171.439 525.148 155.423 521.451 152.959C517.754 150.495 514.673 143.718 514.673 143.718Z" fill="#FCC5CA"/>
<path d="M518.37 111.685C518.37 111.685 504.815 131.102 518.37 160.203L543.016 156.039C543.016 156.039 536.854 120.31 525.764 114.149C525.764 114.149 524.531 111.685 518.37 111.685Z" fill="#33474E"/>
<path d="M525.764 157.271C525.764 157.271 531.691 154.967 533.047 158.601C534.402 162.236 524.519 165.427 524.519 165.427C524.519 165.427 517.125 171.587 514.661 184.795C512.196 198.002 470.311 188.072 486.33 174.52C502.35 160.967 506.047 159.649 525.764 157.271Z" fill="#253137"/>
<path d="M481.401 100.597C481.401 100.597 482.634 107.989 480.169 107.989C477.705 107.989 478.013 122.564 480.933 122.047C483.854 121.529 501.118 117.845 503.583 109.221L501.968 92.2066L488.031 89.4221L482.634 96.9007L481.401 100.597Z" fill="#FCC5CA"/>
<path d="M464.765 64.2515C464.765 64.2515 463.533 91.3565 465.998 95.0526C468.462 98.7487 474.624 107.373 488.179 99.9808C501.734 92.5885 501.734 91.3565 502.966 92.5885C504.199 93.8205 515.289 90.1244 510.36 80.268L509.128 58.0912L482.017 53.1631L469.695 55.6271L464.457 59.2124L464.765 64.2515Z" fill="#FCC5CA"/>
<path d="M502.35 50.0829C497.707 47.9058 492.685 46.6506 487.563 46.3868C485.098 46.2636 485 46.51 482.634 46.3868C472.147 45.8324 468.277 40.7194 465.382 42.6907C462.104 44.9207 463.385 54.0871 465.382 54.506C467.846 55.0111 461.685 53.3725 461.389 54.506C461.093 55.6395 462.301 61.7874 463.533 61.7874C463.533 61.7874 457.372 64.2515 463.533 64.2515C463.533 64.2515 465.998 64.2515 467.23 59.3233C467.23 59.3233 480.785 67.9476 491.876 61.7874C491.876 61.7874 496.805 61.7874 496.805 75.3399C496.805 88.8924 502.35 80.6746 502.35 80.6746C502.35 80.6746 509.128 79.036 510.36 80.268C511.593 81.5001 515.671 68.8347 511.79 62.8469C511.79 62.8469 506.663 50.699 502.35 50.0829Z" fill="black"/>
<path opacity="0.22" d="M428.474 162.088C421.019 160.967 409.928 149.879 409.928 149.879C409.928 149.879 424.346 170.491 427.304 168.495C432.818 165.81 438.098 162.669 443.089 159.107L443.434 158.786C443.7 158.318 444.046 157.901 444.457 157.554C444.876 157.209 445.32 156.901 445.776 156.593C447.008 155.361 448.314 154.129 449.473 152.897C449.542 152.821 449.631 152.764 449.73 152.734C449.829 152.703 449.934 152.7 450.035 152.724C450.135 152.748 450.228 152.798 450.302 152.87C450.377 152.941 450.431 153.032 450.459 153.131L450.569 153.217C451.802 152.146 453.034 151.037 454.266 149.879C455.499 148.72 456.793 147.414 457.963 146.182L460.773 129.956C460.773 129.956 435.93 163.209 428.474 162.088Z" fill="black"/>
<path d="M499.5 115C501.9 114.6 503.5 109.833 504 107.5H503.5C503 102.667 502 92.9 502 92.5C502 92.1 502.333 92 502.5 92C503.5 92.5 505 93.5 509 90.5C512.2 88.1 511.333 82.5 510.5 80L501 77.5L498.5 69.5L492.5 60.5L488.5 63.5C489.833 65.8333 492.1 70.7 490.5 71.5C488.9 72.3 491.167 81.1667 492.5 85.5C498.5 93.5 490 99.8333 485 102C487.4 103.2 495.667 98.1667 499.5 95.5V115Z" fill="black" fill-opacity="0.15"/>
<path d="M525.5 113.5C521.167 119.333 514.7 136.3 523.5 157.5C522.061 158.048 517.217 158.356 513.5 159C513.148 159.061 512.859 159.114 512.623 159.161C511.825 159.452 511.087 159.461 512.623 159.161C512.75 159.114 512.879 159.061 513 159C507 148.833 497.7 126.2 508.5 117C508 114.167 506.4 108.6 504 109C503.667 108.5 503.1 107.4 503.5 107C509.667 107.833 522.7 110.3 525.5 113.5Z" fill="black" fill-opacity="0.22"/>
<path d="M469 98.5C463.4 90.1 466.667 70 469 61V60L467 59C466.5 60.5 465.4 63.5 465 63.5C464.6 63.5 464.167 76.1667 464 82.5C464.333 83.8333 465 87.4 465 91C465 94.6 467.667 97.5 469 98.5Z" fill="white" fill-opacity="0.78"/>
<path d="M389.142 229.571C386.278 201.524 427.501 191.489 450 190C399.727 196.114 388.442 216.123 389.142 229.571C389.351 231.617 389.794 233.759 390.497 236C389.768 234.14 389.266 231.959 389.142 229.571Z" fill="white"/>
<path d="M426 287L424 275C426.4 275 428.333 271.333 429 269.5L432 282L426 287Z" fill="black" fill-opacity="0.22"/>
<path d="M474.5 345L473.371 331.392C475.724 331.866 478.344 328.653 479.359 326.988L480.5 340.5C478.597 342.801 477.234 343.725 474.5 345Z" fill="black" fill-opacity="0.22"/>
<path d="M429.5 140.5C428.5 143.333 426.8 149.3 428 150.5" stroke="black" stroke-opacity="0.24" stroke-width="0.5"/>
<path d="M402 135.5L386 117.5C386 117.5 389.5 120.5 393 124.5C396.5 128.5 402 135.5 402 135.5Z" fill="#C4C4C4"/>
<path d="M467.671 116.352C470.343 112.147 473.373 109.495 476.5 108.5C472.966 110.193 470.056 112.917 467.671 116.352C460.946 126.939 456.496 147.372 458.5 176C456.868 160.769 457.1 131.579 467.671 116.352Z" fill="white"/>
<path d="M459.22 68.5636C459.22 68.5636 493.724 69.7957 493.724 73.4918C493.724 77.1879 494.957 87.0443 487.563 87.0443C480.169 87.0443 477.076 85.8122 477.705 82.1161C478.333 78.42 474.501 78.42 474.008 79.652C473.515 80.8841 472.775 83.3481 470.311 84.5802C467.846 85.8122 460.452 85.8985 459.22 83.3481C457.988 80.7978 457.988 71.0277 459.22 68.5636Z" fill="#93278F"/>
<path d="M460.797 70.8183C460.797 70.8183 489.608 73.0236 491.05 73.8737C492.492 74.7238 491.26 80.8841 490.027 83.3482C488.795 85.8122 480.921 84.9252 480.539 82.2886C480.157 79.652 479.306 76.6828 476.053 76.9292C472.8 77.1756 473.5 77.5 471.543 80.8841C470.311 84.5802 461.142 83.6931 460.797 82.2886C460.452 80.8841 459.91 73.0729 460.797 70.8183Z" fill="#E2C5E2"/>
<path opacity="0.51" d="M174.561 300.595C244.204 300.595 300.661 244.149 300.661 174.519C300.661 104.89 244.204 48.444 174.561 48.444C104.917 48.444 48.4597 104.89 48.4597 174.519C48.4597 244.149 104.917 300.595 174.561 300.595Z" fill="#DEA5DA"/>
<path opacity="0.51" d="M174.561 322.658C256.392 322.658 322.729 256.334 322.729 174.519C322.729 92.7047 256.392 26.3808 174.561 26.3808C92.7294 26.3808 26.3921 92.7047 26.3921 174.519C26.3921 256.334 92.7294 322.658 174.561 322.658Z" fill="#DEA5DA"/>
<path opacity="0.51" d="M174.561 348.924C270.901 348.924 349 270.84 349 174.519C349 78.1986 270.901 0.115051 174.561 0.115051C78.2203 0.115051 0.121094 78.1986 0.121094 174.519C0.121094 270.84 78.2203 348.924 174.561 348.924Z" fill="#DEA5DA"/>
<path d="M208.188 314.253C208.188 314.253 210.289 319.664 213.158 320.62C216.027 321.576 250.988 321.576 257.577 297.748C256.757 293.325 255.013 291.213 253.374 290.12C245.534 284.836 227.681 294.732 208.188 314.253Z" fill="#B586C7"/>
<path d="M204.362 309.788C204.362 309.788 206.59 315.388 209.543 316.375C212.496 317.363 248.981 317.363 255.874 292.715C255.874 292.715 254.887 284.836 251.934 284.836C248.981 284.836 204.362 309.788 204.362 309.788Z" fill="#8A66B4"/>
<path d="M198.457 304.083C198.457 304.083 200.832 310.051 203.984 311.101C207.137 312.152 246.018 312.152 253.374 285.886C253.374 285.886 252.323 277.481 249.17 277.481C246.018 277.481 198.457 304.083 198.457 304.083Z" fill="#90418C"/>
<path d="M248.414 252.529C249.969 247.276 289.974 183.975 252.754 119.887C215.533 55.7984 100.382 71.5578 82.3073 139.849C64.2329 208.14 105.205 270.599 171.408 277.187C171.408 277.187 189.199 283.785 194.527 299.544C199.854 315.304 251.482 301.141 251.923 272.501C251.892 272.501 245.545 262.236 248.414 252.529Z" fill="#FCF7FD"/>
<path d="M314.783 242.882C331.551 212.7 283.38 153.934 207.191 111.623C131.002 69.3126 55.6461 59.4799 38.8785 89.6612C22.1109 119.843 70.2814 178.609 146.47 220.92C222.659 263.23 298.015 273.063 314.783 242.882Z" stroke="white" stroke-width="2" stroke-miterlimit="10" stroke-dasharray="11.89 11.89"/>
<path d="M219.022 284.142C218.027 283.575 217.007 283.049 215.964 282.566C215.838 282.566 213.862 281.81 213.526 281.715H213.452C217.547 284.905 222.027 287.566 226.787 289.637L227.039 289.721C224.588 287.562 221.898 285.69 219.022 284.142Z" fill="#FCF7FD"/>
<path d="M118.866 229.152C118.94 229.268 119.097 229.509 119.287 229.772C118.926 226.062 118.222 222.394 117.185 218.814C115.209 216.587 113.223 214.366 111.227 212.153C112.317 215.645 113.629 219.063 115.157 222.386C116.257 224.714 117.495 226.973 118.866 229.152Z" fill="#FCF7FD"/>
<path d="M104.869 139.618C123.416 143.883 128.429 169.939 133.778 185.099L133.862 185.351C134.11 185.74 134.328 186.148 134.513 186.57C135.564 187.4 136.331 188.283 136.878 188.671C142.027 192.59 146.671 194.282 152.64 196.026C165.807 199.85 179.584 200.985 192.782 204.673C193.928 204.998 195.073 205.345 196.219 205.723C197.734 205.656 199.247 205.893 200.669 206.42C202.091 206.947 203.394 207.753 204.499 208.791C207.215 209.946 209.851 211.28 212.391 212.783C217.777 216.195 222.86 220.062 227.586 224.34C229.872 224.65 232.016 225.625 233.752 227.143C235.488 228.662 236.738 230.658 237.348 232.882C242.161 237.211 246.802 241.711 251.272 246.382C260.194 228.165 284.31 174.33 252.691 119.876C215.543 55.7984 100.382 71.5578 82.3074 139.849C81.4037 143.263 80.6576 146.657 80.0481 150.04C85.565 142.318 95.527 137.464 104.869 139.618Z" fill="#FCF7FD"/>
<path d="M99.7197 163.257L99.6252 163.152C99.0577 163.751 98.9631 163.677 98.9631 163.572C98.9631 163.687 98.8581 163.887 98.7109 164.255C99.0892 163.32 98.8896 164.696 98.8896 164.654C98.8896 164.801 98.8896 165.001 98.8896 165.211C100.403 166.612 101.888 168.037 103.345 169.487C102.998 168.783 102.662 168.069 102.294 167.386C101.507 165.966 100.648 164.588 99.7197 163.257Z" fill="#FCF7FD"/>
<path d="M186.032 223.092C270.763 202.691 333.905 163.128 327.063 134.724C320.222 106.321 245.988 99.8333 161.257 120.234C76.5263 140.634 13.3844 180.198 20.2258 208.601C27.0672 237.005 101.301 243.492 186.032 223.092Z" stroke="white" stroke-width="2" stroke-miterlimit="10" stroke-dasharray="11.96 11.96"/>
<path d="M225.834 195.884C253.243 113.169 252.976 38.6677 225.237 29.4798C197.499 20.2918 152.793 79.8968 125.384 162.611C97.9753 245.326 98.2427 319.827 125.981 329.015C153.72 338.203 198.426 278.598 225.834 195.884Z" stroke="white" stroke-width="2" stroke-miterlimit="10" stroke-dasharray="11.96 11.96"/>
<circle cx="311" cy="210" r="10" fill="url(#paint0_linear_203_369)"/>
<circle cx="248" cy="69" r="10" fill="url(#paint1_linear_203_369)"/>
<circle cx="58" cy="231" r="10" fill="url(#paint2_linear_203_369)"/>
<defs>
<linearGradient id="paint0_linear_203_369" x1="311" y1="200" x2="311" y2="220" gradientUnits="userSpaceOnUse">
<stop stop-color="white"/>
<stop offset="1" stop-color="#CE98D2"/>
</linearGradient>
<linearGradient id="paint1_linear_203_369" x1="248" y1="59" x2="248" y2="79" gradientUnits="userSpaceOnUse">
<stop stop-color="white"/>
<stop offset="1" stop-color="#CE98D2"/>
</linearGradient>
<linearGradient id="paint2_linear_203_369" x1="58" y1="221" x2="58" y2="241" gradientUnits="userSpaceOnUse">
<stop stop-color="white"/>
<stop offset="1" stop-color="#CE98D2"/>
</linearGradient>
</defs>
</svg>
