<svg width="349" height="349" viewBox="0 0 349 349" fill="none" xmlns="http://www.w3.org/2000/svg">
<path opacity="0.51" d="M174.561 300.595C244.204 300.595 300.661 244.149 300.661 174.519C300.661 104.89 244.204 48.444 174.561 48.444C104.917 48.444 48.4597 104.89 48.4597 174.519C48.4597 244.149 104.917 300.595 174.561 300.595Z" fill="#DEA5DA"/>
<path opacity="0.51" d="M174.561 322.658C256.392 322.658 322.729 256.334 322.729 174.519C322.729 92.7047 256.392 26.3808 174.561 26.3808C92.7294 26.3808 26.3921 92.7047 26.3921 174.519C26.3921 256.334 92.7294 322.658 174.561 322.658Z" fill="#DEA5DA"/>
<path opacity="0.51" d="M174.561 348.924C270.901 348.924 349 270.84 349 174.519C349 78.1986 270.901 0.115051 174.561 0.115051C78.2203 0.115051 0.121094 78.1986 0.121094 174.519C0.121094 270.84 78.2203 348.924 174.561 348.924Z" fill="#DEA5DA"/>
</svg>
