<svg width="1310" height="1416" viewBox="0 0 1310 1416" fill="none" xmlns="http://www.w3.org/2000/svg">
<path d="M642.433 356.444C661.366 363.709 674.796 381.982 674.796 403.338C674.796 423.153 663.128 440.545 645.955 448.691L601.482 612.712L633.846 638.25C637.149 637.59 640.231 637.37 643.533 637.37C671.274 637.37 693.73 659.826 693.73 687.567C693.73 715.307 671.054 737.763 643.533 737.763H642.433L555.028 835.956C555.249 838.157 555.469 840.579 555.469 842.78C555.469 845.863 555.248 848.945 554.588 851.807L639.791 956.604C666.87 957.265 688.887 979.501 688.887 1006.8C688.887 1034.54 666.21 1057.22 638.69 1057.22C631.424 1057.22 624.379 1055.68 617.774 1052.81L593.557 1064.26H883.289C883.289 1064.26 901.563 1055.02 904.645 1031.24C908.168 1004.6 908.828 994.032 922.258 966.952C935.688 939.872 980.821 935.469 989.627 915.214C994.251 904.646 986.986 898.041 979.06 894.078C971.794 890.556 964.089 889.235 964.089 889.235C964.089 889.235 986.105 880.648 998.214 865.677C998.874 864.577 999.535 863.476 1000.2 862.375C1006.8 847.184 984.123 823.406 983.023 797.427C981.922 769.687 1039.6 764.623 1048.63 739.965C1049.29 736.442 1050.17 732.92 1050.83 729.617C1051.71 707.381 1032.12 680.742 998.654 622.399C960.126 554.589 1032.56 514.96 998.654 444.948C928.202 329.364 800.729 252.087 655.202 252.087C644.634 252.087 634.287 252.527 623.939 253.188C624.599 256.71 625.04 260.233 625.04 263.755C625.04 272.562 622.618 281.368 618.435 288.854L642.433 356.444Z" fill="url(#paint0_linear_309_22220)"/>
<path d="M755.814 1207.81C726.312 1210.01 696.59 1211.11 667.088 1211.11C637.807 1211.11 608.525 1210.01 579.244 1207.81C568.236 1206.93 557.228 1206.05 546.22 1204.95C527.946 1202.96 509.673 1200.76 491.399 1197.9V1252.94L506.37 1255.36C559.649 1263.73 613.809 1268.13 667.088 1268.13C720.367 1268.13 774.527 1263.95 827.806 1255.36L842.777 1252.94V1197.9C824.504 1200.54 806.23 1202.96 787.957 1204.95C777.389 1206.05 766.601 1207.15 755.814 1207.81Z" fill="url(#paint1_linear_309_22220)"/>
<path d="M625.038 1415.64H709.36L719.047 1366.54H615.351L625.038 1415.64Z" fill="url(#paint2_linear_309_22220)"/>
<path d="M502.848 1278.48V1330C557.668 1338.8 612.489 1343.21 667.309 1343.21C722.129 1343.21 776.949 1338.8 831.77 1330V1278.48C776.949 1287.07 722.129 1291.47 667.309 1291.47C612.489 1291.47 557.668 1287.07 502.848 1278.48Z" fill="url(#paint3_linear_309_22220)"/>
<path d="M527.288 1095.75C520.683 1116 501.749 1130.75 479.513 1130.75C477.751 1130.75 475.99 1130.75 474.449 1130.53V1172.14L495.144 1175.22C552.386 1183.81 610.289 1188.21 667.311 1188.21C724.553 1188.21 782.455 1183.81 839.477 1175.22L860.172 1172.14V1088.04H544.02L527.288 1095.75Z" fill="url(#paint4_linear_309_22220)"/>
<path d="M479.292 1107.19C494.263 1107.19 506.371 1095.08 506.371 1080.11C506.371 1079.89 506.371 1079.67 506.371 1079.67L619.975 1026.39C624.818 1031.24 631.643 1034.1 638.909 1034.1C653.88 1034.1 665.989 1021.99 665.989 1007.02C665.989 992.049 653.88 979.94 638.909 979.94C635.827 979.94 632.964 980.38 630.102 981.481L528.608 856.649C531.03 852.686 532.351 847.843 532.351 842.999C532.351 838.376 531.25 834.193 529.268 830.23L633.845 712.664C636.927 713.765 640.23 714.645 643.752 714.645C658.723 714.645 670.832 702.536 670.832 687.565C670.832 672.594 658.723 660.485 643.752 660.485C638.689 660.485 633.845 662.027 629.662 664.448L575.062 621.297L626.8 429.976C640.45 428.655 651.458 417.207 651.458 403.117C651.458 388.366 639.569 376.257 624.818 376.257L592.014 284.449C597.959 279.606 601.702 272.12 601.702 263.754C601.702 248.783 589.593 236.674 574.622 236.674C559.651 236.674 547.542 248.783 547.542 263.754C547.542 264.635 547.542 265.515 547.762 266.176L412.803 330.903C407.739 326.06 401.134 323.198 394.089 323.198C389.686 323.198 385.283 324.299 381.32 326.5C377.797 328.482 374.715 331.124 372.293 334.426C368.77 339.049 367.009 344.554 367.009 350.278C367.009 357.763 370.091 364.368 374.935 369.432L260.891 616.013C248.122 616.013 237.334 624.819 234.692 637.148L234.032 638.029V639.79L233.591 640.23L233.811 643.093L233.591 646.175L234.252 646.615V648.156L234.912 649.037C237.554 660.265 246.801 668.631 258.47 669.952L298.759 815.479C292.815 820.323 289.072 827.808 289.072 836.174C289.072 851.145 301.181 863.254 316.152 863.254C318.794 863.254 321.216 862.814 323.417 862.153L409.28 980.16C406.418 984.343 404.657 989.627 404.657 995.131C404.657 1010.1 416.766 1022.21 431.737 1022.21C433.058 1022.21 434.599 1021.99 435.92 1021.77L459.037 1063.16C455.074 1067.78 452.652 1073.95 452.652 1080.55C452.432 1095.08 464.541 1107.19 479.292 1107.19ZM524.865 807.333L542.038 743.927L607.646 714.205L524.865 807.333ZM434.159 772.327L375.155 723.672L446.708 560.092C447.148 560.092 447.809 560.092 448.249 560.092C453.313 560.092 458.156 558.551 462.339 556.129L553.926 628.562L526.186 730.717L434.159 772.327ZM520.022 754.054L503.069 816.36C499.106 816.8 495.143 817.901 491.841 819.882L450.23 785.537L520.022 754.054ZM287.091 635.827L428.434 555.028L360.184 711.123L286.87 650.798C287.751 648.376 287.971 645.735 287.971 642.872C288.191 640.671 287.751 638.249 287.091 635.827ZM618.214 679.419C617.333 682.061 616.893 684.923 616.893 687.785C616.893 688.446 616.893 689.106 616.893 689.767L548.202 720.81L569.778 641.111L618.214 679.419ZM559.21 608.968L474.008 541.598C474.888 538.956 475.329 536.094 475.329 533.232C475.329 530.59 474.888 528.168 474.228 525.746L608.306 426.894L559.21 608.968ZM555.908 283.349C560.751 287.972 567.136 290.834 574.401 291.054L607.206 382.862C605.224 384.623 603.463 386.604 601.922 388.806L422.27 347.416L555.908 283.349ZM416.766 365.249L597.739 406.859C597.959 408.18 598.179 409.721 598.619 410.822L463.22 510.555C459.477 508.134 454.854 506.592 450.01 506.152L410.161 372.074C412.803 370.092 415.004 367.891 416.766 365.249ZM391.887 377.358C392.108 377.358 392.108 377.358 392.328 377.358L432.177 511.436C425.572 516.28 421.389 524.205 421.389 533.012C421.389 534.553 421.609 536.094 421.829 537.415L280.486 617.994L391.887 377.358ZM317.473 809.094C317.033 809.094 316.592 809.094 316.152 809.094L276.743 666.65L352.479 728.956L317.473 809.094ZM334.645 816.58L367.45 741.505L415.225 780.914L335.086 817.24C334.866 817.02 334.645 816.8 334.645 816.58ZM434.159 968.051C433.278 968.051 432.397 967.831 431.517 967.831C428.875 967.831 426.453 968.271 424.251 968.932L338.388 850.925C341.25 846.742 343.012 841.458 343.012 835.954C343.012 835.294 343.012 834.633 343.012 833.973L431.517 793.903L480.172 834.193C479.292 837.055 478.631 839.917 478.631 842.999C478.631 850.265 481.493 856.87 486.117 861.713L434.159 968.051ZM502.849 870.079C503.73 870.079 504.61 870.299 505.491 870.299C508.573 870.299 511.435 869.859 514.297 868.758L615.792 993.59C614.911 995.131 614.031 996.892 613.37 998.654L457.496 987.425C456.175 983.242 453.973 979.279 451.111 976.197L502.849 870.079ZM451.992 1012.52C453.753 1010.54 455.074 1008.34 456.175 1006.14L597.959 1016.27L499.547 1062.5C494.703 1057 487.438 1053.47 479.512 1053.47C477.971 1053.47 476.43 1053.69 475.109 1053.91L451.992 1012.52Z" fill="url(#paint5_linear_309_22220)"/>
<path d="M1251.18 589.813C1267.47 573.521 1288.61 564.494 1309.96 562.953C1294.11 449.13 1249.2 344.553 1183.15 256.929C1167.08 271.019 1145.72 279.605 1122.6 279.605C1071.75 279.605 1030.36 238.215 1030.36 187.358C1030.36 164.241 1038.94 143.105 1053.03 126.813C965.409 60.7646 860.832 15.8516 747.008 0C745.467 21.3557 736.661 42.4912 720.149 58.7831C684.042 94.8897 625.699 94.8897 589.813 58.7831C573.521 42.271 564.494 21.3557 562.953 0C449.13 15.8516 344.553 60.7646 256.929 126.813C271.019 142.885 279.605 164.241 279.605 187.358C279.605 238.215 238.215 279.605 187.358 279.605C164.241 279.605 143.105 271.019 126.813 256.929C60.7646 344.553 15.8516 449.13 0 562.953C21.3557 564.494 42.4912 573.301 58.7832 589.813C94.8897 625.919 94.8897 684.262 58.7832 720.149C42.4912 736.661 21.3557 745.467 0 747.008C15.8516 860.832 60.7646 965.409 126.813 1053.03C143.105 1038.94 164.241 1030.36 187.358 1030.36C238.215 1030.36 279.605 1071.75 279.605 1122.6C279.605 1145.72 271.019 1166.86 256.929 1183.15C319.455 1230.48 390.787 1266.81 467.843 1289.49V1218.15L450.671 1215.29V1121.72C437.461 1112.7 428.875 1097.51 428.875 1080.33C428.875 1076.15 429.315 1072.19 430.416 1068.22C284.229 988.526 184.936 833.312 184.936 654.981C184.936 395.41 395.41 184.936 654.981 184.936C914.551 184.936 1125.03 395.41 1125.03 654.981C1125.03 813.057 1046.87 953.08 927.101 1038.28C923.138 1058.54 909.488 1073.29 896.058 1084.96C894.297 1086.5 892.315 1088.04 890.774 1089.58C888.572 1091.56 885.49 1093.98 883.288 1096.18V1215.29L866.116 1218.15V1282C934.146 1259.1 997.112 1225.64 1053.03 1183.37C1038.94 1167.3 1030.36 1145.94 1030.36 1122.82C1030.36 1071.97 1071.75 1030.58 1122.6 1030.58C1145.72 1030.58 1166.86 1039.16 1183.15 1053.25C1249.2 965.629 1294.11 861.052 1309.96 747.229C1288.61 745.688 1267.47 736.881 1251.18 720.369C1215.07 684.262 1215.07 625.699 1251.18 589.813Z" fill="url(#paint6_linear_309_22220)"/>
<defs>
<linearGradient id="paint0_linear_309_22220" x1="921.713" y1="437.43" x2="624.073" y2="834.449" gradientUnits="userSpaceOnUse">
<stop offset="5.32779e-09" stop-color="#EE71B5"/>
<stop offset="1" stop-color="#5E62DE"/>
</linearGradient>
<linearGradient id="paint1_linear_309_22220" x1="659.049" y1="1186.03" x2="683.154" y2="1303.36" gradientUnits="userSpaceOnUse">
<stop offset="5.32779e-09" stop-color="#EE71B5"/>
<stop offset="1" stop-color="#5E62DE"/>
</linearGradient>
<linearGradient id="paint2_linear_309_22220" x1="666.256" y1="1353.84" x2="673.714" y2="1457.26" gradientUnits="userSpaceOnUse">
<stop offset="5.32779e-09" stop-color="#EE71B5"/>
<stop offset="1" stop-color="#5E62DE"/>
</linearGradient>
<linearGradient id="paint3_linear_309_22220" x1="665.582" y1="1290.74" x2="672.088" y2="1345.77" gradientUnits="userSpaceOnUse">
<stop offset="5.32779e-09" stop-color="#EE71B5"/>
<stop offset="1" stop-color="#5E62DE"/>
</linearGradient>
<linearGradient id="paint4_linear_309_22220" x1="650.097" y1="1078.13" x2="690.296" y2="1199.77" gradientUnits="userSpaceOnUse">
<stop offset="5.32779e-09" stop-color="#EE71B5"/>
<stop offset="1" stop-color="#5E62DE"/>
</linearGradient>
<linearGradient id="paint5_linear_309_22220" x1="368.361" y1="472.785" x2="640.458" y2="814.749" gradientUnits="userSpaceOnUse">
<stop offset="5.32779e-09" stop-color="#EE71B5"/>
<stop offset="1" stop-color="#5E62DE"/>
</linearGradient>
<linearGradient id="paint6_linear_309_22220" x1="0.220162" y1="644.746" x2="1310.03" y2="644.746" gradientUnits="userSpaceOnUse">
<stop offset="5.32779e-09" stop-color="#EE71B5"/>
<stop offset="1" stop-color="#5E62DE"/>
</linearGradient>
</defs>
</svg>
