<svg width="770" height="649" viewBox="0 0 770 649" fill="none" xmlns="http://www.w3.org/2000/svg">
<path d="M419.303 532.083L336.253 321.335L302.576 340.157L308.749 380.002L336.253 427.702L375.53 544.429L419.303 532.083Z" fill="#4C4C4C"/>
<path d="M304.495 539.5C292.968 542.558 284.804 546.479 283 539.5C275.894 539.5 270.31 488.862 264.974 414.492C252.271 389.32 253.598 349.881 252.271 324.393H304.495C311.553 398.73 327.52 533.392 304.495 539.5Z" fill="#484747"/>
<path d="M198.752 513.245L263.818 549.184L379.217 624.109V532.737L192 417L198.752 513.245Z" fill="#1A0744"/>
<path d="M0 0C122.317 179.169 59.263 323.234 217.916 457.476C290.168 518.611 311.472 574.725 432.022 582C490.91 541.378 495.741 503.142 523.638 467.157C606.689 360.03 782.126 242.515 769.337 103.164L0 0Z" fill="url(#paint0_linear_367_25)"/>
<path d="M310.015 369.606L199.283 504.647C195.434 509.341 196.62 516.353 201.799 519.52L406.032 644.392C410.337 647.024 415.929 646.036 419.072 642.089L509.758 528.193C513.203 523.866 512.481 517.564 508.147 514.128L323.96 368.111C319.683 364.72 313.477 365.385 310.015 369.606Z" fill="url(#paint1_linear_367_25)"/>
<path d="M626 298C626 300.761 628.239 303 631 303C633.761 303 636 300.761 636 298C636 295.239 633.761 293 631 293C628.239 293 626 295.239 626 298Z" fill="white" fill-opacity="0.3"/>
<circle r="11" transform="matrix(-1 0 0 1 585 335)" fill="white" fill-opacity="0.3"/>
<path d="M337.194 173.365C331.925 166.778 320.727 164.347 315.787 163.955L334.136 255.936C361.111 257.897 416.284 261.065 421.177 258.054C426.07 255.042 423.216 244.566 421.177 239.704L362.13 235.94C356.014 217.827 342.464 179.952 337.194 173.365Z" fill="#34416C"/>
<path d="M432.468 225.119C427.763 222.485 423.137 233.588 421.412 239.469L419.294 257.348C422.823 260.406 426.159 261.248 432.468 263.464C449.876 269.581 466.108 252.081 466.108 235.235C466.108 214.768 443.525 231 438.349 235.235C434.209 238.622 432.703 236.646 432.468 235.235C434.429 232.961 437.173 227.754 432.468 225.119Z" fill="#F4CECD"/>
<path d="M242.861 206.535C252.459 195.807 270.385 175.247 278.148 166.308C294.709 157.462 317.042 162.622 326.138 166.308C349.286 189.268 343.938 276.089 338.371 316.63C321.057 353.516 274.384 336.861 253.212 323.922C245.762 289.263 233.263 217.262 242.861 206.535Z" fill="url(#paint2_linear_367_25)"/>
<path d="M258.017 225.98C255.463 215.974 245.957 210.102 241.523 208.417C228.328 220.126 240.104 274.146 247.642 299.693C276.265 312.395 304.784 302.248 313.084 299.693C323.459 296.5 323.459 283.992 320.267 273.614C317.713 265.311 285.329 277.073 269.456 283.992C266.707 268.824 260.57 235.986 258.017 225.98Z" fill="url(#paint3_linear_367_25)"/>
<path d="M294.144 261.347C290.38 260.97 295.712 269.345 298.849 273.579C302.299 278.755 311.646 290.188 321.433 294.516C333.665 299.927 348.015 278.52 348.721 268.875C349.422 259.297 324.837 255.518 321.5 255.006L321.433 254.995C318.374 254.525 311.317 266.287 309.2 268.875C307.083 271.462 298.849 261.817 294.144 261.347Z" fill="#F4CECD"/>
<path d="M300.261 169.601V162.779L276.737 143.254L278.854 169.601C290.899 180.517 298.144 174.149 300.261 169.601Z" fill="#F4CECD"/>
<path d="M317.433 125.14L314.846 110.555C312.65 108.046 308.117 102.886 307.553 102.321C306.847 101.616 286.616 100.675 285.675 100.91C284.922 101.098 274.226 114.319 268.973 120.906L260.269 123.023L267.326 139.961L276.265 144.195C276.814 144.273 276.795 144.822 276.265 147.018C274.619 153.84 290.929 158.545 297.437 162.779C299.319 163.877 304.448 165.414 309.905 162.779C315.363 160.145 317.198 136.589 317.433 125.14Z" fill="#F4CECD"/>
<path d="M246.5 211C246.1 207.8 269.667 182.333 281.5 170C280.5 170 279.5 166 278.5 166C277.7 166 254.5 193 243 206.5L241.5 208.5L246.5 211Z" fill="url(#paint4_linear_367_25)"/>
<path d="M319 135C306.203 130.483 283.792 137.236 276.5 141C272.548 143.635 280.735 163.563 284.029 173.365C291.556 179.764 298.304 173.764 300.5 170V164C304.734 165.647 307.083 164.661 311.082 162.073C314.281 160.003 319 144.5 319 135Z" fill="url(#paint5_linear_367_25)"/>
<path d="M287.793 112.672C278.759 112.672 278.54 126.473 279.559 133.373L272.737 131.727C272.737 127.963 268.189 126.865 265.915 126.787C260.457 129.61 266.15 137.059 269.679 140.431L277.206 144.43L279.559 166.778C277.912 162.544 277.206 155.251 274.148 150.311C273.129 148.194 268.126 145.136 261.915 140.431C254.152 134.55 248.506 94.3227 269.679 89.853C286.616 86.2773 308.61 104.952 317 109.5C320.293 113.97 329.911 127.882 328.5 126C327.472 124.63 321.332 120.941 316 120C316.625 123.582 320.125 127.918 317 124C314.389 120.725 300.731 112.672 287.793 112.672Z" fill="#1D1B1B"/>
<path d="M258.152 142.783C268.503 144.853 275.952 159.015 278.383 165.837C276.19 169.225 281.39 172.424 284.264 173.6C279.936 164.19 278.54 138.47 278.383 126.786C290.616 108.72 314.846 115.181 325.432 120.67C329.949 108.061 318.061 95.8126 311.553 91.2645C286.146 75.6442 265.366 84.7561 258.152 91.2645C246.86 95.499 245.213 140.196 258.152 142.783Z" fill="url(#paint6_linear_367_25)"/>
<path d="M269.5 284C265.5 286 256.7 290.8 253.5 294C255 290.667 260.3 284 269.5 284Z" fill="black" fill-opacity="0.35"/>
<circle cx="372" cy="195" r="50" fill="url(#paint7_radial_367_25)"/>
<path d="M409.5 162C415 185.833 413.7 235.7 364.5 244.5C400.5 254 445 204.5 409.5 162Z" fill="white" fill-opacity="0.18"/>
<g opacity="0.35">
<ellipse rx="4" ry="3.5" transform="matrix(-1 0 0 1 380 181.5)" fill="#2C5986"/>
<path d="M384 181C383 182.667 380 185.2 376 182C377.5 186.5 384 186 384 181Z" fill="#3F76AD"/>
</g>
<g opacity="0.35">
<ellipse rx="7.01631" ry="6.87451" transform="matrix(-1 0 0 1 351.085 217.875)" fill="#2C5986"/>
<path d="M358.027 219C356.273 222.274 346.639 225 344.803 215C340.395 223.5 355.455 230 358.027 219Z" fill="#3F76AD"/>
</g>
<g opacity="0.35">
<ellipse cx="384.202" cy="152.162" rx="2.5" ry="1.9761" transform="rotate(44.5111 384.202 152.162)" fill="#2C5986"/>
<path d="M382.617 150.208C382.403 151.317 382.737 153.652 385.786 154.116C383.337 155.27 380.638 152.221 382.617 150.208Z" fill="#3F76AD"/>
</g>
<g opacity="0.35">
<ellipse rx="2" ry="1.9761" transform="matrix(-1 0 0 1 345 191.976)" fill="#2C5986"/>
<path d="M347 191.694C346.5 192.635 345 194.065 343 192.258C343.75 194.799 347 194.517 347 191.694Z" fill="#3F76AD"/>
</g>
<g opacity="0.35">
<ellipse rx="3" ry="3.12269" transform="matrix(-0.868683 -0.495369 -0.495369 0.868683 400.19 193.199)" fill="#2C5986"/>
<path d="M403.017 194.297C401.629 195.218 398.555 196.066 397.363 192.1C396.352 196.145 400.807 198.173 403.017 194.297Z" fill="#3F76AD"/>
</g>
<g opacity="0.35">
<ellipse rx="2.5" ry="2.47012" transform="matrix(-1 0 0 1 344.5 169.47)" fill="#2C5986"/>
<path d="M347 169.117C346.375 170.293 344.5 172.081 342 169.823C342.938 172.999 347 172.646 347 169.117Z" fill="#3F76AD"/>
</g>
<path d="M364.418 67.5914L367.109 157.5H369.294V67.5914H364.418Z" fill="#E5EFFB"/>
<path d="M369.295 67.2975C371.845 71.0524 379.812 79.134 392.456 78.5623C395.734 78.9686 403.729 81.6475 409.479 89.1126C415.229 96.5777 411.062 92.223 408.26 89.1126C403.945 88.1458 393.641 88.2719 386.949 96.5104C380.258 104.749 373.162 102.661 369.968 100.588H365.26L364.335 67.2975H369.295Z" fill="#CB224D"/>
<path d="M364.645 157.5C365.811 157.167 369.5 156.7 371.5 157.5H364.645Z" fill="#5C98D4"/>
<path opacity="0.35" d="M453.56 416.738C450.326 415.952 447.72 414.615 445.742 412.729C443.784 410.847 442.357 408.59 441.461 405.957C440.59 403.308 440.176 400.452 440.219 397.389C440.267 394.305 440.687 391.179 441.479 388.013C442.675 383.364 444.519 379.531 447.009 376.514C449.525 373.482 452.409 371.373 455.662 370.188C458.914 369.003 462.292 368.837 465.795 369.689C469.07 370.486 471.686 371.781 473.643 373.574C475.626 375.352 477.049 377.487 477.914 379.981C478.799 382.48 479.209 385.214 479.145 388.184C479.087 391.134 478.664 394.182 477.876 397.328C476.665 402.127 474.825 406.125 472.357 409.323C469.914 412.505 467.062 414.753 463.8 416.068C460.539 417.382 457.125 417.605 453.56 416.738ZM455.578 409.523C458.247 410.194 460.599 409.372 462.633 407.056C464.688 404.746 466.396 400.792 467.758 395.196C468.564 391.879 468.975 388.927 468.99 386.34C469.004 383.753 468.574 381.639 467.7 379.999C466.825 378.359 465.476 377.318 463.652 376.874C460.978 376.224 458.613 377.01 456.557 379.232C454.523 381.46 452.885 385.123 451.645 390.222C450.843 393.518 450.415 396.543 450.36 399.296C450.33 402.033 450.733 404.304 451.567 406.11C452.401 407.916 453.738 409.053 455.578 409.523Z" fill="url(#paint8_radial_367_25)"/>
<path opacity="0.35" d="M184.244 255.192C182.996 255.192 181.928 254.936 181.04 254.424C180.16 253.912 179.44 253.216 178.88 252.336C178.328 251.448 177.924 250.444 177.668 249.324C177.412 248.196 177.288 247.02 177.296 245.796C177.32 243.996 177.652 242.436 178.292 241.116C178.94 239.788 179.804 238.764 180.884 238.044C181.964 237.324 183.18 236.964 184.532 236.964C185.796 236.964 186.864 237.204 187.736 237.684C188.616 238.156 189.324 238.808 189.86 239.64C190.404 240.472 190.796 241.432 191.036 242.52C191.276 243.6 191.392 244.748 191.384 245.964C191.368 247.82 191.052 249.44 190.436 250.824C189.828 252.2 188.988 253.272 187.916 254.04C186.844 254.808 185.62 255.192 184.244 255.192ZM184.34 252.384C185.372 252.392 186.156 251.884 186.692 250.86C187.236 249.836 187.508 248.244 187.508 246.084C187.508 244.804 187.396 243.692 187.172 242.748C186.948 241.804 186.604 241.072 186.14 240.552C185.676 240.032 185.092 239.772 184.388 239.772C183.356 239.772 182.564 240.268 182.012 241.26C181.468 242.252 181.196 243.732 181.196 245.7C181.196 246.972 181.308 248.112 181.532 249.12C181.764 250.12 182.112 250.912 182.576 251.496C183.04 252.08 183.628 252.376 184.34 252.384Z" fill="url(#paint9_radial_367_25)"/>
<path opacity="0.35" d="M445.244 298.192C443.996 298.192 442.928 297.936 442.04 297.424C441.16 296.912 440.44 296.216 439.88 295.336C439.328 294.448 438.924 293.444 438.668 292.324C438.412 291.196 438.288 290.02 438.296 288.796C438.32 286.996 438.652 285.436 439.292 284.116C439.94 282.788 440.804 281.764 441.884 281.044C442.964 280.324 444.18 279.964 445.532 279.964C446.796 279.964 447.864 280.204 448.736 280.684C449.616 281.156 450.324 281.808 450.86 282.64C451.404 283.472 451.796 284.432 452.036 285.52C452.276 286.6 452.392 287.748 452.384 288.964C452.368 290.82 452.052 292.44 451.436 293.824C450.828 295.2 449.988 296.272 448.916 297.04C447.844 297.808 446.62 298.192 445.244 298.192ZM445.34 295.384C446.372 295.392 447.156 294.884 447.692 293.86C448.236 292.836 448.508 291.244 448.508 289.084C448.508 287.804 448.396 286.692 448.172 285.748C447.948 284.804 447.604 284.072 447.14 283.552C446.676 283.032 446.092 282.772 445.388 282.772C444.356 282.772 443.564 283.268 443.012 284.26C442.468 285.252 442.196 286.732 442.196 288.7C442.196 289.972 442.308 291.112 442.532 292.12C442.764 293.12 443.112 293.912 443.576 294.496C444.04 295.08 444.628 295.376 445.34 295.384Z" fill="url(#paint10_radial_367_25)"/>
<path opacity="0.35" d="M404.575 360.832L410.985 333.691C410.046 333.699 409.128 333.688 408.231 333.657C407.334 333.626 406.432 333.585 405.523 333.535L405.884 329.083C406.679 329.057 407.588 328.968 408.611 328.814C409.649 328.665 410.688 328.475 411.729 328.244C412.786 328.017 413.757 327.769 414.642 327.502C415.546 327.222 416.259 326.955 416.779 326.699L420.12 328.006L411.933 362.57L404.575 360.832Z" fill="url(#paint11_radial_367_25)"/>
<path opacity="0.35" d="M211.845 394.303L204.299 357.893C203.169 358.432 202.053 358.935 200.952 359.403C199.851 359.871 198.737 360.331 197.61 360.782L195.538 355.198C196.484 354.719 197.532 354.099 198.682 353.338C199.852 352.572 201.001 351.757 202.129 350.891C203.278 350.021 204.312 349.175 205.231 348.353C206.166 347.506 206.876 346.781 207.362 346.179L212.136 345.876L221.715 392.257L211.845 394.303Z" fill="url(#paint12_radial_367_25)"/>
<path opacity="0.35" d="M482.903 329.33L486.985 308.816C486.281 308.848 485.593 308.864 484.919 308.864C484.246 308.865 483.569 308.859 482.886 308.845L483.038 305.499C483.633 305.458 484.312 305.367 485.075 305.225C485.849 305.085 486.623 304.915 487.397 304.714C488.183 304.516 488.904 304.304 489.56 304.08C490.231 303.846 490.758 303.627 491.141 303.422L493.68 304.313L488.464 330.437L482.903 329.33Z" fill="url(#paint13_radial_367_25)"/>
<defs>
<linearGradient id="paint0_linear_367_25" x1="348.589" y1="0" x2="348.589" y2="582" gradientUnits="userSpaceOnUse">
<stop stop-color="white" stop-opacity="0"/>
<stop offset="0.166667" stop-color="white" stop-opacity="0"/>
<stop offset="1" stop-color="#4FFCC8" stop-opacity="0.46"/>
</linearGradient>
<linearGradient id="paint1_linear_367_25" x1="377.596" y1="390.488" x2="402.794" y2="621.51" gradientUnits="userSpaceOnUse">
<stop stop-color="#523AA8"/>
<stop offset="1" stop-color="#161175"/>
</linearGradient>
<linearGradient id="paint2_linear_367_25" x1="291.281" y1="161.424" x2="291.281" y2="339.12" gradientUnits="userSpaceOnUse">
<stop stop-color="#34416C"/>
<stop offset="1" stop-color="#6D85D5"/>
</linearGradient>
<linearGradient id="paint3_linear_367_25" x1="278.853" y1="208.417" x2="278.853" y2="305.95" gradientUnits="userSpaceOnUse">
<stop offset="0.28125" stop-color="#34416C"/>
<stop offset="1" stop-color="#536BB8"/>
</linearGradient>
<linearGradient id="paint4_linear_367_25" x1="261.5" y1="166" x2="261.5" y2="211" gradientUnits="userSpaceOnUse">
<stop stop-color="#1B2239"/>
<stop offset="1" stop-color="#1B2239" stop-opacity="0"/>
</linearGradient>
<linearGradient id="paint5_linear_367_25" x1="297.222" y1="133.498" x2="297.222" y2="176.179" gradientUnits="userSpaceOnUse">
<stop stop-color="#34416C"/>
<stop offset="1" stop-color="#2C3553"/>
</linearGradient>
<linearGradient id="paint6_linear_367_25" x1="287.743" y1="82.6398" x2="287.743" y2="173.6" gradientUnits="userSpaceOnUse">
<stop stop-color="#1D253E"/>
<stop offset="1" stop-color="#34416C"/>
</linearGradient>
<radialGradient id="paint7_radial_367_25" cx="0" cy="0" r="1" gradientUnits="userSpaceOnUse" gradientTransform="translate(337 171.5) rotate(58.5305) scale(136.004 136.492)">
<stop stop-color="#3399FF"/>
<stop offset="1" stop-color="#F4F8FB"/>
</radialGradient>
<radialGradient id="paint8_radial_367_25" cx="0" cy="0" r="1" gradientUnits="userSpaceOnUse" gradientTransform="translate(457.021 383.691) rotate(95.3964) scale(34.484 21.0331)">
<stop stop-color="#F4F8FB"/>
<stop offset="1" stop-color="#DAEAFA"/>
<stop offset="1" stop-color="#66B3FF"/>
</radialGradient>
<radialGradient id="paint9_radial_367_25" cx="0" cy="0" r="1" gradientUnits="userSpaceOnUse" gradientTransform="translate(182.625 242.765) rotate(81.6998) scale(12.9883 7.94532)">
<stop stop-color="#F4F8FB"/>
<stop offset="1" stop-color="#DAEAFA"/>
<stop offset="1" stop-color="#66B3FF"/>
</radialGradient>
<radialGradient id="paint10_radial_367_25" cx="0" cy="0" r="1" gradientUnits="userSpaceOnUse" gradientTransform="translate(443.625 285.765) rotate(81.6998) scale(12.9883 7.94532)">
<stop stop-color="#F4F8FB"/>
<stop offset="1" stop-color="#DAEAFA"/>
<stop offset="1" stop-color="#66B3FF"/>
</radialGradient>
<radialGradient id="paint11_radial_367_25" cx="0" cy="0" r="1" gradientUnits="userSpaceOnUse" gradientTransform="translate(410.748 337.147) rotate(97.6517) scale(25.8294 10.8108)">
<stop stop-color="#F4F8FB"/>
<stop offset="1" stop-color="#DAEAFA"/>
<stop offset="1" stop-color="#66B3FF"/>
</radialGradient>
<radialGradient id="paint12_radial_367_25" cx="0" cy="0" r="1" gradientUnits="userSpaceOnUse" gradientTransform="translate(205.747 362.461) rotate(72.7533) scale(34.285 14.1034)">
<stop stop-color="#F4F8FB"/>
<stop offset="1" stop-color="#DAEAFA"/>
<stop offset="1" stop-color="#66B3FF"/>
</radialGradient>
<radialGradient id="paint13_radial_367_25" cx="0" cy="0" r="1" gradientUnits="userSpaceOnUse" gradientTransform="translate(486.742 311.703) rotate(95.6339) scale(19.1488 7.99084)">
<stop stop-color="#F4F8FB"/>
<stop offset="1" stop-color="#DAEAFA"/>
<stop offset="1" stop-color="#66B3FF"/>
</radialGradient>
</defs>
</svg>
