<svg width="245" height="220" viewBox="0 0 245 220" fill="none" xmlns="http://www.w3.org/2000/svg">
<path d="M231.389 160.619C229.884 164.872 225.594 168.114 218.703 170.176C211.837 172.23 202.597 173.043 191.598 172.598C169.612 171.707 140.828 165.799 110.48 155.061C80.131 144.322 54.0377 130.812 36.3844 117.676C27.5527 111.104 20.8808 104.661 16.8347 98.7453C12.7738 92.8079 11.4776 87.5897 12.9827 83.3361C14.4878 79.0826 18.7775 75.8408 25.669 73.779C32.5352 71.7247 41.7746 70.9117 52.7741 71.3572C74.7604 72.2477 103.544 78.1554 133.892 88.8941C164.241 99.6329 190.334 113.143 207.988 126.279C216.819 132.851 223.491 139.294 227.537 145.21C231.598 151.147 232.894 156.365 231.389 160.619Z" stroke="url(#paint0_linear_28_19)" stroke-width="2"/>
<circle cx="119" cy="124" r="68" stroke="url(#paint1_linear_28_19)" stroke-width="2"/>
<circle cx="203" cy="21" r="5" stroke="url(#paint2_linear_28_19)" stroke-width="2"/>
<circle cx="8.99994" cy="199" r="5" transform="rotate(-180 8.99994 199)" stroke="url(#paint3_linear_28_19)" stroke-width="2"/>
<circle cx="167.5" cy="13.5" r="12.5" stroke="url(#paint4_linear_28_19)" stroke-width="2"/>
<circle cx="44.4999" cy="206.5" r="12.5" transform="rotate(-180 44.4999 206.5)" stroke="url(#paint5_linear_28_19)" stroke-width="2"/>
<defs>
<linearGradient id="paint0_linear_28_19" x1="134.226" y1="87.9514" x2="110.146" y2="156.003" gradientUnits="userSpaceOnUse">
<stop stop-color="white"/>
<stop offset="1" stop-color="white" stop-opacity="0"/>
</linearGradient>
<linearGradient id="paint1_linear_28_19" x1="119" y1="55" x2="119" y2="193" gradientUnits="userSpaceOnUse">
<stop stop-color="white"/>
<stop offset="1" stop-color="white" stop-opacity="0"/>
</linearGradient>
<linearGradient id="paint2_linear_28_19" x1="203" y1="15" x2="203" y2="27" gradientUnits="userSpaceOnUse">
<stop stop-color="white"/>
<stop offset="1" stop-color="white" stop-opacity="0"/>
</linearGradient>
<linearGradient id="paint3_linear_28_19" x1="8.99994" y1="193" x2="8.99994" y2="205" gradientUnits="userSpaceOnUse">
<stop stop-color="white"/>
<stop offset="1" stop-color="white" stop-opacity="0"/>
</linearGradient>
<linearGradient id="paint4_linear_28_19" x1="167.5" y1="0" x2="167.5" y2="27" gradientUnits="userSpaceOnUse">
<stop stop-color="white"/>
<stop offset="1" stop-color="white" stop-opacity="0"/>
</linearGradient>
<linearGradient id="paint5_linear_28_19" x1="44.4999" y1="193" x2="44.4999" y2="220" gradientUnits="userSpaceOnUse">
<stop stop-color="white"/>
<stop offset="1" stop-color="white" stop-opacity="0"/>
</linearGradient>
</defs>
</svg>
