<svg width="433" height="497" viewBox="0 0 433 497" fill="none" xmlns="http://www.w3.org/2000/svg">
<path d="M188.343 373.147C180.506 358.583 179.893 328.659 182.127 317.188L430.544 320.529C440.34 397.159 379.027 429.427 347.146 435.981C263.723 455.277 210.457 414.243 188.343 373.147Z" fill="white"/>
<ellipse cx="306.649" cy="324.165" rx="125.596" ry="68.1654" fill="#B0BEC5"/>
<ellipse cx="308.26" cy="323.629" rx="101.443" ry="53.6736" fill="#ECEFF1"/>
<path d="M299.679 347.61C294.361 334.547 279.091 331.497 272.12 331.604V321.923C305.733 324.918 314.911 340.296 315.298 347.61H299.679Z" fill="url(#paint0_linear_303_851)"/>
<path d="M271.733 313.339V305.917C328.58 307.983 344.04 334.573 344.664 347.61H329.432C326.489 323.24 289.74 314.609 271.733 313.339Z" fill="url(#paint1_linear_303_851)"/>
<path d="M272.894 297.333V288.04C348.484 288.04 372.072 327.754 374.417 347.611H358.411C350.976 306.873 298.302 297.118 272.894 297.333Z" fill="url(#paint2_linear_303_851)"/>
<ellipse cx="272.83" cy="346.255" rx="11.7464" ry="7.55126" fill="url(#paint3_linear_303_851)"/>
<path d="M181.417 462.865C187.539 457.241 204.729 453.997 212.56 453.077L223.771 459.039L222.526 476.835L189.425 475.055C184.205 473.335 175.295 468.488 181.417 462.865Z" fill="url(#paint4_linear_303_851)"/>
<path d="M200.57 402.772C198.433 402.52 198.213 403.558 198.527 404.031L204.341 407.062L212.827 412.057C212.355 410.221 211.004 405.195 209.37 399.781C207.735 394.367 200.815 394.182 197.986 395.073L200.448 397.655L204.341 404.345C203.975 403.926 202.707 403.023 200.57 402.772Z" fill="#EBC4BC"/>
<path d="M200.725 460.818C195.315 452.49 186.133 451.06 182.218 451.386L197.878 471.229C201.081 471.229 206.135 469.147 200.725 460.818Z" fill="#895252"/>
<path d="M181.735 451.386C168.282 454.091 172.926 461.708 176.931 465.178L190.188 473.365C194.104 474.225 201.453 474.201 199.531 467.225C197.609 460.249 186.867 453.759 181.735 451.386Z" fill="#9F5F5F"/>
<path d="M183.73 463.755C173.32 459.128 166.824 470.369 164.6 475.678H185.51C191.383 471.585 192.403 467.609 183.73 463.755Z" fill="url(#paint5_linear_303_851)"/>
<path d="M227.152 495.965C251.64 496.25 256.545 471.437 254.024 460.462C244.296 461.115 220.159 465.766 216.742 467.403C213.325 469.04 199.124 470.695 192.45 471.318C166.966 469.823 162.256 476.153 163.087 479.504C168.604 500.503 196.543 495.609 227.152 495.965Z" fill="url(#paint6_linear_303_851)"/>
<path d="M163.621 407.964C162.055 409.174 165.282 412.562 167.091 414.104L181.684 429.497L212.382 410.456L195.743 394.706C194.052 393.372 192.421 393.342 191.116 393.727C182.603 397.969 165.187 406.754 163.621 407.964Z" fill="url(#paint7_linear_303_851)" stroke="#311175" stroke-width="3"/>
<path d="M175.189 415.083C175.901 415.083 177.384 418.167 178.037 419.71L175.189 425.493C172.134 424.426 170.099 424.276 166.913 421.934C163.887 419.71 166.873 413.888 167.537 415.617C167.981 416.773 172.817 417.456 175.189 418.909C174.893 417.634 174.477 415.083 175.189 415.083Z" fill="#EBC4BC"/>
<path d="M197.611 431.722C198.11 431.223 199.243 429.972 199.747 429.408L209.713 436.883C206.836 440.056 200.815 446.51 199.747 446.937C198.412 447.471 173.943 427.451 173.498 426.472C173.142 425.689 176.493 420.629 178.214 418.197C184.472 422.913 197.113 432.22 197.611 431.722Z" fill="black"/>
<path d="M210.157 384.029C209.445 382.605 208.674 376.347 208.378 373.618L210.602 372.55L216.475 373.618L222.97 375.754L224.928 381.893L219.411 388.478L215.852 391.236C214.25 389.427 210.869 385.452 210.157 384.029Z" fill="#EBC4BC"/>
<path d="M218.076 391.058C217.934 389.848 216.178 390.554 215.318 391.058L216.386 386.698L218.699 386.075L229.021 386.698L230.534 391.058L218.699 393.905C218.551 393.46 218.219 392.268 218.076 391.058Z" fill="#EBC4BC"/>
<path d="M217.004 356.759C225.475 354.552 234.058 357.678 237.291 359.517C243.698 369.661 243.253 374.377 239.872 379.449C236.728 384.165 230.444 384.83 229.555 387.054C228.955 388.552 225.398 389.19 222.343 389.545L219.228 388.258C219.97 387.902 221.631 386.532 222.343 383.898C223.232 380.606 221.008 379.449 219.228 379.449C217.805 379.449 217.152 383.067 217.004 384.877C216.233 384.402 214.797 382.652 215.224 379.449C215.758 375.445 209.965 374.325 208.808 373.88C208.075 373.598 207.906 373.429 206.553 372.978C201.593 370.273 196.191 367.567 198.501 367.034C202.044 366.214 207.047 364.765 206.103 364.411C202.495 363.058 201.042 362.991 200.241 361.254C201.664 361.254 208.533 358.966 217.004 356.759Z" fill="black"/>
<path d="M211.136 394.973C215.515 393.31 223.593 392.126 232.046 390.08C262.478 390.08 253.046 448.806 254.914 461.531C238.987 472.386 236.317 471.556 222.793 469.539C217.276 468.716 213.477 468.916 212.738 466.78C211.456 463.079 210.958 443.349 212.471 434.036C211.973 436.029 210.306 438.722 209.535 439.819L199.836 429.498C201.882 427.807 203.49 397.878 211.136 394.973Z" fill="url(#paint8_linear_303_851)"/>
<path d="M214.219 428.442C215.856 422.525 217.598 415.512 218.121 412.542C218.236 411.429 218.278 410.919 218.278 411.307C218.278 411.541 218.222 411.965 218.121 412.542C217.701 416.596 216.308 428.643 212.416 434.304L214.219 428.442Z" fill="black" fill-opacity="0.26"/>
<path d="M11.6914 408.309C0.547477 403.393 1.76749 369.387 3.77049 352.999L140.885 348.766V383.181C140.557 399.023 135.468 406.534 132.964 408.309C71.5082 441.222 25.6214 414.455 11.6914 408.309Z" fill="#F5AE68"/>
<ellipse cx="71.5079" cy="341.664" rx="71.4251" ry="33.5958" fill="#F6E767"/>
<path d="M11.5544 343.439V272.014L131.325 282.803V343.439C129.686 349.121 121.628 356.095 117.804 358.872C79.6746 377.663 42.1002 366.701 28.0792 358.872C21.0869 355.703 14.1492 347.263 11.5544 343.439Z" fill="url(#paint9_linear_303_851)"/>
<path d="M11.6914 284.032C0.547477 279.116 1.76749 245.11 3.77049 228.722L140.885 224.489V258.904C140.557 274.746 135.468 282.257 132.964 284.032C71.5082 316.945 25.6214 290.178 11.6914 284.032Z" fill="#F5AE68"/>
<ellipse cx="71.5079" cy="219.026" rx="71.4251" ry="35.5077" fill="url(#paint10_linear_303_851)"/>
<ellipse cx="71.5082" cy="217.387" rx="60.4997" ry="28.4062" fill="#F6E767"/>
<ellipse cx="163.534" cy="21.7718" rx="13.0339" ry="16.4484" transform="rotate(-37.2194 163.534 21.7718)" fill="#F6E767"/>
<path d="M293.977 227.22C294.633 221.101 280.867 207.554 273.902 201.545L259.016 205.369L276.36 225.308C279.774 228.585 281.003 242.379 279.774 245.656C278.545 248.934 283.734 251.392 287.695 250.163C291.65 248.936 293.154 234.903 293.974 227.249L293.977 227.22Z" fill="#7E4AA8"/>
<ellipse cx="162.199" cy="22.7861" rx="11.3571" ry="16.4484" transform="rotate(-37.2194 162.199 22.7861)" fill="#F7AA64"/>
<ellipse cx="83.8191" cy="32.9236" rx="16.7376" ry="21.1222" transform="rotate(-37.2194 83.8191 32.9236)" fill="#F6E767"/>
<ellipse cx="82.1043" cy="34.2261" rx="14.5842" ry="21.1222" transform="rotate(-37.2194 82.1043 34.2261)" fill="#F7AA64"/>
<ellipse cx="254.762" cy="162.983" rx="13.0339" ry="16.4484" transform="rotate(-37.2194 254.762 162.983)" fill="#F6E767"/>
<ellipse cx="234.277" cy="63.835" rx="13.0339" ry="16.4484" transform="rotate(-37.2194 234.277 63.835)" fill="#F6E767"/>
<ellipse cx="232.942" cy="64.8493" rx="11.3571" ry="16.4484" transform="rotate(-37.2194 232.942 64.8493)" fill="#F7AA64"/>
<ellipse cx="253.427" cy="163.998" rx="11.3571" ry="16.4484" transform="rotate(-37.2194 253.427 163.998)" fill="#F7AA64"/>
<ellipse cx="70.8758" cy="72.761" rx="23.8457" ry="10.1588" transform="rotate(4.89012 70.8758 72.761)" fill="#7E4AA8"/>
<path d="M78.3361 28.1035L66.0449 30.6983V38.8924L166.696 112.776L173.661 107.859L176.529 84.3696L78.3361 28.1035Z" fill="#F6E767"/>
<path d="M225.693 219.709C223.18 217.305 226.74 208.419 228.834 204.276L246.998 207.554C246.497 208.237 244.813 210.504 242.081 214.109C239.35 217.715 248.864 232.273 253.963 239.101C251.095 245.383 249.729 244.154 246.998 244.154C244.266 244.154 228.834 222.713 225.693 219.709Z" fill="#7E4AA8"/>
<path d="M229.108 204.823C224.301 202.747 224.92 188.48 225.83 181.606L257.924 190.483V210.559C246.998 211.241 234.798 207.827 229.108 204.823Z" fill="#F6E767"/>
<path d="M274.994 200.589C268.33 207.254 260.746 210.012 257.787 210.559V187.615L274.994 180.377V200.589Z" fill="#F7AA64"/>
<ellipse cx="250.549" cy="180.241" rx="24.5823" ry="10.6523" fill="#7E4AA8"/>
<path d="M66.0449 30.6982V40.6677L168.744 109.771L170.929 88.8763L66.0449 30.6982Z" fill="#F2AE63"/>
<path d="M149.488 22.9141V89.8325L167.652 101.85V27.8305C166.013 16.2221 149.488 17.4513 149.488 22.9141Z" fill="#7E4AA8"/>
<path d="M163.008 30.5621C163.418 27.5576 163.509 27.6031 161.096 25.509C169.017 26.1919 167.333 26.5105 167.515 29.3329V100.622L163.008 95.5685C163.099 73.9907 162.579 33.7088 163.008 30.5621Z" fill="#434C78"/>
<path d="M239.214 62.3821L159.731 19.2266L158.092 31.9274L216.817 66.6157L244.403 182.016L258.333 184.611L239.214 62.3821Z" fill="url(#paint11_linear_303_851)"/>
<path d="M233.614 64.9769L239.214 62.3821L256.421 171.363V173.139L233.614 64.9769Z" fill="#434C78"/>
<path d="M57.4415 34.1129C44.8772 28.3225 38.0943 36.5256 36.2734 41.3511L50.4765 64.431L69.7326 62.7922C69.6871 58.331 69.6234 49.19 69.7326 48.316C69.8419 47.442 113.207 73.8998 134.876 87.2379L145.938 82.8677C121.674 69.0288 70.0058 39.9034 57.4415 34.1129Z" fill="#F6E767"/>
<path d="M66.1817 57.3292C66.2909 54.7071 67.8205 48.6799 68.5033 46.5403L69.5959 63.3382L56.4854 64.2941L57.7145 52.2761L59.0801 58.1486L66.1817 57.3292Z" fill="#DD9C54"/>
<path d="M134.875 108.542L68.5032 70.4397V46.5403L134.875 87.101V108.542Z" fill="#F2AE63"/>
<path d="M84.0719 77.6777C63.2043 79.972 52.1605 73.7172 49.2471 70.303H46.7888L43.9209 73.0343V86.8277L49.2471 94.339L77.5167 99.6651L98.1385 94.339L101.553 86.8277L84.0719 77.6777Z" fill="#F6E767"/>
<path d="M52.1153 43.1264C45.5601 37.2267 37.6391 39.7577 34.498 41.7607L41.0533 55.5541L42.2824 69.6206H52.1153C60.1729 64.8408 60.3094 50.5011 52.1153 43.1264Z" fill="#F2AE63"/>
<ellipse cx="42.8231" cy="56.0302" rx="12.3086" ry="16.2653" transform="rotate(-19.6724 42.8231 56.0302)" fill="#F8E969"/>
<ellipse cx="41.2367" cy="56.9414" rx="10.7295" ry="16.1788" transform="rotate(-19.6724 41.2367 56.9414)" fill="#F2AE63"/>
<ellipse cx="149.467" cy="104.603" rx="18.5053" ry="24.4434" transform="rotate(-19.6724 149.467 104.603)" fill="#D7EAFB"/>
<ellipse cx="145.919" cy="107.04" rx="16.2104" ry="24.4434" transform="rotate(-19.6724 145.919 107.04)" fill="#F2AE63"/>
<path d="M84.8917 98.1629L81.2043 77.8142H84.3454L101.416 86.8277L98.2754 94.339L84.8917 98.1629Z" fill="#F5AC69"/>
<path d="M97.046 94.8855L78.063 100.075V234.595L97.046 224.079V94.8855Z" fill="#D7EAFB"/>
<path d="M39.824 194.307L52.7979 95.2949L77.6534 100.075L80.5213 232.136L39.824 194.307Z" fill="#B5BDFA"/>
<path d="M62.3579 184.474C48.701 181.06 42.3279 187.57 38.1853 191.576C71.8357 197.148 70.3699 225.672 64.543 240.057C71.2075 240.931 75.0587 235.505 77.9266 232.546C88.8521 218.48 75.1279 187.666 62.3579 184.474Z" fill="#D88E8E"/>
<path d="M72.0543 206.188C77.6849 221.165 73.6945 237.397 64.574 240.826C55.4535 244.254 43.4954 234.893 37.8648 219.916C32.2342 204.939 35.0633 190.018 44.1838 186.59C53.3043 183.161 66.4237 191.211 72.0543 206.188Z" fill="#FFA9A9"/>
<path d="M52.7983 197.994C49.006 195.912 41.3266 196.719 37.5027 197.994C41.6453 211.423 48.4281 240.03 52.7983 241.559C58.261 243.471 64.27 237.735 65.3626 226.673C66.4551 215.611 59.7633 201.818 52.7983 197.994Z" fill="#8A8A8A"/>
<ellipse cx="44.3371" cy="220.566" rx="15.514" ry="23.8254" transform="rotate(-20.6039 44.3371 220.566)" fill="#C4C4C4"/>
<ellipse cx="151.363" cy="30.8802" rx="13.0339" ry="16.4484" transform="rotate(-37.2194 151.363 30.8802)" fill="#F6E767"/>
<ellipse cx="150.028" cy="31.8945" rx="11.3571" ry="16.4484" transform="rotate(-37.2194 150.028 31.8945)" fill="#F7AA64"/>
<ellipse cx="222.805" cy="72.8484" rx="13.0339" ry="16.4484" transform="rotate(-37.2194 222.805 72.8484)" fill="#F6E767"/>
<ellipse cx="221.47" cy="73.8627" rx="11.3571" ry="16.4484" transform="rotate(-37.2194 221.47 73.8627)" fill="#F7AA64"/>
<ellipse cx="240.559" cy="170.904" rx="13.0339" ry="16.4484" transform="rotate(-37.2194 240.559 170.904)" fill="#F6E767"/>
<ellipse cx="239.223" cy="171.919" rx="11.3571" ry="16.4484" transform="rotate(-37.2194 239.223 171.919)" fill="#F7AA64"/>
<defs>
<linearGradient id="paint0_linear_303_851" x1="293.709" y1="321.923" x2="293.709" y2="347.61" gradientUnits="userSpaceOnUse">
<stop stop-color="#533BA9"/>
<stop offset="1" stop-color="#9B53A6"/>
</linearGradient>
<linearGradient id="paint1_linear_303_851" x1="308.198" y1="305.917" x2="308.198" y2="347.61" gradientUnits="userSpaceOnUse">
<stop stop-color="#533BA9"/>
<stop offset="1" stop-color="#9B53A6"/>
</linearGradient>
<linearGradient id="paint2_linear_303_851" x1="323.656" y1="288.04" x2="323.656" y2="347.611" gradientUnits="userSpaceOnUse">
<stop stop-color="#533BA9"/>
<stop offset="1" stop-color="#9B53A6"/>
</linearGradient>
<linearGradient id="paint3_linear_303_851" x1="272.83" y1="338.704" x2="272.83" y2="353.806" gradientUnits="userSpaceOnUse">
<stop stop-color="#533BA9"/>
<stop offset="1" stop-color="#9B53A6"/>
</linearGradient>
<linearGradient id="paint4_linear_303_851" x1="189.014" y1="456.605" x2="213.483" y2="478.205" gradientUnits="userSpaceOnUse">
<stop stop-color="#523AA8"/>
<stop offset="1" stop-color="#161175"/>
</linearGradient>
<linearGradient id="paint5_linear_303_851" x1="170.144" y1="464.595" x2="183.611" y2="477.041" gradientUnits="userSpaceOnUse">
<stop stop-color="#523AA8"/>
<stop offset="1" stop-color="#161175"/>
</linearGradient>
<linearGradient id="paint6_linear_303_851" x1="182.934" y1="465.772" x2="219.39" y2="509.866" gradientUnits="userSpaceOnUse">
<stop stop-color="#523AA8"/>
<stop offset="1" stop-color="#161175"/>
</linearGradient>
<linearGradient id="paint7_linear_303_851" x1="187.793" y1="393.513" x2="187.793" y2="429.497" gradientUnits="userSpaceOnUse">
<stop stop-color="#7A75D9"/>
<stop offset="1" stop-color="#FF628F"/>
</linearGradient>
<linearGradient id="paint8_linear_303_851" x1="220.082" y1="433.853" x2="290.877" y2="436.108" gradientUnits="userSpaceOnUse">
<stop stop-color="#FA5D8A"/>
<stop offset="1" stop-color="#692E3F"/>
</linearGradient>
<linearGradient id="paint9_linear_303_851" x1="71.4396" y1="272.014" x2="71.4396" y2="369.247" gradientUnits="userSpaceOnUse">
<stop stop-color="#533BA9"/>
<stop offset="1" stop-color="#9B53A6"/>
</linearGradient>
<linearGradient id="paint10_linear_303_851" x1="71.5079" y1="183.518" x2="71.5079" y2="254.534" gradientUnits="userSpaceOnUse">
<stop stop-color="#533BA9"/>
<stop offset="1" stop-color="#9B53A6"/>
</linearGradient>
<linearGradient id="paint11_linear_303_851" x1="208.213" y1="19.2266" x2="208.213" y2="184.611" gradientUnits="userSpaceOnUse">
<stop stop-color="#533BA9"/>
<stop offset="1" stop-color="#9B53A6"/>
</linearGradient>
</defs>
</svg>
