<svg width="167" height="236" viewBox="0 0 167 236" fill="none" xmlns="http://www.w3.org/2000/svg">
<circle cx="51" cy="176" r="14.5" stroke="url(#paint0_linear_118_128)" stroke-width="3"/>
<circle r="8.5" transform="matrix(-1 0 0 1 18 196)" stroke="url(#paint1_linear_118_128)" stroke-width="3"/>
<circle cx="27.5" cy="229.5" r="5" stroke="url(#paint2_linear_118_128)" stroke-width="3"/>
<path d="M112.665 2.10292C80.2955 -1.22509 48.0677 76.9833 36 116.504C61.3006 155.169 108.594 148.402 112.665 148.744C116.736 149.086 145.035 5.43094 112.665 2.10292Z" stroke="url(#paint3_linear_118_128)" stroke-width="3"/>
<path d="M24 75.5006C32.8 67.3496 46 72.1043 51 75.5006L37 115.83L3 125C7 110.736 15.2 83.6515 24 75.5006Z" stroke="url(#paint4_linear_118_128)" stroke-width="3"/>
<path d="M147.295 115.44C143.67 103.591 130.252 95.6756 124 96C122.206 114.001 118.575 131.37 113.5 148.5L135.603 171.088C140.813 156.501 150.919 127.29 147.295 115.44Z" stroke="url(#paint5_linear_118_128)" stroke-width="3"/>
<circle cx="96" cy="55" r="17.5" stroke="url(#paint6_linear_118_128)" stroke-width="3"/>
<defs>
<linearGradient id="paint0_linear_118_128" x1="51" y1="160" x2="51" y2="192" gradientUnits="userSpaceOnUse">
<stop stop-color="white"/>
<stop offset="1" stop-color="#FED6FF" stop-opacity="0.15"/>
</linearGradient>
<linearGradient id="paint1_linear_118_128" x1="10" y1="0" x2="10" y2="20" gradientUnits="userSpaceOnUse">
<stop stop-color="white"/>
<stop offset="1" stop-color="#FED6FF" stop-opacity="0.15"/>
</linearGradient>
<linearGradient id="paint2_linear_118_128" x1="27.5" y1="223" x2="27.5" y2="236" gradientUnits="userSpaceOnUse">
<stop stop-color="white"/>
<stop offset="1" stop-color="#FED6FF" stop-opacity="0.15"/>
</linearGradient>
<linearGradient id="paint3_linear_118_128" x1="82" y1="2" x2="82" y2="149" gradientUnits="userSpaceOnUse">
<stop stop-color="white"/>
<stop offset="1" stop-color="#FED6FF" stop-opacity="0.15"/>
</linearGradient>
<linearGradient id="paint4_linear_118_128" x1="27" y1="71" x2="27" y2="125" gradientUnits="userSpaceOnUse">
<stop stop-color="white"/>
<stop offset="1" stop-color="#FED6FF" stop-opacity="0.15"/>
</linearGradient>
<linearGradient id="paint5_linear_118_128" x1="145.903" y1="106.448" x2="114.828" y2="158.743" gradientUnits="userSpaceOnUse">
<stop stop-color="white"/>
<stop offset="1" stop-color="#FED6FF" stop-opacity="0.15"/>
</linearGradient>
<linearGradient id="paint6_linear_118_128" x1="96" y1="36" x2="96" y2="74" gradientUnits="userSpaceOnUse">
<stop stop-color="white"/>
<stop offset="1" stop-color="#FED6FF" stop-opacity="0.15"/>
</linearGradient>
</defs>
</svg>
