<svg width="164" height="344" viewBox="0 0 164 344" fill="none" xmlns="http://www.w3.org/2000/svg">
<path d="M26.4636 228.619C26.4636 228.619 31.3928 248.751 35.0897 248.541C38.7866 248.332 47.1785 250.71 50.3701 240.903L45.7983 213.798L26.4636 228.619Z" fill="#FCC5CA"/>
<path d="M80.6846 284.061C80.6846 284.061 80.6846 301.31 83.1492 302.542C85.6137 303.774 97.9367 307.47 99.169 300.078C100.401 292.685 96.7044 280.365 96.7044 280.365L80.6846 284.061Z" fill="#FCC5CA"/>
<path d="M80.6846 297.614C80.6846 297.614 89.3106 309.934 99.1689 298.846C99.1689 298.846 108.732 299.782 108.263 300.546C107.795 301.31 107.795 309.934 105.33 311.166C102.866 312.398 102.866 324.164 103.482 326.296C104.098 328.427 102.866 340.735 91.7752 343.199C91.7752 343.199 78.22 345.663 74.5231 341.967C70.8262 338.271 80.6846 326.801 80.6846 326.801C80.6846 326.801 83.7653 316.71 82.533 311.782C81.3007 306.854 77.6038 299.462 80.6846 297.614Z" fill="#253137"/>
<path d="M30.1605 240.939C30.5056 241.346 35.0034 246.422 41.6825 245.56C44.892 245.087 47.8121 243.441 49.8772 240.939C51.0479 241.026 52.6745 241.198 54.5969 241.506C57.2093 241.913 59.3166 242.061 58.9715 242.64C58.5032 243.404 58.5032 252.028 56.0387 253.26C53.5741 254.492 53.5741 266.258 54.1902 268.389C54.8064 270.521 53.5741 282.829 42.4834 285.293C42.4834 285.293 28.9282 287.757 25.2313 284.061C21.5345 280.365 31.3928 268.895 31.3928 268.895C35.0897 261.281 34.4735 256.673 33.2412 253.876C31.6762 250.34 28.0287 247.272 28.9282 243.404C29.1532 242.502 29.5739 241.66 30.1605 240.939Z" fill="#253137"/>
<path d="M73.2909 147.082C73.2909 147.082 0.585648 151 7.9794 189.194C15.3732 227.387 26.4638 234.779 26.4638 234.779C26.4638 234.779 43.7159 238.475 48.6451 227.387C48.6451 227.387 48.0289 199.666 45.5643 198.434C43.0997 197.202 76.3716 192.274 81.3008 187.345C86.23 182.417 103.482 162.705 103.482 162.705L73.2909 147.082Z" fill="#675B5B"/>
<path d="M101.695 164.75C101.695 164.75 63.4326 201.514 63.4326 219.995C63.4326 238.475 76.2361 288.989 79.6989 290.862C83.1616 292.735 99.5388 287.757 99.5388 287.757C99.5388 287.757 94.3508 226.709 101.695 221.485C109.04 216.262 148.424 177.218 142.903 164.713C137.382 152.208 101.695 164.75 101.695 164.75Z" fill="#675B5B"/>
<path d="M76.9877 73.3813C76.9877 73.3813 49.8773 98.0222 48.645 99.2543C47.4127 100.486 35.0898 84.4697 35.0898 84.4697C35.0898 84.4697 20.598 89.8661 21.0663 93.9442C21.5346 98.0222 42.4835 128.823 46.1804 126.359C49.8773 123.895 58.5033 122.663 72.0585 106.647C75.9404 102.134 78.4637 96.6144 79.3361 90.7268C80.2085 84.8393 79.3943 78.8251 76.9877 73.3813Z" fill="#FCC5CA"/>
<path d="M35.0898 83.2377C35.0898 83.2377 27.5728 74.5271 29.4829 64.757C31.3929 54.9869 27.696 53.6686 26.4637 54.9006C25.2314 56.1327 21.5346 65.9891 21.5346 65.9891C21.5346 65.9891 12.9085 51.2045 0.58561 67.2211C0.58561 67.2211 -1.62019 73.1965 9.33489 80.059C11.1278 82.9182 13.147 85.6292 15.3731 88.1659C17.8377 90.63 21.054 93.9442 21.054 93.9442L35.0898 83.2377Z" fill="#253137"/>
<path d="M100.069 65.4962C100.069 65.4962 80.0685 65.373 77.6039 69.0692C75.1393 72.7653 55.4226 91.246 54.1903 92.478C52.958 93.7101 67.7455 98.6383 68.9778 110.959C68.9778 110.959 71.6519 112.314 77.0986 103.628C77.0986 103.628 77.8134 132.754 77.0986 134.17C76.3839 135.587 72.6747 144.224 73.907 146.688C75.1393 149.152 93.6237 176.257 141.683 166.401C141.683 166.401 149.077 161.941 141.683 122.281C141.683 122.281 135.928 75.4635 144.973 71.6441C144.973 71.6441 132.441 61.9356 100.069 65.4962Z" fill="#33474E"/>
<path d="M133.673 101.718L155.855 93.0941C155.855 93.0941 166.945 133.752 163.248 142.376C159.551 151 147.229 146.072 139.835 141.144C132.441 136.216 141.683 109.727 152.774 129.439C152.774 129.439 144.148 113.423 140.451 110.959C136.754 108.495 133.673 101.718 133.673 101.718Z" fill="#FCC5CA"/>
<path d="M137.37 69.6852C137.37 69.6852 123.815 89.1022 137.37 118.203L162.016 114.039C162.016 114.039 155.854 78.3095 144.764 72.1493C144.764 72.1493 143.531 69.6852 137.37 69.6852Z" fill="#33474E"/>
<path d="M144.764 115.271C144.764 115.271 150.691 112.967 152.047 116.601C153.402 120.236 143.519 123.427 143.519 123.427C143.519 123.427 136.125 129.587 133.661 142.795C131.196 156.002 89.3107 146.072 105.33 132.52C121.35 118.967 125.047 117.649 144.764 115.271Z" fill="#253137"/>
<path d="M100.401 58.5968C100.401 58.5968 101.634 65.9891 99.1691 65.9891C96.7045 65.9891 97.0126 80.5642 99.9331 80.0467C102.854 79.5292 120.118 75.8454 122.583 67.2211L120.968 50.2066L107.031 47.4221L101.634 54.9007L100.401 58.5968Z" fill="#FCC5CA"/>
<path d="M83.7653 22.2515C83.7653 22.2515 82.5331 49.3565 84.9976 53.0526C87.4622 56.7487 93.6237 65.373 107.179 57.9808C120.734 50.5885 120.734 49.3565 121.966 50.5885C123.199 51.8205 134.289 48.1244 129.36 38.268L128.128 16.0912L101.017 11.1631L88.6945 13.6271L83.4573 17.2124L83.7653 22.2515Z" fill="#FCC5CA"/>
<path d="M121.35 8.08294C116.707 5.90584 111.685 4.65059 106.563 4.38681C104.098 4.2636 104 4.51001 101.634 4.38681C91.1468 3.83239 87.2774 -1.2806 84.3815 0.690674C81.1036 2.92068 82.3852 12.0871 84.3815 12.506C86.8461 13.0111 80.6847 11.3725 80.3889 12.506C80.0932 13.6395 81.3008 19.7874 82.5331 19.7874C82.5331 19.7874 76.3716 22.2515 82.5331 22.2515C82.5331 22.2515 84.9977 22.2515 86.23 17.3233C86.23 17.3233 99.7852 25.9476 110.876 19.7874C110.876 19.7874 115.805 19.7874 115.805 33.3399C115.805 46.8924 121.35 38.6746 121.35 38.6746C121.35 38.6746 128.128 37.036 129.36 38.268C130.593 39.5001 134.671 26.8347 130.79 20.8469C130.79 20.8469 125.663 8.69897 121.35 8.08294Z" fill="black"/>
</svg>
