<svg width="590" height="548" viewBox="0 0 590 548" fill="none" xmlns="http://www.w3.org/2000/svg">
<g clip-path="url(#clip0_223_195)">
<path d="M124.419 409.798L121.418 384.088C103.98 385.031 86.7484 388.313 70.1868 393.846L94.3935 415.518C104.131 412.395 114.214 410.475 124.419 409.798Z" fill="#D4ECFF"/>
<path d="M124.419 396.349L121.418 370.639C103.98 371.582 86.7484 374.864 70.1868 380.397L94.302 402.014C104.073 398.911 114.187 397.009 124.419 396.349Z" fill="#F9BF30"/>
<path d="M124.364 341.84L94.8875 343.155L94.302 347.578V402.069L117.228 393.426L124.364 396.349V341.84Z" fill="#F9BF30"/>
<path d="M70.0952 325.887V380.397L94.3019 402.069V347.578L70.0952 325.887Z" fill="#E8A200"/>
<path d="M124.419 341.84L121.363 316.129C103.923 317.069 86.6902 320.358 70.1318 325.906L94.3386 347.578C104.093 344.445 114.195 342.518 124.419 341.84Z" fill="#FDD762"/>
<path d="M133.567 409.323C153.218 409.196 172.942 413.161 188.567 421.219L220.148 402.946C195.008 389.442 162.641 382.992 130.493 383.558L133.567 409.323Z" fill="#D4ECFF"/>
<path d="M133.567 396.002C153.218 395.874 172.942 399.84 188.567 407.898L220.148 389.625C195.008 376.139 162.641 369.67 130.493 370.237L133.567 396.002Z" fill="#D3008D"/>
<path d="M133.494 396.002V377.181L130.493 351.47V370.292L133.494 396.002Z" fill="#CC0293"/>
<path d="M188.494 389.076L153.309 357.5L133.494 377.181V396.002L184.652 395.673L188.494 407.898V389.076Z" fill="#D3008D"/>
<path d="M220.074 370.876V389.679L188.494 407.898V389.076L220.074 370.876Z" fill="#D3008D"/>
<path d="M133.567 377.181C153.218 377.053 172.942 381.018 188.567 389.077L220.148 370.803C195.008 357.299 162.641 350.849 130.493 351.415L133.567 377.181Z" fill="#FF2C9C"/>
<path d="M65.1733 480.425C45.8702 462.353 49.7674 438.396 76.9199 422.736C80.0456 420.95 83.278 419.357 86.5989 417.967L62.4105 396.313C56.5359 398.655 50.8318 401.402 45.3396 404.536C2.67131 429.15 -2.92752 467.031 28.5065 495.208L65.1733 480.425Z" fill="#D4ECFF"/>
<path d="M65.1733 467.378C45.8702 449.324 49.7674 425.349 76.9199 409.707C80.0418 407.914 83.2746 406.321 86.5989 404.938L62.4105 383.284C56.5359 385.626 50.8318 388.373 45.3396 391.507C2.67131 416.121 -2.92752 454.002 28.5065 482.106L65.1733 467.378Z" fill="#AE4568"/>
<path d="M86.5989 371.443V404.938L65.1733 412.978C65.1733 412.978 37.3621 397.811 37.3621 397.446C37.3621 397.08 42.0826 364.901 45.4859 363.457C48.8891 362.014 86.5989 371.443 86.5989 371.443Z" fill="#AE4568"/>
<path d="M65.1735 467.378V433.883L28.4883 448.611V482.106L65.1735 467.378Z" fill="#EA5B8A"/>
<path d="M28.5065 427.597V482.106C28.5065 482.106 9.3497 465.971 8.48975 444.609V409.616L30.757 406.4L28.5065 427.597Z" fill="#AE4568"/>
<path d="M65.1733 433.883C45.8702 415.829 49.7674 391.854 76.9199 376.212C80.0418 374.419 83.2746 372.826 86.5989 371.443L62.4105 349.789C56.5359 352.131 50.8318 354.878 45.3396 358.012C2.67131 382.626 -2.92752 420.507 28.5065 448.611L65.1733 433.883Z" fill="#F86394"/>
<path d="M353.44 422.188C388.141 422.188 416.272 405.964 416.272 385.952C416.272 365.939 388.141 349.716 353.44 349.716C318.739 349.716 290.609 365.939 290.609 385.952C290.609 405.964 318.739 422.188 353.44 422.188Z" fill="#D4ECFF"/>
<path d="M424.103 321.885L407.27 321.995C406.044 321.173 404.763 320.35 403.409 319.565C375.799 303.649 331.063 303.649 303.472 319.565C301.752 320.57 300.123 321.593 298.623 322.671H282.778V348.254C282.778 358.688 289.676 369.122 303.472 377.071C331.081 392.987 375.817 392.987 403.409 377.071C417.205 369.122 424.103 358.688 424.103 348.254V321.885Z" fill="#721BD5"/>
<path d="M351.08 307.669C333.789 307.998 316.682 311.963 303.508 319.565C301.788 320.57 300.16 321.593 298.659 322.671H282.814V348.254C282.814 358.688 289.712 369.122 303.526 377.071C316.718 384.673 333.826 388.638 351.098 388.967L351.08 307.669Z" fill="#983BE9"/>
<path d="M292.493 322.708H282.778V348.29C282.778 355.435 286.016 362.58 292.493 368.921V322.708Z" fill="#B45EF4"/>
<path d="M353.44 362.617C392.466 362.617 424.103 344.381 424.103 321.885C424.103 299.39 392.466 281.154 353.44 281.154C314.414 281.154 282.778 299.39 282.778 321.885C282.778 344.381 314.414 362.617 353.44 362.617Z" fill="#8A2AE3"/>
<path d="M403.409 350.702C375.817 366.619 331.081 366.619 303.471 350.702C290.371 343.137 283.509 333.361 282.851 323.457C282.119 334.421 288.98 345.495 303.471 353.846C331.081 369.762 375.817 369.762 403.409 353.846C417.9 345.495 424.761 334.421 424.029 323.475C423.371 333.361 416.509 343.156 403.409 350.702Z" fill="#B45EF4"/>
<path d="M404.708 310.647H392.486C391.607 310.044 390.656 309.441 389.686 308.82C369.669 297.271 337.211 297.271 317.194 308.82C315.932 309.551 314.761 310.3 313.663 311.068H302.172V319.875C302.172 327.44 307.186 335.006 317.194 340.78C337.211 352.676 369.596 352.676 389.723 341.054C399.731 335.28 404.745 327.715 404.745 320.149L404.708 310.647Z" fill="#721BD5"/>
<path d="M351.72 300.396C339.187 300.633 326.763 303.502 317.194 309.021C315.932 309.752 314.761 310.501 313.663 311.269H302.172V320.076C302.172 327.641 307.186 335.207 317.194 340.981C326.763 346.463 339.15 349.387 351.72 349.624V300.396Z" fill="#983BE9"/>
<path d="M309.217 311.305H302.172V320.113C302.276 322.953 302.954 325.742 304.164 328.314C305.375 330.886 307.093 333.187 309.217 335.079V311.305Z" fill="#B45EF4"/>
<path d="M353.44 340.287C381.755 340.287 404.708 327.049 404.708 310.72C404.708 294.391 381.755 281.154 353.44 281.154C325.126 281.154 302.172 294.391 302.172 310.72C302.172 327.049 325.126 340.287 353.44 340.287Z" fill="#8A2AE3"/>
<path d="M259.815 221.583C251.358 221.594 243.041 219.425 235.669 215.286C228.296 211.146 222.118 205.177 217.732 197.955L190.927 153.496C189.366 150.916 188.522 147.968 188.481 144.953C188.44 141.939 189.205 138.968 190.696 136.348C192.187 133.727 194.351 131.55 196.964 130.042C199.578 128.534 202.547 127.749 205.565 127.767H258.626V141.582H205.565C205.006 141.579 204.456 141.726 203.972 142.005C203.489 142.285 203.088 142.689 202.812 143.175C202.537 143.66 202.395 144.211 202.403 144.769C202.411 145.327 202.568 145.874 202.857 146.351L229.717 190.847C232.903 196.098 237.411 200.424 242.79 203.396C248.17 206.368 254.235 207.881 260.382 207.786L306.582 207.092L306.783 220.907L260.584 221.601L259.815 221.583Z" fill="#FDD762"/>
<path d="M447.12 221.583H446.443L400.243 220.889L400.445 207.074L446.644 207.768C452.794 207.869 458.863 206.355 464.245 203.38C469.626 200.404 474.131 196.07 477.31 190.811L504.169 146.333C504.465 145.846 504.623 145.288 504.626 144.718C504.628 144.148 504.476 143.589 504.184 143.099C503.893 142.609 503.474 142.207 502.972 141.937C502.47 141.667 501.903 141.538 501.333 141.564H448.273V127.749H501.333C504.354 127.728 507.326 128.513 509.943 130.022C512.559 131.531 514.724 133.71 516.216 136.334C517.708 138.958 518.471 141.931 518.428 144.948C518.385 147.965 517.537 150.916 515.971 153.496L489.111 197.974C484.727 205.175 478.562 211.129 471.208 215.264C463.854 219.399 455.559 221.575 447.12 221.583Z" fill="#FDD762"/>
<path d="M490.081 169.577L477.273 190.811C474.094 196.07 469.589 200.404 464.208 203.38C458.827 206.355 452.758 207.869 446.608 207.768L400.408 207.074L400.207 220.889L446.406 221.583H447.138C454.72 221.565 462.196 219.797 468.982 216.418C475.767 213.039 481.679 208.14 486.257 202.103C492.313 186.516 491.362 175.242 490.081 169.577Z" fill="#E8A200"/>
<path d="M353.44 293.141C374.883 293.141 392.266 283.119 392.266 270.756C392.266 258.394 374.883 248.372 353.44 248.372C331.997 248.372 314.614 258.394 314.614 270.756C314.614 283.119 331.997 293.141 353.44 293.141Z" fill="white"/>
<path d="M308.1 293.141C316.279 287.075 314.706 281.154 314.706 281.154L320.89 288.61C339.699 279.473 367.181 279.473 386.008 288.61L392.193 281.154C392.193 281.154 390.619 287.075 398.798 293.141C406.977 299.208 404.287 311.122 404.287 311.122C404.287 318.633 399.329 326.143 389.393 331.863C369.541 343.32 337.339 343.32 317.487 331.863C307.552 326.143 302.593 318.633 302.593 311.141C302.593 311.104 299.922 299.208 308.1 293.141Z" fill="#F9BF30"/>
<path d="M381.837 294.932C381.837 294.932 367.199 286.252 367.199 284.425C367.334 283.906 367.606 283.433 367.986 283.054C374.229 284.045 380.306 285.89 386.045 288.536L392.23 281.081C392.23 281.081 390.656 287.001 398.835 293.068C407.013 299.135 404.324 311.049 404.324 311.049C404.224 315.435 402.644 319.659 399.841 323.037C399.969 322.105 401.543 309.843 392.303 305.823C382.66 301.693 381.837 294.932 381.837 294.932Z" fill="#E8A200"/>
<path d="M325.977 295.499C341.145 304.252 365.736 304.252 380.867 295.499C395.999 286.746 396.035 272.584 380.867 263.831C365.699 255.078 341.108 255.096 325.977 263.831C310.845 272.566 310.827 286.764 325.977 295.499Z" fill="#E8A200"/>
<path d="M455.006 128.571C453.981 185.109 424.798 191.962 409.264 213.122C394.626 232.858 396.346 261.419 396.639 265.147C396.639 265.293 396.639 265.421 396.639 265.567C396.639 271.926 392.412 278.358 383.996 283.164C367.144 292.867 339.809 292.867 322.958 283.164C315.072 278.596 310.918 272.712 310.424 266.718H310.314V265.53C310.314 265.384 310.314 265.256 310.314 265.11C310.607 261.455 312.272 232.839 297.69 213.086C282.082 191.925 252.899 185.073 251.948 128.535L455.006 128.571Z" fill="#F9BF30"/>
<path d="M380.812 190.043C380.812 190.043 378.434 196.804 371.06 216.137C363.686 235.471 367.163 284.352 367.163 284.352L379.696 285.211C381.178 284.553 382.605 283.858 383.959 283.091C392.376 278.23 396.602 271.853 396.602 265.494C396.602 265.348 396.602 265.22 396.602 265.073C396.31 261.419 394.645 232.784 409.227 213.049C424.834 191.889 454.018 185.036 454.969 128.498H443.881L380.812 190.043Z" fill="#E8A200"/>
<path d="M353.44 187.138C409.533 187.138 455.006 160.917 455.006 128.571C455.006 96.2262 409.533 70.0052 353.44 70.0052C297.347 70.0052 251.874 96.2262 251.874 128.571C251.874 160.917 297.347 187.138 353.44 187.138Z" fill="#FDD762"/>
<path d="M281.625 169.942C321.293 192.821 385.588 192.821 425.255 169.942C443.955 159.161 453.817 145.237 454.896 131.111C456.085 146.936 446.223 162.998 425.255 175.095C385.588 197.955 321.293 197.955 281.625 175.095C260.657 162.998 250.795 146.954 251.984 131.111C253.064 145.273 262.926 159.198 281.625 169.942Z" fill="white"/>
<path d="M353.44 177.727C400.52 177.727 438.685 155.719 438.685 128.571C438.685 101.424 400.52 79.416 353.44 79.416C306.361 79.416 268.195 101.424 268.195 128.571C268.195 155.719 306.361 177.727 353.44 177.727Z" fill="#F2B42A"/>
<path d="M293.17 163.327C307.112 171.368 324.714 175.991 342.883 177.307C344.289 175.78 345.268 173.911 345.721 171.887C346.174 169.863 346.085 167.755 345.463 165.776C336.607 139.298 339.974 84.4047 339.974 84.4047L323.927 82.5774C313.131 84.7263 302.735 88.5425 293.115 93.8886C259.815 113.021 259.815 144.14 293.17 163.327Z" fill="#E8A200"/>
<path d="M413.71 98.1828C380.428 78.9957 326.452 78.9957 293.17 98.1828C277.49 107.319 269.201 118.923 268.286 130.764C267.28 117.461 275.605 103.975 293.17 93.8154C326.452 74.6284 380.428 74.6284 413.71 93.8154C431.311 103.975 439.6 117.461 438.593 130.746C437.679 118.905 429.39 107.228 413.71 98.1828Z" fill="white"/>
<path d="M395.212 171.422C368.022 179.81 338.931 179.81 311.742 171.422C312.638 170.838 313.571 170.253 314.523 169.705C336.04 157.297 370.914 157.297 392.431 169.705C393.382 170.253 394.279 170.838 395.212 171.422Z" fill="#E8A200"/>
<path d="M310.314 265.147C310.314 264.708 310.406 263.904 310.461 262.789C311.101 268.6 315.218 274.32 322.921 278.76C339.772 288.482 367.108 288.482 383.959 278.76C391.498 274.411 395.651 268.856 396.438 263.173C396.438 264.068 396.529 264.763 396.566 265.147C396.602 265.53 396.566 265.421 396.566 265.567C396.566 271.926 392.339 278.358 383.923 283.164C367.071 292.867 339.736 292.867 322.884 283.164C314.98 278.596 310.845 272.712 310.351 266.718H310.241V265.53C310.278 265.421 310.314 265.293 310.314 265.147Z" fill="white"/>
<path d="M296.994 240.551C296.994 240.551 291.67 237.864 288.395 241.866C285.12 245.868 280.436 255.315 280.289 261.693C280.143 268.07 285.339 267.65 288.431 266.133C291.524 264.617 300.562 251.515 301.111 248.975C301.319 247.809 301.291 246.614 301.03 245.459C300.77 244.305 300.281 243.214 299.593 242.25C298.733 241.574 296.994 240.551 296.994 240.551Z" fill="#0A0A0A"/>
<path d="M298.239 239.253L298.495 244.735C298.517 245.311 298.383 245.882 298.106 246.387C297.828 246.893 297.419 247.313 296.921 247.604C295.665 248.289 294.209 248.516 292.804 248.244C288.797 247.586 288.431 246.416 288.139 240.934C287.846 235.452 298.239 239.253 298.239 239.253Z" fill="#E8A200"/>
<path d="M277.472 229.934C277.472 229.934 272.129 227.248 268.854 231.249C265.579 235.251 260.895 244.699 260.748 251.076C260.602 257.453 265.817 257.033 268.909 255.516C272.001 254 281.04 240.898 281.57 238.358C281.776 237.193 281.75 236 281.492 234.846C281.235 233.692 280.751 232.6 280.07 231.633C279.192 230.957 277.472 229.934 277.472 229.934Z" fill="#0A0A0A"/>
<path d="M278.643 228.655L278.88 234.137C278.911 234.712 278.782 235.284 278.507 235.79C278.233 236.296 277.824 236.717 277.325 237.006C276.069 237.691 274.613 237.917 273.208 237.645C269.183 237.006 268.835 235.818 268.543 230.336C268.25 224.854 278.643 228.655 278.643 228.655Z" fill="#E8A200"/>
<path d="M326.251 127.292C324.659 101.71 298.421 131.057 298.421 131.057L280.454 148.654L264.28 166.397C262.718 168.109 261.549 170.14 260.854 172.35C260.159 174.559 259.954 176.892 260.254 179.189L266.804 228.965C266.965 230.147 267.551 231.23 268.454 232.01C269.357 232.791 270.514 233.215 271.708 233.205C272.523 233.193 273.336 233.126 274.142 233.004C275.703 232.828 277.136 232.058 278.142 230.852C279.147 229.647 279.648 228.1 279.539 226.535L278.35 179.993L312.327 159.545C312.327 159.545 327.824 152.948 326.251 127.292Z" fill="#675B5B"/>
<path d="M303.728 149.695C303.728 149.695 283.382 172.08 282.247 178.33C281.113 184.579 303.728 172.574 303.728 172.574L319.188 147.338L303.728 149.695Z" fill="#E8A200"/>
<path d="M345.81 137.05C344.237 111.376 317.981 140.815 317.981 140.815L300.068 158.43L283.894 176.174C282.336 177.887 281.17 179.919 280.478 182.128C279.786 184.337 279.584 186.67 279.887 188.965L286.419 238.742C286.58 239.926 287.169 241.012 288.075 241.793C288.982 242.574 290.144 242.996 291.341 242.981C292.149 242.969 292.956 242.902 293.756 242.78C295.33 242.627 296.783 241.868 297.808 240.664C298.832 239.46 299.347 237.906 299.245 236.329L298.037 189.769L332.015 169.321C332.015 169.321 347.366 162.724 345.81 137.05Z" fill="#675B5B"/>
<path d="M330.258 54.6922C350.147 62.9334 349.744 74.6832 349.744 74.6832C349.744 74.6832 345.847 117.754 347.183 146.516C347.731 158.54 283.144 159.453 292.841 127.365C304.185 89.5394 299.922 58.9316 305.246 54.2719C310.571 49.6122 325.098 52.5542 330.258 54.6922Z" fill="#33474E"/>
<path d="M336.662 65.108C335.637 69.1464 330.331 71.2661 324.842 69.8591C319.353 68.4521 315.694 64.0299 316.791 59.9915C317.889 55.9531 323.122 53.8334 328.611 55.2404C334.1 56.6475 337.686 61.0696 336.662 65.108Z" fill="#FFC2B0"/>
<path d="M328.227 71.2662C326.992 71.2603 325.763 71.1007 324.568 70.7911C318.585 69.2561 314.669 64.304 315.84 59.8271C317.011 55.3501 322.83 52.8466 328.813 54.3451C331.531 54.9986 333.976 56.4878 335.802 58.6028C336.625 59.5023 337.22 60.5854 337.538 61.7615C337.857 62.9377 337.889 64.1729 337.632 65.3639C337.29 66.5288 336.675 67.5955 335.838 68.4758C335.002 69.3561 333.967 70.0245 332.82 70.4256C331.356 70.9949 329.798 71.2802 328.227 71.2662ZM325.19 55.7704C321.53 55.7704 318.402 57.4881 317.688 60.2474C316.792 63.7741 320.085 67.6663 325.007 68.9455C327.309 69.5896 329.756 69.4872 331.996 68.6531C332.862 68.3615 333.646 67.8678 334.282 67.2131C334.918 66.5585 335.389 65.7616 335.656 64.8888C335.842 63.9925 335.814 63.0649 335.572 62.1818C335.33 61.2988 334.882 60.4856 334.265 59.8088C332.705 57.9929 330.611 56.7141 328.282 56.1541C327.271 55.8948 326.233 55.7598 325.19 55.7521V55.7704Z" fill="white"/>
<path d="M322.262 53.7968C322.389 56.1609 322.333 58.5312 322.097 60.8869C321.988 62.8604 328.922 64.7243 330.734 62.9152C332.545 61.1061 331.795 59.2605 332.234 52.5359C332.673 45.8113 322.262 53.7968 322.262 53.7968Z" fill="#FFC2B0"/>
<path d="M332.234 52.5359C332.234 52.5359 330.533 58.7854 322.098 61.1792L322.226 55.4962L332.234 52.5359Z" fill="#EA9C92"/>
<path d="M337.577 36.6564C338.338 39.5848 338.212 42.6728 337.216 45.5298C336.219 48.3868 334.397 50.8845 331.979 52.707C329.561 54.5295 326.656 55.5948 323.632 55.7684C320.608 55.9419 317.6 55.2158 314.989 53.6819C312.378 52.1479 310.281 49.8751 308.963 47.1509C307.646 44.4266 307.167 41.3734 307.587 38.3772C308.007 35.3811 309.308 32.5767 311.324 30.3188C313.34 28.0609 315.981 26.4509 318.914 25.6924C322.844 24.6808 327.016 25.2669 330.514 27.3221C334.013 29.3774 336.552 32.7341 337.577 36.6564Z" fill="#FFC2B0"/>
<path d="M326.251 41.042C326.251 41.042 317.835 44.6967 311.98 44.6967C306.125 44.6967 307.387 39.8543 307.387 39.8543L324.714 37.3508L326.251 41.042Z" fill="#EA9C92"/>
<path d="M310.241 42.0287C310.241 42.0287 317.56 38.9222 324.037 40.2014C325.562 40.5007 326.937 41.3135 327.934 42.5038C328.218 42.9125 328.63 43.2148 329.105 43.3627C330.258 43.6185 332.124 38.8857 334.338 38.776C336.552 38.6664 337.998 40.2379 336.168 43.1617C334.338 46.0854 334.96 49.3198 335.802 49.7949C336.644 50.27 345.536 43.454 337.632 27.8668C329.727 12.2797 309.875 20.722 306.783 23.865C306.783 23.865 303.508 26.6973 300.855 24.1756C300.965 24.2304 298.001 46.4874 310.241 42.0287Z" fill="black"/>
<path d="M295.512 51.1655L284.809 46.5606C284.202 46.2973 283.656 45.9113 283.206 45.427C282.755 44.9427 282.41 44.3705 282.192 43.7465L271.635 13.1569L266.731 14.0157L275.276 52.0791C275.476 52.9564 275.857 53.782 276.396 54.5028C276.935 55.2236 277.619 55.8235 278.405 56.2637L296.208 66.2593L295.512 51.1655Z" fill="#FFC2B0"/>
<path d="M406.83 56.1358L409.3 55.0028C411.386 54.058 413.293 52.7597 414.936 51.1654L416.637 49.466C417.113 49.0009 417.437 48.4034 417.568 47.7514C417.698 47.0995 417.629 46.4234 417.369 45.8113C417.271 45.5817 417.127 45.3746 416.945 45.2028C416.764 45.031 416.549 44.8982 416.314 44.8126C416.079 44.727 415.829 44.6903 415.579 44.705C415.33 44.7196 415.086 44.7852 414.863 44.8977L409.721 47.5107C409.721 47.5107 410.526 45.2449 410.142 44.6418C409.758 44.0388 405.787 48.4244 403.958 51.5309C402.128 54.6374 406.83 56.1358 406.83 56.1358Z" fill="#FFC2B0"/>
<path d="M364.107 68.3607L373.256 67.3374C375.416 67.096 377.507 66.425 379.403 65.3639L403.921 51.4944L406.794 56.1358L381.764 75.469C380.992 76.0631 380.15 76.5602 379.257 76.9492L364.29 83.3266L364.107 68.3607Z" fill="#FFC2B0"/>
<path d="M266.731 14.0157L265.798 12.9376C264.721 11.6983 264.022 10.1761 263.786 8.55195L263.127 4.09325C263.02 3.40716 263.101 2.70488 263.362 2.06127C263.623 1.41766 264.054 0.856834 264.609 0.438577H264.737C265.026 0.259575 265.35 0.146007 265.688 0.105877C266.025 0.065748 266.367 0.100035 266.69 0.20632C267.013 0.312606 267.308 0.488303 267.556 0.721027C267.803 0.95375 267.996 1.23783 268.122 1.55325L270.318 6.8708C270.318 6.8708 269.622 4.11152 270.519 3.80088C271.415 3.49023 272.349 6.99871 271.672 8.89915C271.271 10.315 271.271 11.814 271.672 13.2299L266.731 14.0157Z" fill="#FFC2B0"/>
<path d="M316.664 51.0193L312.711 49.9412C313.831 51.6225 315.46 52.9028 317.359 53.5958C320.103 54.3633 320.542 52.0243 320.542 52.0243L316.664 51.0193Z" fill="white"/>
<path d="M310.735 52.1157C310.735 52.1157 292.859 48.5889 287.407 46.926C281.954 45.2631 279.667 60.2473 280.088 64.0299C280.509 67.8125 299.099 72.0702 301.312 78.6486C303.526 85.227 310.735 52.1157 310.735 52.1157Z" fill="#33474E"/>
<path d="M338.071 58.6758C338.071 58.6758 351.135 64.2857 372.981 67.0084C373.418 67.0567 373.833 67.226 374.179 67.4972C374.525 67.7685 374.788 68.1308 374.939 68.5434C376.447 72.7512 376.844 77.2763 376.092 81.6819C375.855 82.7661 375.25 83.7351 374.38 84.4246C373.51 85.1141 372.427 85.4815 371.316 85.4645C364.473 85.4645 349.744 86.0858 347.347 92.4632C344.219 100.832 338.071 58.6758 338.071 58.6758Z" fill="#33474E"/>
<path d="M494.999 90.0438L497.364 93.4093L507.174 86.5339L504.809 83.1684L494.999 90.0438Z" fill="#FDD762"/>
<path d="M498.488 82.5732L500.853 85.9387L510.663 79.0633L508.298 75.6978L498.488 82.5732Z" fill="#FDD762"/>
<path d="M501.977 75.1025L504.342 78.468L514.152 71.5926L511.787 68.2271L501.977 75.1025Z" fill="#FDD762"/>
<path d="M507.835 67.1286L510.181 70.5L520.009 63.6776L517.662 60.3062L507.835 67.1286Z" fill="#FDD762"/>
<path d="M587.087 182.67L590.001 181.346L586.151 172.897L583.237 174.221L587.087 182.67Z" fill="#FF2C9C"/>
<path d="M581.878 178.934L584.793 177.609L580.943 169.16L578.028 170.485L581.878 178.934Z" fill="#FF2C9C"/>
<path d="M576.66 175.192L579.575 173.867L575.725 165.418L572.81 166.743L576.66 175.192Z" fill="#FF2C9C"/>
<path d="M571.436 171.39L574.351 170.066L570.502 161.616L567.587 162.94L571.436 171.39Z" fill="#FF2C9C"/>
<path d="M568.165 37.9319L565.825 34.5492L562.137 37.094L564.477 40.4767L568.165 37.9319Z" fill="#FF2C9C"/>
<path d="M548.28 30.2067L545.939 26.824L542.251 29.3688L544.591 32.7515L548.28 30.2067Z" fill="#B45EF4"/>
<path d="M553.059 119.289L554.888 116.146C555.886 116.642 557.031 116.759 558.109 116.474C558.898 116.13 559.608 115.628 560.197 114.999C560.785 114.371 561.239 113.629 561.53 112.82C562.474 110.461 564.209 108.503 566.438 107.279C568.667 106.056 571.253 105.644 573.752 106.113L572.874 109.768L573.313 107.941L572.892 109.768C572.362 109.64 567.605 108.745 564.824 114.501C564.317 115.764 563.548 116.906 562.567 117.851C561.586 118.796 560.416 119.523 559.133 119.983C557.095 120.546 554.917 120.297 553.059 119.289Z" fill="#B45EF4"/>
<path d="M155.231 501.275C185.627 501.275 210.267 487.064 210.267 469.534C210.267 452.004 185.627 437.793 155.231 437.793C124.834 437.793 100.194 452.004 100.194 469.534C100.194 487.064 124.834 501.275 155.231 501.275Z" fill="#D4ECFF"/>
<path d="M128.974 455.939C127.402 456.691 126.098 457.908 125.241 459.424C124.383 460.941 124.013 462.684 124.181 464.418C124.209 465.827 124.444 467.224 124.876 468.566C125.864 470.631 129.102 473.481 134.262 471.435C139.422 469.388 150.876 458.643 151.315 451.608C152.102 438.561 137.226 452.449 128.974 455.939Z" fill="#173D7A"/>
<path d="M159.292 477.556C159.292 477.556 158.048 485.103 158.652 486.474C159.256 487.844 162.842 490.804 168.148 490.128C173.454 489.452 188.732 484.226 192.117 474.176C197.386 458.607 162.659 475.345 162.659 475.345L159.292 477.556Z" fill="#173D7A"/>
<path d="M174.204 357.043L175.394 474.724C175.42 476.614 174.797 478.456 173.629 479.942C172.46 481.429 170.816 482.47 168.971 482.892L167.544 483.075C166.223 483.278 164.872 483.117 163.637 482.608C162.402 482.099 161.329 481.262 160.536 480.188C159.553 478.794 159.006 477.141 158.963 475.436L157.463 425.185L150.034 380.269L139.641 459.776C139.59 460.806 139.306 461.81 138.812 462.715C138.318 463.62 137.626 464.402 136.787 465.002C135.388 465.93 133.725 466.379 132.048 466.282C130.843 466.227 129.662 465.925 128.578 465.394C127.495 464.862 126.534 464.113 125.754 463.193C124.744 462.009 124.209 460.491 124.254 458.936L128.279 411.151L129.908 350.081L174.204 357.043Z" fill="#4D4D4D"/>
<path d="M158.945 251.697L157.115 262.424C157.157 263.543 157.578 264.615 158.309 265.465C159.04 266.315 160.038 266.892 161.14 267.102C165.239 268.107 166.501 265.475 166.501 265.475L168.331 253.397L158.945 251.697Z" fill="#FFC2B0"/>
<path d="M181.173 251.891C185.488 243.27 182.758 233.172 175.075 229.336C167.392 225.501 157.666 229.38 153.351 238.001C149.036 246.622 151.766 256.72 159.449 260.555C167.132 264.391 176.858 260.512 181.173 251.891Z" fill="#FFC2B0"/>
<path d="M159.439 262.625C159.146 262.515 142.075 251.533 135.763 263.027C125.48 281.757 126.083 342.059 129.34 349.862C132.341 357.171 139.843 362.416 145.112 365.431C149.763 368.159 155.034 369.656 160.427 369.78C165.751 369.78 175.979 365.084 175.613 358.121C173.911 326.088 176.747 299.08 179.272 272.876C179.309 272.876 176.089 269.368 159.439 262.625Z" fill="white"/>
<path d="M150.034 380.269L139.641 459.776C139.59 460.806 139.306 461.81 138.812 462.715C138.318 463.62 137.626 464.402 136.787 465.002C136.503 465.188 136.21 465.358 135.909 465.514C138.068 463.888 144.362 397.153 145.533 389.734C146.704 382.315 150.034 380.269 150.034 380.269Z" fill="black" fill-opacity="0.26"/>
<path d="M214.018 266.17L223.295 235.818L218.41 233.789L207.468 257.563L214.018 266.17Z" fill="#FFC2B0"/>
<path d="M120.521 242.25L127.474 210.655L133 210.71L130.932 236.914L120.521 242.25Z" fill="#FFC2B0"/>
<path d="M179.309 272.876C179.309 272.876 195.978 276.202 206.571 256.814C206.772 256.424 207.066 256.091 207.427 255.843C207.789 255.596 208.207 255.442 208.643 255.397C209.079 255.352 209.52 255.416 209.925 255.583C210.33 255.751 210.687 256.017 210.963 256.357C212.664 258.934 214.915 262.899 213.762 267.175C208.584 286.124 180.627 290.309 175.65 301.291C170.673 312.273 179.309 272.876 179.309 272.876Z" fill="white"/>
<path d="M148.607 258.696C148.607 258.696 135.415 259.701 133.512 248.298C132.813 244.525 132.366 240.71 132.176 236.878C132.168 236.557 132.094 236.241 131.956 235.951C131.819 235.661 131.623 235.403 131.38 235.193C131.137 234.983 130.853 234.826 130.546 234.733C130.239 234.639 129.915 234.61 129.597 234.648C126.431 235.032 121.546 235.982 120.869 238.102C119.881 241.263 118.015 256.759 131.06 280.533C139.605 296.028 148.607 258.696 148.607 258.696Z" fill="white"/>
<path d="M127.438 210.728L127.566 207.074C127.602 205.783 127.974 204.523 128.645 203.419L132.304 197.425L133.256 196.219C133.685 195.687 134.293 195.33 134.968 195.216C135.642 195.101 136.335 195.237 136.915 195.598L137.757 196.128C138.28 196.461 138.704 196.929 138.984 197.482C139.264 198.035 139.39 198.653 139.349 199.271L137.519 204.406L139.916 203.931C140.028 203.913 140.143 203.918 140.253 203.945C140.363 203.972 140.466 204.021 140.557 204.09C140.647 204.158 140.723 204.244 140.78 204.342C140.836 204.44 140.872 204.549 140.886 204.662C140.921 204.852 140.889 205.049 140.796 205.219C140.702 205.389 140.553 205.521 140.373 205.594L136.476 207.165L132.927 212.172L127.438 210.728Z" fill="#FFC2B0"/>
<path d="M223.441 235.982L224.539 232.547C224.931 231.337 225.006 230.048 224.758 228.801L223.35 221.912L222.856 220.468C222.644 219.817 222.197 219.268 221.601 218.93C221.005 218.592 220.304 218.489 219.635 218.641L218.666 218.842C218.058 218.975 217.498 219.269 217.044 219.694C216.59 220.118 216.259 220.657 216.086 221.254V226.736L214 225.493C213.903 225.435 213.796 225.397 213.684 225.381C213.572 225.365 213.458 225.371 213.348 225.4C213.239 225.429 213.137 225.48 213.047 225.549C212.958 225.619 212.884 225.705 212.829 225.804C212.733 225.97 212.697 226.164 212.727 226.354C212.757 226.543 212.851 226.717 212.994 226.846L216.141 229.66L217.97 236.311L223.441 235.982Z" fill="#FFC2B0"/>
<path d="M171.551 295.828C170.033 302.753 174.296 356.477 160.427 369.78C165.751 369.78 175.979 365.084 175.613 358.121C174.676 338.478 175.104 318.793 176.894 299.208C182.383 292.155 197.295 287.678 206.663 278.651C205.986 278.852 173.07 288.975 171.551 295.828Z" fill="black" fill-opacity="0.26"/>
<path d="M153.291 259.591L155.67 257.161C155.67 257.161 159.567 261.145 162.696 261.839C164.535 262.368 166.413 262.753 168.313 262.99L169.831 267.193C169.831 267.193 157.353 266.298 153.291 259.591Z" fill="white"/>
<path d="M170.033 250.51C170.359 250.572 170.696 250.555 171.015 250.459C171.333 250.364 171.624 250.193 171.862 249.961C172.649 249.139 172.978 244.827 175.064 244.479C178.339 243.913 184.963 249.011 187.671 238.065C189.061 232.382 186.518 230.354 187.067 227.211C187.067 227.211 187.067 228.837 172.43 225.384C157.792 221.93 150.656 234.173 149.229 240.386C147.802 246.599 149.046 257.435 158.945 260.487C160.591 261.017 168.642 256.558 168.587 255.791C168.532 255.023 165.861 254.603 166.611 252.501C166.809 251.789 167.277 251.182 167.916 250.81C168.555 250.438 169.315 250.33 170.033 250.51Z" fill="#173D7A"/>
<path d="M337.815 44.6967C337.815 45.2007 337.614 45.6841 337.257 46.0405C336.9 46.3969 336.416 46.5971 335.912 46.5971C335.407 46.5971 334.923 46.3969 334.566 46.0405C334.209 45.6841 334.009 45.2007 334.009 44.6967C334.009 44.1927 334.209 43.7093 334.566 43.3529C334.923 42.9965 335.407 42.7963 335.912 42.7963C336.416 42.7963 336.9 42.9965 337.257 43.3529C337.614 43.7093 337.815 44.1927 337.815 44.6967Z" fill="white"/>
<path d="M342.334 535.099L319.975 522.216L297.598 535.099L319.975 548L342.334 535.099Z" fill="#D4ECFF"/>
<path d="M319.975 536.049V521.504L346.688 506.099V520.626L319.975 536.049Z" fill="#E8A200"/>
<path d="M319.975 521.504L293.244 506.099V520.626L319.975 536.049V521.504Z" fill="#F9BF30"/>
<path d="M346.689 506.099L319.975 490.695L293.244 506.099L319.975 521.504L346.689 506.099Z" fill="#FDD762"/>
<path d="M131.701 175.114L109.324 162.213L86.9465 175.114L109.324 188.015L131.701 175.114Z" fill="#D4ECFF"/>
<path d="M109.324 176.046V161.518L136.055 146.096V160.641L109.324 176.046Z" fill="#D3008D"/>
<path d="M109.324 161.518L82.6104 146.096V160.641L109.324 176.046V161.518Z" fill="#D3008D"/>
<path d="M136.055 146.096L109.324 130.691L82.6104 146.096L109.324 161.518L136.055 146.096Z" fill="#FF2C9C"/>
<path d="M489.258 279.82C486.905 279.82 484.606 279.123 482.65 277.818C480.695 276.513 479.17 274.658 478.27 272.488C477.37 270.317 477.134 267.929 477.593 265.625C478.052 263.321 479.185 261.205 480.848 259.544C482.511 257.882 484.631 256.751 486.938 256.293C489.245 255.835 491.636 256.07 493.809 256.969C495.982 257.868 497.84 259.39 499.146 261.343C500.453 263.297 501.151 265.593 501.151 267.942C501.146 271.091 499.891 274.109 497.662 276.336C495.433 278.562 492.41 279.815 489.258 279.82ZM489.258 259.719C487.629 259.719 486.037 260.202 484.683 261.105C483.329 262.009 482.274 263.293 481.651 264.796C481.028 266.298 480.865 267.951 481.182 269.547C481.5 271.142 482.284 272.607 483.436 273.757C484.587 274.907 486.054 275.69 487.651 276.007C489.249 276.325 490.904 276.162 492.409 275.539C493.913 274.917 495.199 273.863 496.104 272.511C497.008 271.159 497.491 269.569 497.491 267.942C497.486 265.763 496.617 263.674 495.074 262.133C493.531 260.592 491.44 259.724 489.258 259.719Z" fill="#FDD762"/>
<path d="M8.06891 310.501L0 294.201L16.4672 286.143L24.5544 302.589L8.06891 310.501ZM4.90355 295.773L9.75222 305.622L19.5959 300.78L14.7473 290.949L4.90355 295.773Z" fill="#FF2C9C"/>
<path d="M264.426 459.1C261.108 459.1 257.864 458.117 255.104 456.276C252.345 454.435 250.195 451.818 248.925 448.756C247.655 445.694 247.323 442.325 247.97 439.074C248.617 435.824 250.215 432.838 252.562 430.495C254.908 428.151 257.898 426.555 261.153 425.909C264.407 425.262 267.781 425.594 270.847 426.862C273.912 428.13 276.533 430.278 278.377 433.034C280.22 435.789 281.204 439.029 281.204 442.343C281.199 446.786 279.43 451.045 276.285 454.187C273.139 457.328 268.874 459.095 264.426 459.1ZM264.426 429.241C261.831 429.241 259.295 430.01 257.137 431.449C254.98 432.889 253.299 434.935 252.306 437.329C251.313 439.724 251.053 442.358 251.559 444.899C252.065 447.441 253.315 449.776 255.15 451.608C256.984 453.44 259.322 454.688 261.867 455.194C264.411 455.699 267.049 455.44 269.446 454.448C271.843 453.456 273.892 451.777 275.334 449.622C276.775 447.468 277.545 444.935 277.545 442.343C277.545 438.868 276.163 435.536 273.702 433.079C271.242 430.622 267.905 429.241 264.426 429.241Z" fill="#FF2C9C"/>
<path d="M249.496 465.477C256.185 465.477 261.608 460.061 261.608 453.381C261.608 446.7 256.185 441.284 249.496 441.284C242.806 441.284 237.383 446.7 237.383 453.381C237.383 460.061 242.806 465.477 249.496 465.477Z" fill="#FDD762"/>
<path d="M503.182 503.23L475.681 487.387L448.199 503.23L475.681 519.092L503.182 503.23Z" fill="#D4ECFF"/>
<path d="M483.677 482.198V383.448L507.042 369.981V468.73L483.677 482.198Z" fill="#721BD5"/>
<path d="M483.677 383.448L460.33 369.981V468.73L483.677 482.198V383.448Z" fill="#B45EF4"/>
<path d="M507.042 369.981L483.677 356.513L460.33 369.981L483.677 383.448L507.042 369.981Z" fill="#8A2AE3"/>
<path d="M507.042 486.693L483.677 473.225V482.198L507.042 495.665V486.693Z" fill="#95D359"/>
<path d="M460.33 495.665V423.833L483.677 410.383V482.198L460.33 495.665Z" fill="#C13D1A"/>
<path d="M460.33 423.833L436.965 410.383V482.198L460.33 495.665V423.833Z" fill="#DB5126"/>
<path d="M483.677 410.383L460.33 396.916L436.965 410.383L460.33 423.832L483.677 410.383Z" fill="#EF602E"/>
<path d="M483.677 509.133V468.73L507.042 455.263V495.665L483.677 509.133Z" fill="#E8A200"/>
<path d="M483.677 468.73L460.33 455.263V495.665L483.677 509.133V468.73Z" fill="#F9BF30"/>
<path d="M507.042 455.263L483.677 441.795L460.33 455.263L483.677 468.73L507.042 455.263Z" fill="#FDD762"/>
</g>
<defs>
<clipPath id="clip0_223_195">
<rect width="590" height="548" fill="white"/>
</clipPath>
</defs>
</svg>
